<svg xmlns="http://www.w3.org/2000/svg" viewBox="0 0 439.54 491.37">
  <defs>
    <style>.teach .cls-1 {
      isolation: isolate;
    }

    .teach .cls-2 {
      fill: #f7f7f7;
    }

    .teach .cls-3 {
      fill: #f1f1f2;
    }

    .teach .cls-4 {
      fill: #f26522;
    }

    .teach .cls-5 {
      fill: #ebf0ec;
    }

    .teach .cls-6 {
      fill: #ced8d2;
    }

    .teach .cls-7 {
      fill: #dde6e0;
      opacity: 0.6;
      mix-blend-mode: multiply;
    }</style>
  </defs>
  <title>iconsGrid</title>
  <g class="teach cls-1">
    <g id="Layer_1" data-name="Layer 1">
      <path class="cls-2"
            d="M209.77,334.47l155-64.94a10.43,10.43,0,0,1,1.54-.61,11.34,11.34,0,0,0,7.79-10.77V11.34A11.35,11.35,0,0,0,363.55,0a9.85,9.85,0,0,0-5.23,1.22l-148.55,63V334.47Z"/>
      <path class="cls-3"
            d="M209.77,335L65.62,285.16c-3.43-1.26-5.84-5.8-5.84-11V27.35c0-7.38,4.71-12.79,9.58-11L209.77,64.83V335Z"/>
      <polygon class="cls-4"
               points="198.78 385.87 179.78 363.87 160.78 377.87 160.78 232.74 198.78 242.34 198.78 385.87"/>
      <polygon class="cls-4" points="198.78 65.82 160.78 57.82 160.78 46.7 198.78 58.3 198.78 65.82"/>
      <path class="cls-5"
            d="M209.77,335l181.41-37.86a11.34,11.34,0,0,0,8.59-11V39.35a11.34,11.34,0,0,0-14.09-11L209.77,64.83V335Z"/>
      <path class="cls-6"
            d="M209.77,335.22L38.22,297.45a11.34,11.34,0,0,1-8.45-11V39.74A11.34,11.34,0,0,1,44,28.78L209.77,65V335.22Z"/>
      <ellipse class="cls-7" cx="219.77" cy="474.17" rx="219.77" ry="17.2"/>
      <path class="cls-4"
            d="M252.33,137.6a5.76,5.76,0,0,1-1.18-11.39l116-26.88a5.76,5.76,0,0,1,2.38,11.27l-116,26.88A5.81,5.81,0,0,1,252.33,137.6Z"/>
      <path class="cls-4"
            d="M277.93,161.63a5.76,5.76,0,0,1-1.18-11.39L351,132.69A5.76,5.76,0,0,1,353.34,144L279.12,161.5A5.81,5.81,0,0,1,277.93,161.63Z"/>
    </g>
  </g>
</svg>
