<?xml version="1.0" encoding="utf-8"?>
<!-- Generator: Adobe Illustrator 18.1.0, SVG Export Plug-In . SVG Version: 6.00 Build 0)  -->
<!DOCTYPE svg PUBLIC "-//W3C//DTD SVG 1.1//EN" "http://www.w3.org/Graphics/SVG/1.1/DTD/svg11.dtd">
<svg version="1.1" xmlns="http://www.w3.org/2000/svg" xmlns:xlink="http://www.w3.org/1999/xlink" x="0px" y="0px"
	 viewBox="0 0 32 32" enable-background="new 0 0 32 32" xml:space="preserve">
<g id="Layer_1">
	<path fill-rule="evenodd" clip-rule="evenodd" fill="#D3D3D3" d="M16,0C7.2,0,0,6.9,0,15.5c0,3.9,1.5,7.4,3.9,10.1L2,32l8.8-1.8
		c1.6,0.5,3.4,0.9,5.2,0.9c8.8,0,16-6.9,16-15.5S24.8,0,16,0z M16,24c-1.1,0-2-0.9-2-2s0.9-2,2-2c1.1,0,2,0.9,2,2S17.1,24,16,24z
		 M18,16c0,1.1-0.9,2-2,2c-1.1,0-2-0.9-2-2V8c0-1.1,0.9-2,2-2c1.1,0,2,0.9,2,2V16z"/>
</g>
<g id="Layer_2">
</g>
</svg>
