<?xml version="1.0" encoding="utf-8"?>
<svg xmlns="http://www.w3.org/2000/svg"
	xmlns:xlink="http://www.w3.org/1999/xlink"
	x="0px" y="0px" viewBox="0 0 33 32" enable-background="new 0 0 33 32" xml:space="preserve">
<path fill="rgb(255,253,251)" fill-rule="evenodd" d="M 22.25 26.59C 19.91 23.89 16.39 23.78 13.89 26.32 13.89 26.32 13.81 26.23 13.81 26.23 13.81 26.23 12.45 27.57 12.45 27.57 12.45 27.57 5.62 20.82 5.62 20.82 5.62 20.82 7.42 19.31 7.42 19.31 7.42 19.31 7.36 19.24 7.36 19.24 10.02 16.87 10.29 12.75 7.95 10.05 7.95 10.05 18.49 0.86 18.49 0.86 18.49 0.86 32.79 17.39 32.79 17.39 32.79 17.39 22.25 26.59 22.25 26.59ZM 8 30C 8 30 0 30 0 30 0 30-0.01 29.06 0.07 28.98 1.79 27.26 5.12 24.14 5.12 24.14 5.12 24.14 9.87 28.44 9.87 28.44 9.87 28.44 8 30 8 30ZM 5.22 32.84C 5.22 32.84 28.06 32.84 28.06 32.84 28.81 32.84 29.42 33.44 29.42 34.2 29.42 34.2 29.42 34.65 29.42 34.65 29.42 35.4 28.81 36.01 28.06 36.01 28.06 36.01 5.22 36.01 5.22 36.01 4.47 36.01 3.86 35.4 3.86 34.65 3.86 34.65 3.86 34.2 3.86 34.2 3.86 33.44 4.47 32.84 5.22 32.84Z"/>
</svg>
