<?xml version="1.0" encoding="utf-8"?>
<!-- Generator: Adobe Illustrator 18.1.0, SVG Export Plug-In . SVG Version: 6.00 Build 0)  -->
<!DOCTYPE svg PUBLIC "-//W3C//DTD SVG 1.1//EN" "http://www.w3.org/Graphics/SVG/1.1/DTD/svg11.dtd">
<svg version="1.1" xmlns="http://www.w3.org/2000/svg" xmlns:xlink="http://www.w3.org/1999/xlink" x="0px" y="0px"
	 viewBox="0 0 25 20.8" enable-background="new 0 0 25 20.8" xml:space="preserve">
<g id="Layer_1">
	<path fill-rule="evenodd" clip-rule="evenodd" fill="#D3D3D3" d="M25,13c0-2-1.4-3.6-3.3-4c0.3-0.6,0.4-1.3,0.4-2.1
		c0-2.9-2.4-5.2-5.4-5.2c-0.9,0-1.7,0.2-2.4,0.6C13.2,0.9,11.5,0,9.6,0C6.1,0,3.3,2.8,3.3,6.2c0,0.2,0,0.4,0,0.7
		C1.4,7.6,0,9.5,0,11.9c0,2.8,2.5,5,5,5.1h10l6.1,4v-3.9C23.3,16.9,25,15.2,25,13z"/>
</g>
<g id="Layer_2">
</g>
</svg>
