<?xml version="1.0" encoding="utf-8"?>
<!-- Generator: Adobe Illustrator 18.1.0, SVG Export Plug-In . SVG Version: 6.00 Build 0)  -->
<!DOCTYPE svg PUBLIC "-//W3C//DTD SVG 1.1//EN" "http://www.w3.org/Graphics/SVG/1.1/DTD/svg11.dtd">
<svg version="1.1" xmlns="http://www.w3.org/2000/svg" xmlns:xlink="http://www.w3.org/1999/xlink" x="0px" y="0px"
	 viewBox="0 0 15.9 12" enable-background="new 0 0 15.9 12" xml:space="preserve">
<g id="Layer_1">
	<path fill-rule="evenodd" clip-rule="evenodd" fill="#D3D3D3" d="M0.2,6.5l7,5.3C7.4,12,8,11.9,8,11.9C8,11.9,8,9,8,9s6,0,6,0
		c1.9,0.1,1.9-1.6,1.9-1.6V4.6C15.9,4.6,16,3,14,3c-2.1,0-6,0-6,0s0-3,0-2.9C8,0,7.8,0,7.7,0C7.5,0,7.3,0.1,7.2,0.2l-7,5.3
		C0.1,5.6,0,5.8,0,6C0,6.2,0.1,6.4,0.2,6.5z"/>
</g>
<g id="Layer_2">
</g>
</svg>
