<?xml version="1.0" encoding="utf-8"?>
<!-- Generator: Adobe Illustrator 18.1.0, SVG Export Plug-In . SVG Version: 6.00 Build 0)  -->
<!DOCTYPE svg PUBLIC "-//W3C//DTD SVG 1.1//EN" "http://www.w3.org/Graphics/SVG/1.1/DTD/svg11.dtd">
<svg version="1.1" xmlns="http://www.w3.org/2000/svg" xmlns:xlink="http://www.w3.org/1999/xlink" x="0px" y="0px"
	 viewBox="0 0 33 32" enable-background="new 0 0 33 32" xml:space="preserve">
<g id="Layer_1">
	<g>
		<path fill="#D3D3D3" d="M29.9,0H3.1C1.4,0,0,1.4,0,3.1V29C0,30.7,1.4,32,3.1,32c0,0,9.2,0,16.9,0c0,0,0,0,0,0V21c0-1.7,1.3-3,3-3
			h10h0c0-5,0-15,0-15C33,1.4,31.6,0,29.9,0z M13.5,12c-0.2-0.1-0.6-0.3-0.7-0.3c-0.1,0-0.6,0.3-0.8,0.4c-0.6,0.3-1.3,0.7-2.1,0.7
			c-1.9,0-3-0.9-3.5-1.4c-0.2-0.2-1-1-0.4-1.9c1.1-1.5,2.7,0,2.7,0c0,0,0.3,0.4,1.2,0.4c0,0,0.4-0.2,0.6-0.3
			c0.6-0.4,1.4-0.8,2.4-0.8c0.9,0,1.6,0.4,2.2,0.7c0.2,0.1,0.6,0.4,0.8,0.4c0.1,0,0.4-0.2,0.7-0.4c0.6-0.3,1.3-0.8,2.2-0.8
			c1,0,1.8,0.5,2.3,0.8c0.2,0.1,0.5,0.3,0.6,0.3c0.1,0,0.5-0.3,0.8-0.4c0.6-0.3,1.3-0.7,2-0.7c0.8,0,1.5,0.7,1.5,1.5
			c0,0.8-0.6,1.4-1.4,1.5c-0.1,0.1-0.4,0.2-0.6,0.3c-0.7,0.4-1.4,0.8-2.3,0.8c-0.9,0-1.6-0.4-2.2-0.8c-0.3-0.2-0.6-0.4-0.8-0.4
			c-0.1,0-0.5,0.2-0.7,0.3c-0.6,0.3-1.3,0.8-2.2,0.8C14.8,12.8,14.1,12.4,13.5,12z"/>
		<polygon fill="#D3D3D3" points="23,21 23,31.8 23,32 33,21 32.9,21 		"/>
	</g>
</g>
<g id="Layer_2">
</g>
</svg>
