<?xml version="1.0" encoding="utf-8"?>
<!-- Generator: Adobe Illustrator 18.1.0, SVG Export Plug-In . SVG Version: 6.00 Build 0)  -->
<!DOCTYPE svg PUBLIC "-//W3C//DTD SVG 1.1//EN" "http://www.w3.org/Graphics/SVG/1.1/DTD/svg11.dtd">
<svg version="1.1" xmlns="http://www.w3.org/2000/svg" xmlns:xlink="http://www.w3.org/1999/xlink" x="0px" y="0px"
	 viewBox="0 0 38 36" enable-background="new 0 0 38 36" xml:space="preserve">
<g id="Layer_1">
	<path fill-rule="evenodd" clip-rule="evenodd" fill="#D3D3D3" d="M34,0H4C1.8,0,0,1.8,0,4v22c0,2.2,1.8,4,4,4h2l0,6l10-6h18
		c2.2,0,4-1.8,4-4V4C38,1.8,36.2,0,34,0z M17,10c0-1.1,0.9-2,2-2c1.1,0,2,0.9,2,2v10c0,1.1-0.9,2-2,2c-1.1,0-2-0.9-2-2V10z M10,14
		c0-1.1,0.9-2,2-2c1.1,0,2,0.9,2,2v6c0,1.1-0.9,2-2,2c-1.1,0-2-0.9-2-2V14z M28,20c0,1.1-0.9,2-2,2c-1.1,0-2-0.9-2-2v-5
		c0-1.1,0.9-2,2-2c1.1,0,2,0.9,2,2V20z"/>
</g>
<g id="Layer_2">
</g>
</svg>
