<?xml version="1.0" encoding="utf-8"?>
<!-- Generator: Adobe Illustrator 19.2.1, SVG Export Plug-In . SVG Version: 6.00 Build 0)  -->
<!DOCTYPE svg PUBLIC "-//W3C//DTD SVG 1.1//EN" "http://www.w3.org/Graphics/SVG/1.1/DTD/svg11.dtd">
<svg version="1.1" id="Layer_1" xmlns="http://www.w3.org/2000/svg" xmlns:xlink="http://www.w3.org/1999/xlink" x="0px" y="0px"
	 viewBox="0 0 56 36" style="enable-background:new 0 0 56 36;" xml:space="preserve">
<style type="text/css">
	.st0{fill:#D3D3D3;}
</style>
<g id="Layer_1_1_">
	<g>
		<path class="st0" d="M42.8,12H45V2.1h-3.3c-0.8-0.6-2.4-1.6-4.6-1.8c-3.5-0.3-6.2-0.2-6.2-0.2l0,0C29.6,0.3,27,2.5,27,3.8v8.9
			c0,1.3,1.1,2.3,2.4,2.3h0.3c0.1,0,0.1,0,0.2,0c0,0,2.7,0,5.1,0c0,1,0,2.6,0,3.6c0,1.9,0.9,3.3,3.2,3.2c0.8,0,0.9-1.8,0.9-3.2
			c0,0,0-0.3,0-0.7c0,0.1,0,0.1,0,0.1c0.1-3.3,2.9-1.7,3.7-5.7C42.8,12.2,42.8,12.1,42.8,12z"/>
		<path class="st0" d="M56,14V0l-4,0l-1,0l-1,0c-1.1,0-2,0.9-2,2v10c0,1.1,0.9,2,2,2h1h1H56z"/>
		<path class="st0" d="M26.6,20.8h-0.3c-0.1,0-0.1,0-0.2,0c0,0-2.7,0-5.1,0c0-1,0-2.6,0-3.6c0-1.9-0.9-3.3-3.2-3.2
			c-0.8,0-0.9,1.8-0.9,3.2c0,0,0,0.2,0,0.7c0-0.1,0-0.1,0-0.1c-0.1,3.3-2.9,1.6-3.7,5.7c0,0.1,0,0.2,0,0.3H11v10.1h3.3
			c0.8,0.6,2.4,1.6,4.6,1.8c3.5,0.3,6.2,0.2,6.2,0.2l0,0c1.3-0.1,3.9-2.4,3.9-3.7v-9C29,21.9,28,20.9,26.6,20.8z"/>
		<path class="st0" d="M8,34V23.9c0-1.1-0.9-2-2-2H5H4H0L0,36h4h1h1C7.1,36,8,35.1,8,34z"/>
	</g>
</g>
<g id="Layer_2">
</g>
</svg>
