<?xml version="1.0" encoding="utf-8"?>
<!-- Generator: Adobe Illustrator 18.1.0, SVG Export Plug-In . SVG Version: 6.00 Build 0)  -->
<!DOCTYPE svg PUBLIC "-//W3C//DTD SVG 1.1//EN" "http://www.w3.org/Graphics/SVG/1.1/DTD/svg11.dtd">
<svg version="1.1" xmlns="http://www.w3.org/2000/svg" xmlns:xlink="http://www.w3.org/1999/xlink" x="0px" y="0px"
	 viewBox="0 0 42 31" enable-background="new 0 0 42 31" xml:space="preserve">
<g id="Layer_1">
	<g>
		<path fill-rule="evenodd" clip-rule="evenodd" fill="#D3D3D3" d="M29.2,20H26l0,11l3.2,0c1.2,0,1.8-0.9,1.8-2v-7.4
			C31,20.5,30.4,20,29.2,20z"/>
		<path fill-rule="evenodd" clip-rule="evenodd" fill="#D3D3D3" d="M28.9,0H26l0,11h3.2c1.2,0,1.8-0.5,1.8-1.6V2
			C31,0.9,30.1,0,28.9,0z"/>
		<path fill-rule="evenodd" clip-rule="evenodd" fill="#D3D3D3" d="M0,15.2C0,23.9,7,31,15.7,31l0-0.1c0.2,0.1,0.4,0.1,0.6,0.1
			l6.7,0l0-11h-7c-0.2,0-0.3,0-0.3,0c-2.2-0.2-3.6-3-3.6-4.7c0-1.6,1.4-4.1,3.6-4.3c0,0,0.1,0,0.3,0h7l0-11l-7.4,0C7,0,0,6.6,0,15.2
			z"/>
		<ellipse fill-rule="evenodd" clip-rule="evenodd" fill="#D3D3D3" cx="35.5" cy="5.6" rx="1.5" ry="1.6"/>
		<ellipse fill-rule="evenodd" clip-rule="evenodd" fill="#D3D3D3" cx="40.5" cy="5.6" rx="1.5" ry="1.6"/>
		<ellipse fill-rule="evenodd" clip-rule="evenodd" fill="#D3D3D3" cx="35.5" cy="25.6" rx="1.5" ry="1.6"/>
		<ellipse fill-rule="evenodd" clip-rule="evenodd" fill="#D3D3D3" cx="40.5" cy="25.6" rx="1.5" ry="1.6"/>
	</g>
</g>
<g id="Layer_2">
</g>
</svg>
