<?xml version="1.0" encoding="utf-8"?>
<svg xmlns="http://www.w3.org/2000/svg"
	xmlns:xlink="http://www.w3.org/1999/xlink"
	width="18px" height="13px">
<path opacity="0.80" fill="rgb(51,165,63)" fill-rule="evenodd" d="M 17.24 2.7C 17.24 2.7 7.52 12.45 7.52 12.45 7.5 12.47 7.5 12.49 7.48 12.5 7.47 12.51 7.45 12.52 7.44 12.53 7 13.01 6.36 13.1 5.83 12.83 5.64 12.76 5.46 12.65 5.31 12.51 5.31 12.51 0.45 8.6 0.45 8.6-0.15 8.03-0.15 7.09 0.45 6.52 1.05 5.94 2.02 5.94 2.62 6.51 2.62 6.51 6.26 9.44 6.26 9.44 6.26 9.44 15.22 0.47 15.22 0.47 15.78-0.15 16.68-0.15 17.24 0.47 17.8 1.08 17.8 2.08 17.24 2.7Z"/>
</svg>