<?xml version="1.0" encoding="utf-8"?>
<svg xmlns="http://www.w3.org/2000/svg"
	xmlns:xlink="http://www.w3.org/1999/xlink"
	width="46px" height="83px">
<path fill="rgb(131,163,225)" fill-rule="evenodd" d="M 39.3 37.42C 38.2 38.51 36.89 39.39 35.52 40.33 31.47 43.06 29.02 45.03 29.02 49.33 29.02 52.54 26.36 55.15 23.07 55.15 19.79 55.15 17.13 52.54 17.13 49.33 17.13 38.62 24.69 33.51 28.75 30.76 29.53 30.23 30.51 29.57 30.83 29.25 32.72 27.38 33.76 24.93 33.76 22.36 33.76 16.83 28.97 12.33 23.07 12.33 17.19 12.33 12.39 16.83 12.39 22.36 12.39 25.57 9.73 28.17 6.45 28.17 3.16 28.17 0.5 25.57 0.5 22.36 0.5 10.42 10.63 0.7 23.07 0.7 35.52 0.7 45.65 10.42 45.65 22.36 45.65 28.01 43.4 33.36 39.3 37.42ZM 22.5 64.38C 27.61 64.38 31.75 68.54 31.75 73.66 31.75 78.78 27.61 82.94 22.5 82.94 17.39 82.94 13.24 78.78 13.24 73.66 13.24 68.54 17.39 64.38 22.5 64.38Z"/>
</svg>