<?xml version="1.0" encoding="utf-8"?>
<!-- Generator: Adobe Illustrator 18.1.1, SVG Export Plug-In . SVG Version: 6.00 Build 0)  -->
<!DOCTYPE svg PUBLIC "-//W3C//DTD SVG 1.1//EN" "http://www.w3.org/Graphics/SVG/1.1/DTD/svg11.dtd">
<svg version="1.1" id="Layer_1" xmlns="http://www.w3.org/2000/svg" xmlns:xlink="http://www.w3.org/1999/xlink" x="0px" y="0px"
	 viewBox="0 0 21.9 22" enable-background="new 0 0 21.9 22" xml:space="preserve">
<path fill-rule="evenodd" clip-rule="evenodd" d="M12,9l1,1l-5,5l-1-1L12,9z"/>
<path fill-rule="evenodd" clip-rule="evenodd" d="M8.5,9h4C12.7,9,13,9.2,13,9.5c0,0.3-0.2,0.5-0.5,0.5h-4C8.2,10,8,9.8,8,9.5
	C8,9.2,8.2,9,8.5,9z"/>
<path fill-rule="evenodd" clip-rule="evenodd" d="M12.5,9C12.7,9,13,9.2,13,9.5v4c0,0.3-0.2,0.5-0.5,0.5c-0.3,0-0.5-0.2-0.5-0.5v-4
	C12,9.2,12.2,9,12.5,9z"/>
<path d="M19.9,0H7C5.9,0,5,0.9,5,2v3H2C0.9,5,0,5.9,0,7v13c0,1.1,0.9,2,2,2h13c1.1,0,2-0.9,2-2v-3h3c1.1,0,2-0.9,2-2V2
	C21.9,0.9,21,0,19.9,0z M15,20H2V7h3h2h8v8v2V20z M19.9,15h-3V7c0-1.1-0.9-2-2-2H7V2h13V15z"/>
</svg>
