<?xml version="1.0" encoding="utf-8"?>
<svg xmlns="http://www.w3.org/2000/svg"
	xmlns:xlink="http://www.w3.org/1999/xlink"
	viewbox="0 0 15 15">
<path fill="rgb(255,255,255)" fill-rule="evenodd" d="M 13.69 9C 13.69 9 8.98 9 8.98 9 8.98 9 8.98 13.67 8.98 13.67 8.99 14.36 7.98 15.01 7.49 14.99 7 14.96 6.03 14.38 6.01 13.69 6.01 13.69 6.02 8.99 6.02 8.99 6.02 8.99 1.3 8.98 1.3 8.98 0.62 8.96 0.04 8.13 0.01 7.52-0.01 6.92 0.62 5.98 1.31 6 1.31 6 6.02 6.01 6.02 6.01 6.02 6.01 6.02 1.31 6.02 1.31 6 0.62 7.02-0.03 7.51-0 8 0.02 8.97 0.6 8.99 1.29 8.99 1.29 8.99 6.02 8.99 6.02 8.99 6.02 13.7 6.03 13.7 6.03 14.39 6.05 14.97 6.89 14.99 7.49 15.02 8.09 14.37 9.03 13.69 9Z"/>
</svg>
