
<svg xmlns="http://www.w3.org/2000/svg" version="1.1" xmlns:xlink="http://www.w3.org/1999/xlink" preserveAspectRatio="xMinYMin meet" x="0px" y="0px" viewBox="0 0 153 177">
<defs>
<g id="Layer2_0_FILL">
<path fill="#19C26B" stroke="none" d="
M 89.95 23.6
Q 89.85 23.45 89.7 23.25 89.05 25.85 87.9 29.2 79.6 56.05 75.4 65.7 75.05 66.7 74.55 67.6
L 67.7 64.3
Q 68.15 57.25 61.45 40.3 61.2 39.85 61.1 39.45 61.1 39.5 61.1 39.6 60.9 39.8 60.8 40.25 60.3 41.7 59.65 43.3 57.45 48.2 54.4 53.05
L 31.6 28.2
Q 34.2 26.25 35.9 23.45 37.15 21.1 37.1 18.3 37.1 14.55 34.9 11.55
L 23.1 20.95
Q 22.5 20.4 21 19.2
L 21.4 19.5 20.1 18.3
Q 20.1 18.25 20.05 18.25
L 18.35 16.6
Q 18.15 16.6 18.1 16.7 16.7 15.45 17.15 15.6 15.1 13.8 8.9 5.6 8.85 5.55 8.8 5.5 8.8 5.45 8.75 5.45 7.9 4.3 7 3.4 3.6 0.9 0 0
L 0 159.2 0.05 159.2
Q 0 160.45 0 162
L 0 177.05 34.65 177.05
Q 34.6 176.65 34.55 176.25 34.45 174.15 34.15 172
L 33.4 166.85
Q 82.65 172.15 125.55 135 126.85 133.85 128.15 132.65 130.05 125.05 123.4 120.25
L 121.85 121.35 152.6 70.05
Q 153.2 69 152.9 67.6 152.6 66.35 151.35 65.7 150.3 65.05 149.1 65.3 147.65 65.7 147.05 66.8
L 137.55 82.75
Q 136.1 82.25 132.9 82.25 127.55 82.25 122.35 86.7 117.2 91.2 92.95 113.4 69.7 134.9 27.65 127.8
L 25.6 113.8 63.95 115.3
Q 67.7 115.5 74.95 115.6 83.3 115.8 91.6 108.6 86.65 109.1 82.35 109.05 78.2 103.5 85.35 99.4 86.6 99.4 87.9 99.4 88.4 99.4 88.85 99.4 89.15 99.35 89.45 99.35 92.15 99.25 94.4 98.25 94.15 96.45 93.6 94.3 93.4 93.5 93.15 92.6 93.8 91.55 94.15 90.8 95.55 87.85 96.1 86.05 96.95 83.05 97.55 80.2 99.2 71.1 99.2 58.5 99.2 41.3 91.85 27.1 90.95 25.3 89.95 23.6
M 127.1 97.05
Q 126.85 96 125.6 93 130.4 91.2 133.05 90.2
L 127.55 99.35
Q 127.35 98.1 127.1 97.05 Z"/>
</g>

<g id="Layer1_0_FILL">
<path fill="#FCCF31" stroke="none" d="
M 60.8 40.25
Q 60.3 41.7 59.65 43.3 57.45 48.2 54.4 53.05 54.35 53.95 55.45 56.75 56.6 59.6 59.9 62 60.9 62.7 61.95 63.25 64.6 64.35 67.7 64.3 68.15 57.25 61.45 40.3 61.2 39.85 61.1 39.45 61.1 39.5 61.1 39.6 60.9 39.8 60.8 40.25
M 89.95 23.6
Q 89.85 23.45 89.7 23.25 89.05 25.85 87.9 29.2 79.6 56.05 75.4 65.7 75.05 66.7 74.55 67.6 78.45 75.25 86.6 78.55 87.65 78.95 88.65 79.25 91.7 80.2 94.85 80.2 96.1 80.2 97.55 80.2 99.2 71.1 99.2 58.5 99.2 41.3 91.85 27.1 90.95 25.3 89.95 23.6 Z"/>
</g>

<g id="Layer0_0_FILL">
<path fill="#18BC67" stroke="none" d="
M 34.15 172
L 33.4 166.85
Q 20.4 165.4 7 161.1 3.75 160.35 0.55 159.5
L 0.45 159.5
Q 0.25 149.75 0.05 159.2 0 160.45 0 162
L 0 177.05 34.65 177.05
Q 34.6 176.65 34.55 176.25 34.45 174.15 34.15 172
M 9.8 171.75
Q 9.7 171.7 9.8 171.7 10.1 172.15 9.55 172.05
L 9.8 171.75
M 6.2 176.05
L 6.4 175.85
Q 6.7 176.2 7 176.55
L 6.2 176.05 Z"/>

<path fill="#19C26B" stroke="none" d="
M 6.4 175.85
L 6.2 176.05 7 176.55
Q 6.7 176.2 6.4 175.85
M 9.8 171.7
Q 9.7 171.7 9.8 171.75
L 9.55 172.05
Q 10.1 172.15 9.8 171.7
M 97.55 80.2
Q 96.1 80.2 94.85 80.2 91.7 80.2 88.65 79.25 87.65 78.95 86.6 78.55 78.45 75.25 74.55 67.6
L 67.7 64.3
Q 64.6 64.35 61.95 63.25 60.9 62.7 59.9 62 56.6 59.6 55.45 56.75 54.35 53.95 54.4 53.05
L 31.6 28.2
Q 34.2 26.25 35.9 23.45 37.15 21.1 37.1 18.3 37.1 14.55 34.9 11.55
L 23.1 20.95
Q 22.5 20.4 21 19.2
L 21.4 19.5 20.1 18.3
Q 20.1 18.25 20.05 18.25
L 18.35 16.6
Q 18.15 16.6 18.1 16.7 16.7 15.45 17.15 15.6 15.1 13.8 8.9 5.6 8.85 5.55 8.8 5.5 8.8 5.45 8.75 5.45 7.9 4.3 7 3.4 3.6 0.9 0 0
L 0 159.2 0.05 159.2
Q 0.25 149.75 0.45 159.5
L 0.55 159.5
Q 3.75 160.35 7 161.1 20.4 165.4 33.4 166.85 82.65 172.15 125.55 135 126.85 133.85 128.15 132.65 130.05 125.05 123.4 120.25
L 121.85 121.35 111.3 129.6 119.2 113.4
Q 119.1 113.55 118.9 113.75 104.1 127.75 87.65 135 60.85 146.75 29.55 140.5
L 27.65 127.8 25.6 113.8 63.95 115.3
Q 67.7 115.5 74.95 115.6 83.3 115.8 91.6 108.6 86.65 109.1 82.35 109.05 81.45 109.05 80.6 108.9 73.95 108.5 69.95 106.85 66.05 105.25 63.95 103.35 62.35 101.65 61.15 99.75 60.15 98.25 59.35 96.7 64.85 97.6 70.4 98.25 72.9 98.6 75.4 98.85 74.9 98.65 74.35 98.4 73.7 98.25 73.1 98.1 73.7 98.15 74.45 98.4 76.15 98.75 77.8 99.05 81.55 99.35 85.35 99.4 86.6 99.4 87.9 99.4 88.05 99.35 88.1 99.25 88.55 99 89.1 98.6 89.35 98.25 89.85 98 89.3 98.65 88.85 99.4 89.15 99.35 89.45 99.35 92.15 99.25 94.4 98.25 94.15 96.45 93.6 94.3 93.4 93.5 93.15 92.6 93.8 91.55 94.15 90.8 95.55 87.85 96.1 86.05 96.95 83.05 97.55 80.2
M 84.55 84.8
Q 85.2 83.45 86.2 83.45 87.2 83.45 87.9 84.8 88.65 86.05 88.65 87.75 88.65 89.55 87.9 90.8 87.2 92.05 86.2 92.05 85.2 92.05 84.55 90.8 83.95 89.55 83.95 87.75 83.95 86.05 84.55 84.8
M 17.85 16.8
L 17.75 16.7 17.8 16.7 17.85 16.8
M 45.55 67.3
Q 46.4 68.1 46.4 69.35 46.4 70.6 45.55 71.45 44.7 72.3 43.45 72.3 42.35 72.3 41.45 71.45 40.65 70.6 40.65 69.35 40.65 68.1 41.45 67.3 42.35 66.55 43.45 66.55 44.7 66.55 45.55 67.3
M 77.1 112.8
Q 77.0478515625 112.801171875 76.95 112.85
L 76.95 112.8 77.1 112.8 Z"/>

<path fill="#17B564" stroke="none" d="
M 74.35 98.4
Q 74.9 98.65 75.4 98.85 76.3 98.85 77.2 99.05 77.55 99.05 77.8 99.05 76.15 98.75 74.45 98.4 73.7 98.15 73.1 98.1 73.7 98.25 74.35 98.4
M 89.85 98
Q 89.35 98.25 89.1 98.6 88.55 99 88.1 99.25 88.05 99.35 87.9 99.4 88.4 99.4 88.85 99.4 89.3 98.65 89.85 98 Z"/>

<path fill="#108347" stroke="none" d="
M 75.4 98.85
Q 72.9 98.6 70.4 98.25 64.85 97.6 59.35 96.7 60.15 98.25 61.15 99.75 62.35 101.65 63.95 103.35 66.05 105.25 69.95 106.85 73.95 108.5 80.6 108.9 81.45 109.05 82.35 109.05 78.2 103.5 85.35 99.4 81.55 99.35 77.8 99.05 77.55 99.05 77.2 99.05 76.3 98.85 75.4 98.85 Z"/>

<path fill="#FFD74D" stroke="none" d="
M 61.95 63.25
Q 64.6 64.35 67.7 64.3 68.15 57.25 61.45 40.3 64.85 54.45 61.95 63.25
M 91.85 27.1
Q 90.95 25.3 89.95 23.6 97.3 53.45 88.65 79.25 91.7 80.2 94.85 80.2 96.1 80.2 97.55 80.2 99.2 71.1 99.2 58.5 99.2 41.3 91.85 27.1 Z"/>

<path fill="#FCCF31" stroke="none" d="
M 61.45 40.3
Q 61.2 39.85 61.1 39.45 61.1 39.5 61.1 39.6 60.9 39.8 60.8 40.25 60.3 41.7 59.65 43.3 57.45 48.2 54.4 53.05 54.35 53.95 55.45 56.75 56.6 59.6 59.9 62 60.9 62.7 61.95 63.25 64.85 54.45 61.45 40.3
M 89.95 23.6
Q 89.85 23.45 89.7 23.25 89.05 25.85 87.9 29.2 79.6 56.05 75.4 65.7 75.05 66.7 74.55 67.6 78.45 75.25 86.6 78.55 87.65 78.95 88.65 79.25 97.3 53.45 89.95 23.6 Z"/>

<path fill="#15AF60" stroke="none" d="
M 132.9 82.25
Q 127.55 82.25 122.35 86.7 117.2 91.2 92.95 113.4 69.7 134.9 27.65 127.8
L 29.55 140.5
Q 60.85 146.75 87.65 135 104.1 127.75 118.9 113.75
L 127.55 99.35
Q 127.35 98.1 127.1 97.05 126.85 96 125.6 93 130.4 91.2 133.05 90.2
L 137.55 82.75
Q 136.1 82.25 132.9 82.25 Z"/>

<path fill="#7C7C7C" stroke="none" d="
M 149.1 65.3
Q 147.65 65.7 147.05 66.8
L 137.55 82.75 133.05 90.2 127.55 99.35 118.9 113.75
Q 119.1 113.55 119.2 113.4
L 111.3 129.6 121.85 121.35 152.6 70.05
Q 153.2 69 152.9 67.6 152.6 66.35 151.35 65.7 150.3 65.05 149.1 65.3
M 146.4 76.7
Q 146.4 77.5 145.95 77.95 145.55 78.45 144.7 78.45 143.95 78.45 143.45 77.95 143.05 77.5 143.05 76.7 143.05 76.05 143.45 75.55 143.95 75.1 144.7 75.1 145.55 75.1 145.95 75.55 146.4 76.05 146.4 76.7 Z"/>

<path fill="#FFFFFF" stroke="none" d="
M 145.95 77.95
Q 146.4 77.5 146.4 76.7 146.4 76.05 145.95 75.55 145.55 75.1 144.7 75.1 143.95 75.1 143.45 75.55 143.05 76.05 143.05 76.7 143.05 77.5 143.45 77.95 143.95 78.45 144.7 78.45 145.55 78.45 145.95 77.95 Z"/>

<path fill="#16AF60" stroke="none" d="
M 76.95 112.85
Q 77.0478515625 112.801171875 77.1 112.8
L 76.95 112.8 76.95 112.85 Z"/>

<path fill="#139A54" stroke="none" d="
M 46.4 69.35
Q 46.4 68.1 45.55 67.3 44.7 66.55 43.45 66.55 42.35 66.55 41.45 67.3 40.65 68.1 40.65 69.35 40.65 70.6 41.45 71.45 42.35 72.3 43.45 72.3 44.7 72.3 45.55 71.45 46.4 70.6 46.4 69.35 Z"/>

<path fill="#19C36B" stroke="none" d="
M 17.75 16.7
L 17.85 16.8 17.8 16.7 17.75 16.7 Z"/>

<path fill="#129A54" stroke="none" d="
M 86.2 83.45
Q 85.2 83.45 84.55 84.8 83.95 86.05 83.95 87.75 83.95 89.55 84.55 90.8 85.2 92.05 86.2 92.05 87.2 92.05 87.9 90.8 88.65 89.55 88.65 87.75 88.65 86.05 87.9 84.8 87.2 83.45 86.2 83.45 Z"/>
</g>
</defs>

<g transform="matrix( 1, 0, 0, 1, 0,0) ">
<use xlink:href="#Layer2_0_FILL"/>
</g>

<g transform="matrix( 1, 0, 0, 1, 0,0) ">
<use xlink:href="#Layer1_0_FILL"/>
</g>

<g transform="matrix( 1, 0, 0, 1, 0,0) ">
<use xlink:href="#Layer0_0_FILL"/>
</g>
</svg>
