<?xml version="1.0" encoding="utf-8"?>
<!-- Generator: Adobe Illustrator 18.1.0, SVG Export Plug-In . SVG Version: 6.00 Build 0)  -->
<!DOCTYPE svg PUBLIC "-//W3C//DTD SVG 1.1//EN" "http://www.w3.org/Graphics/SVG/1.1/DTD/svg11.dtd">
<svg version="1.1" xmlns="http://www.w3.org/2000/svg" xmlns:xlink="http://www.w3.org/1999/xlink" x="0px" y="0px"
	 viewBox="0 0 34 43" enable-background="new 0 0 34 43" xml:space="preserve">
<g id="Layer_1">
	<path fill-rule="evenodd" clip-rule="evenodd" fill="#D3D3D3" d="M30.8,0H3.2C1.4,0,0,1.4,0,3.2v36.6C0,41.6,1.4,43,3.2,43h27.6
		c1.8,0,3.2-1.4,3.2-3.2V3.2C34,1.4,32.6,0,30.8,0z M17.5,34.9h-11c-0.8,0-1.5-0.7-1.5-1.5c0-0.8,0.7-1.5,1.5-1.5h11
		c0.8,0,1.5,0.7,1.5,1.5C19,34.3,18.3,34.9,17.5,34.9z M17.5,23.9h-11c-0.8,0-1.5-0.7-1.5-1.5c0-0.8,0.7-1.5,1.5-1.5h11
		c0.8,0,1.5,0.7,1.5,1.5C19,23.3,18.3,23.9,17.5,23.9z M17.5,12.9h-11c-0.8,0-1.5-0.7-1.5-1.5c0-0.8,0.7-1.5,1.5-1.5h11
		c0.8,0,1.5,0.7,1.5,1.5C19,12.3,18.3,12.9,17.5,12.9z M28.6,36.5c-0.6,0.6-1.4,0.5-2-0.1l-1-1l-1,1c-0.6,0.6-1.5,0.7-2.1,0.1
		c-0.6-0.6-0.5-1.4,0.1-2l1.1-1.1l-1-1c-0.6-0.6-0.7-1.4-0.1-2c0.6-0.6,1.4-0.4,2,0.2l1,1l1-1c0.6-0.6,1.4-0.7,2-0.1
		c0.6,0.6,0.5,1.4-0.1,2l-1.1,1.1l1,1C29,35.1,29.2,35.9,28.6,36.5z M29.5,20.5l-3,4c-0.3,0.3-0.7,0.4-1.1,0.4
		c-0.4,0-0.8-0.1-1.1-0.4l-2-2c-0.6-0.6-0.6-1.5,0-2.1c0.6-0.6,1.5-0.6,2.1,0l0.7,0.7l2.1-2.7c0.6-0.6,1.5-0.6,2.1,0
		C30.1,18.9,30.1,19.9,29.5,20.5z M29.5,9.5l-3,4c-0.3,0.3-0.7,0.4-1.1,0.4c-0.4,0-0.8-0.1-1.1-0.4l-2-2c-0.6-0.6-0.6-1.5,0-2.1
		c0.6-0.6,1.5-0.6,2.1,0l0.7,0.7l2.1-2.7c0.6-0.6,1.5-0.6,2.1,0C30.1,7.9,30.1,8.9,29.5,9.5z"/>
</g>
<g id="Layer_2">
</g>
</svg>
