<?xml version="1.0" encoding="utf-8"?>
<!-- Generator: Adobe Illustrator 18.1.0, SVG Export Plug-In . SVG Version: 6.00 Build 0)  -->
<!DOCTYPE svg PUBLIC "-//W3C//DTD SVG 1.1//EN" "http://www.w3.org/Graphics/SVG/1.1/DTD/svg11.dtd">
<svg version="1.1" xmlns="http://www.w3.org/2000/svg" xmlns:xlink="http://www.w3.org/1999/xlink" x="0px" y="0px"
	 viewBox="0 0 39.5 41" enable-background="new 0 0 39.5 41" xml:space="preserve">
<g id="Layer_1">
	<path fill-rule="evenodd" clip-rule="evenodd" fill="#D3D3D3" d="M6.7,21.6c2.4,0,4.3,2,4.3,4.4c0,2.4-1.9,4.4-4.3,4.4
		c-2.4,0-4.3-2-4.3-4.4C2.4,23.6,4.3,21.6,6.7,21.6z"/>
	<path fill-rule="evenodd" clip-rule="evenodd" fill="#D3D3D3" d="M0,34.5c0.1-2.5,3.1-5.3,6.7-5.3c3.5,0,6.5,2.8,6.7,5.1
		c0,0-3.6,0.6-7.1,0.6C3.1,34.9,0,34.5,0,34.5z"/>
	<path fill-rule="evenodd" clip-rule="evenodd" fill="#D3D3D3" d="M1,33.3h11.4c0.6,0,1,0.4,1,1v1.1c0,0.6-0.4,1-1,1H1
		c-0.6,0-1-0.4-1-1v-1.1C0,33.8,0.4,33.3,1,33.3z"/>
	<path fill-rule="evenodd" clip-rule="evenodd" fill="#D3D3D3" d="M6.7,0c2.4,0,4.3,2,4.3,4.4S9,8.7,6.7,8.7c-2.4,0-4.3-2-4.3-4.4
		S4.3,0,6.7,0z"/>
	<path fill-rule="evenodd" clip-rule="evenodd" fill="#D3D3D3" d="M0,12.8c0.1-2.5,3.1-5.3,6.7-5.3c3.5,0,6.5,2.8,6.7,5.1
		c0,0-3.6,0.6-7.1,0.6C3.1,13.3,0,12.8,0,12.8z"/>
	<path fill-rule="evenodd" clip-rule="evenodd" fill="#D3D3D3" d="M1,11.7h11.4c0.6,0,1,0.4,1,1v1.1c0,0.6-0.4,1-1,1H1
		c-0.6,0-1-0.4-1-1v-1.1C0,12.1,0.4,11.7,1,11.7z"/>
	<path fill-rule="evenodd" clip-rule="evenodd" fill="#D3D3D3" d="M27.8,0c2.4,0,4.3,2,4.3,4.4s-1.9,4.4-4.3,4.4s-4.3-2-4.3-4.4
		S25.5,0,27.8,0z"/>
	<path fill-rule="evenodd" clip-rule="evenodd" fill="#D3D3D3" d="M21.2,12.8c0.1-2.5,3.1-5.3,6.7-5.3s6.5,2.8,6.7,5.1
		c0,0-3.6,0.6-7.1,0.6C24.3,13.3,21.2,12.8,21.2,12.8z"/>
	<path fill-rule="evenodd" clip-rule="evenodd" fill="#D3D3D3" d="M22.1,11.7h11.4c0.6,0,1,0.4,1,1v1.1c0,0.6-0.4,1-1,1H22.1
		c-0.6,0-1-0.4-1-1v-1.1C21.1,12.1,21.6,11.7,22.1,11.7z"/>
	<g>
		<path fill-rule="evenodd" clip-rule="evenodd" fill="#D3D3D3" d="M27.9,18.2c-6.2,0-11.1,5.1-11.1,11.4c0,6.3,5,11.4,11.1,11.4
			C34,41,39,35.9,39,29.6C39,23.3,34,18.2,27.9,18.2z M34.5,35.3c0,0.6-0.5,1.1-1.1,1.1H22.3c-0.6,0-1.1-0.5-1.1-1.1v-0.8
			c0-0.1,0-0.2,0.1-0.3c0.3-1.8,2-3.7,4.2-4.6c-1.1-0.8-1.9-2.1-1.9-3.6c0-2.4,1.9-4.4,4.3-4.4c2.4,0,4.3,2,4.3,4.4
			c0,1.5-0.7,2.8-1.8,3.6c2.4,0.9,4.1,2.9,4.3,4.7c0,0,0,0,0,0c0,0.1,0,0.1,0,0.2V35.3z"/>
	</g>
</g>
<g id="Layer_2">
</g>
</svg>
