<?xml version="1.0" encoding="utf-8"?>
<!-- Generator: Adobe Illustrator 18.1.0, SVG Export Plug-In . SVG Version: 6.00 Build 0)  -->
<!DOCTYPE svg PUBLIC "-//W3C//DTD SVG 1.1//EN" "http://www.w3.org/Graphics/SVG/1.1/DTD/svg11.dtd">
<svg version="1.1" xmlns="http://www.w3.org/2000/svg" xmlns:xlink="http://www.w3.org/1999/xlink" x="0px" y="0px"
	 viewBox="0 0 44.5 32.9" enable-background="new 0 0 44.5 32.9" xml:space="preserve">
<g id="Layer_1">
	<g>
		<path fill-rule="evenodd" clip-rule="evenodd" fill="#D3D3D3" d="M32,19.9C32,19.9,32,19.9,32,19.9l0,8.1H6V7l23,0l5.4-5H4
			c-2.2,0-4,1.8-4,4v23c0,2.2,1.8,4,4,4h29c2.2,0,4-1.8,4-4L37,15L32,19.9z M3,20c-1.1,0-2-0.9-2-2c0-1.1,0.9-2,2-2c1.1,0,2,0.9,2,2
			C5,19.1,4.1,20,3,20z"/>
		<path fill-rule="evenodd" clip-rule="evenodd" fill="#D3D3D3" d="M26,14l-1,5c0,0,5-1,5-1L26,14z"/>
		<path fill-rule="evenodd" clip-rule="evenodd" fill="#D3D3D3" d="M43.6,1c0,0-2-2.2-4.2,0l-1,1l0,0L28,12l4,4L42.7,5.8l0,0l1-0.9
			C44.8,3.8,44.8,2,43.6,1z"/>
		<rect x="12" y="19" fill-rule="evenodd" clip-rule="evenodd" fill="#D3D3D3" width="9" height="2"/>
	</g>
</g>
<g id="Layer_2">
</g>
</svg>
