<?xml version="1.0" encoding="utf-8"?>
<!-- Generator: Adobe Illustrator 18.1.0, SVG Export Plug-In . SVG Version: 6.00 Build 0)  -->
<!DOCTYPE svg PUBLIC "-//W3C//DTD SVG 1.1//EN" "http://www.w3.org/Graphics/SVG/1.1/DTD/svg11.dtd">
<svg version="1.1" xmlns="http://www.w3.org/2000/svg" xmlns:xlink="http://www.w3.org/1999/xlink" x="0px" y="0px"
	 viewBox="0 0 17 20" enable-background="new 0 0 17 20" xml:space="preserve">
<g id="Layer_1">
	<g>
		<path fill="#D3D3D3" d="M8.5,3.5C3.8,3.5,0,7.2,0,11.7S3.8,20,8.5,20s8.5-3.7,8.5-8.3S13.2,3.5,8.5,3.5z M8.5,18
			c-3.6,0-6.4-2.8-6.4-6.3s2.9-6.3,6.4-6.3c3.6,0,6.4,2.8,6.4,6.3S12.1,18,8.5,18z"/>
		<path fill="#D3D3D3" d="M7.3,2h2.3c0.6,0,1-0.4,1-1c0-0.6-0.5-1-1-1H7.3c-0.6,0-1,0.4-1,1C6.3,1.6,6.8,2,7.3,2z"/>
		<path fill="#D3D3D3" d="M11.1,11.7l-1.6-0.4V8.3c0-0.6-0.5-1-1-1c-0.6,0-1,0.4-1,1v3.5c0,0.1,0,0.1,0,0.2c-0.1,0.5,0.2,1,0.7,1.1
			l2.3,0.6c0.1,0,0.2,0,0.3,0c0.5,0,0.9-0.3,1-0.7C12,12.4,11.6,11.9,11.1,11.7z"/>
	</g>
</g>
<g id="Layer_2">
</g>
</svg>
