<?xml version="1.0" encoding="utf-8"?>
<!-- Generator: Adobe Illustrator 18.1.0, SVG Export Plug-In . SVG Version: 6.00 Build 0)  -->
<!DOCTYPE svg PUBLIC "-//W3C//DTD SVG 1.1//EN" "http://www.w3.org/Graphics/SVG/1.1/DTD/svg11.dtd">
<svg version="1.1" xmlns="http://www.w3.org/2000/svg" xmlns:xlink="http://www.w3.org/1999/xlink" x="0px" y="0px"
	 viewBox="0 0 39 39.1" enable-background="new 0 0 39 39.1" xml:space="preserve">
<g id="Layer_1">
	<path fill="#D3D3D3" d="M19.5,0C8.7,0,0,8.7,0,19.5c0,10.8,8.7,19.5,19.5,19.5c10.8,0,19.5-8.7,19.5-19.5C39,8.7,30.3,0,19.5,0z
		 M22.4,25.9l-2.2,2.2c-1.2,1.2-2.9,1.9-4.6,1.9c-1.7,0-3.4-0.7-4.6-1.9C9.7,26.9,9,25.3,9,23.5c0-1.7,0.7-3.4,1.9-4.6l2.2-2.2
		c0.6-0.6,1.6-0.6,2.2,0c0.6,0.6,0.6,1.6,0,2.2l-2.2,2.2c-0.7,0.7-1,1.5-1,2.4c0,0.9,0.4,1.8,1,2.4c1.3,1.3,3.6,1.3,4.9,0l2.2-2.2
		c0.6-0.6,1.6-0.6,2.2,0C23,24.4,23,25.3,22.4,25.9z M17.9,23.3c-0.3,0.3-0.7,0.5-1.1,0.5c-0.4,0-0.8-0.2-1.1-0.5
		c-0.6-0.6-0.6-1.6,0-2.2l5.3-5.3c0.6-0.6,1.6-0.6,2.2,0c0.6,0.6,0.6,1.6,0,2.2L17.9,23.3z M28.1,20.2l-2.2,2.2
		c-0.3,0.3-0.7,0.5-1.1,0.5c-0.4,0-0.8-0.2-1.1-0.5c-0.6-0.6-0.6-1.6,0-2.2l2.2-2.2c0.7-0.7,1-1.5,1-2.4c0-0.9-0.4-1.8-1-2.4
		c-1.3-1.3-3.6-1.3-4.9,0l-2.2,2.2c-0.6,0.6-1.6,0.6-2.2,0c-0.6-0.6-0.6-1.6,0-2.2l2.2-2.2C20.1,9.7,21.7,9,23.5,9
		c1.7,0,3.4,0.7,4.6,1.9c1.2,1.2,1.9,2.9,1.9,4.6C30,17.3,29.3,18.9,28.1,20.2z"/>
</g>
<g id="Layer_2">
</g>
</svg>
