<?xml version="1.0" encoding="utf-8"?>
<!-- Generator: Adobe Illustrator 18.1.0, SVG Export Plug-In . SVG Version: 6.00 Build 0)  -->
<!DOCTYPE svg PUBLIC "-//W3C//DTD SVG 1.1//EN" "http://www.w3.org/Graphics/SVG/1.1/DTD/svg11.dtd">
<svg version="1.1" id="Layer_1" xmlns="http://www.w3.org/2000/svg" xmlns:xlink="http://www.w3.org/1999/xlink" x="0px" y="0px"
	 viewBox="0 865.6 1417.3 1118.7" enable-background="new 0 865.6 1417.3 1118.7" xml:space="preserve">
<g>
	<g>
		<path fill="#E8E8E8" d="M836.5,1353.8C794.7,1149.3,646,1230.7,641.3,1061c0-18.6,0-30.2,0-30.2c0-72-4.6-165-48.8-165
			c-120.8-4.6-169.6,67.4-169.6,165v185.9c-127.8,0-269.5,0-269.5,0c-4.6,0-4.6,0-11.6,0h-13.9C58.1,1216.8,0,1267.9,0,1335.3V1793
			c0,67.4,137.1,178.9,206.8,190.5c0,0,144.1,4.6,327.6-9.3c116.2-9.3,202.1-62.7,244-92.9h174.3v-508.8H836.5V1353.8z
			 M1119.9,1260.9c-53.4,0-99.9,46.5-99.9,102.2v513.5c0,55.8,44.1,102.2,99.9,102.2h297.4v-720.3h-297.4V1260.9z"/>
	</g>
</g>
</svg>
