<?xml version="1.0" encoding="utf-8"?>
<!-- Generator: Adobe Illustrator 18.1.0, SVG Export Plug-In . SVG Version: 6.00 Build 0)  -->
<!DOCTYPE svg PUBLIC "-//W3C//DTD SVG 1.1//EN" "http://www.w3.org/Graphics/SVG/1.1/DTD/svg11.dtd">
<svg version="1.1" id="Layer_1" xmlns="http://www.w3.org/2000/svg" xmlns:xlink="http://www.w3.org/1999/xlink" x="0px" y="0px"
	 viewBox="1556.2 536.6 734 556.9" enable-background="new 1556.2 536.6 734 556.9" xml:space="preserve">
<g id="Layer_1_1_">
	<g>
		<path fill="#D3D3D3" d="M2290.2,860.5V632.7c0-32.9-65.8-91.1-98.7-93.6l0,0c0,0-68.3-2.5-156.9,5.1
			c-55.7,5.1-96.2,30.4-116.4,45.6h-83.5v255.6h55.7c0,2.5,0,5.1,0,7.6c20.2,103.8,91.1,60.7,93.6,144.3c0,0,0,0,0-2.5
			c0,12.7,0,17.7,0,17.7c0,35.4,2.5,81,22.8,81c58.2,2.5,81-32.9,81-81c0-25.3,0-65.8,0-91.1c60.7,0,129.1,0,129.1,0
			c2.5,0,2.5,0,5.1,0h7.6C2264.9,918.7,2290.2,893.4,2290.2,860.5z"/>
		<path fill="#D3D3D3" d="M1708.1,536.6h-25.3h-25.3h-101.2v356.9h101.2h25.3h25.3c27.8,0,50.6-22.8,50.6-50.6V587.2
			C1758.7,559.3,1735.9,536.6,1708.1,536.6z"/>
	</g>
</g>
<g id="Layer_2">
</g>
</svg>
