<?xml version="1.0" encoding="utf-8"?>
<!-- Generator: Adobe Illustrator 18.1.0, SVG Export Plug-In . SVG Version: 6.00 Build 0)  -->
<!DOCTYPE svg PUBLIC "-//W3C//DTD SVG 1.1//EN" "http://www.w3.org/Graphics/SVG/1.1/DTD/svg11.dtd">
<svg version="1.1" xmlns="http://www.w3.org/2000/svg" xmlns:xlink="http://www.w3.org/1999/xlink" x="0px" y="0px"
	 viewBox="0 0 56 36" enable-background="new 0 0 56 36" xml:space="preserve">
<g id="Layer_1">
	<g>
		<path fill-rule="evenodd" clip-rule="evenodd" fill="#D3D3D3" d="M42.8,23.7c-0.8-4-3.6-2.4-3.7-5.7c0,0,0,0,0,0.1
			c0-0.4,0-0.7,0-0.7c0-1.4-0.1-3.2-0.9-3.2c-2.3-0.1-3.2,1.3-3.2,3.2c0,1,0,2.6,0,3.6c-2.4,0-5.1,0-5.1,0c-0.1,0-0.1,0-0.2,0
			l-0.3,0c-1.3,0-2.4,1-2.4,2.3v8.9c0,1.3,2.6,3.5,3.9,3.7c0,0,0,0,0,0c0,0,2.7,0.1,6.2-0.2c2.2-0.2,3.8-1.2,4.6-1.8H45V24h-2.2
			C42.8,23.9,42.8,23.8,42.8,23.7z"/>
		<path fill-rule="evenodd" clip-rule="evenodd" fill="#D3D3D3" d="M52,22h-1h-1c-1.1,0-2,0.9-2,2v10c0,1.1,0.9,2,2,2h1h1h4V22H52z"
			/>
		<path fill-rule="evenodd" clip-rule="evenodd" fill="#D3D3D3" d="M29,12.8v-9c0-1.3-2.6-3.6-3.9-3.7c0,0,0,0,0,0
			c0,0-2.7-0.1-6.2,0.2c-2.2,0.2-3.8,1.2-4.6,1.8H11v10.1h2.2c0,0.1,0,0.2,0,0.3c0.8,4.1,3.6,2.4,3.7,5.7c0,0,0,0,0-0.1
			c0,0.5,0,0.7,0,0.7c0,1.4,0.1,3.2,0.9,3.2c2.3,0.1,3.2-1.3,3.2-3.2c0-1,0-2.6,0-3.6c2.4,0,5.1,0,5.1,0c0.1,0,0.1,0,0.2,0l0.3,0
			C28,15.1,29,14.1,29,12.8z"/>
		<path fill-rule="evenodd" clip-rule="evenodd" fill="#D3D3D3" d="M6,0H5H4H0v14.1h4h1h1c1.1,0,2-0.9,2-2V2C8,0.9,7.1,0,6,0z"/>
	</g>
</g>
<g id="Layer_2">
</g>
</svg>
