<?xml version="1.0" encoding="utf-8"?>
<svg xmlns="http://www.w3.org/2000/svg"
	xmlns:xlink="http://www.w3.org/1999/xlink"
	width="14px" height="18px" viewBox="0 0 14 18">
<path fillRule="evenodd" d="M 6-0.03C 6-0.03 8-0.03 8-0.03 8-0.03 8 13.94 8 13.94 8 13.94 6 13.94 6 13.94 6 13.94 6-0.03 6-0.03" fill="rgb(17,199,253)"/><path fillRule="evenodd" d="M 0.95 10.78C 0.95 10.78 2.43 9.43 2.43 9.43 2.43 9.43 6.86 14.29 6.86 14.29 6.86 14.29 11.89 9.57 11.89 9.57 11.89 9.57 13.26 11.03 13.26 11.03 13.26 11.03 8.22 15.75 8.22 15.75 8.22 15.75 6.74 17.13 6.74 17.13 6.74 17.13 5.38 15.63 5.38 15.63 5.38 15.63 0.95 10.78 0.95 10.78" fill="rgb(17,199,253)"/></svg>