
<svg xmlns="http://www.w3.org/2000/svg" version="1.1" xmlns:xlink="http://www.w3.org/1999/xlink" preserveAspectRatio="none" x="0px" y="0px" width="23px" height="20px" viewBox="0 0 23 20">
<defs>
<g id="Layer0_0_FILL">
<path fill="#9B9B9B" stroke="none" d="
M 712.6 23.45
L 712.6 10.25 708.1 10.25
Q 707.5 9.85 707.25 8.8 707.05 7.85 707.1 5.75 707.15 4.9 706.55 4.2 705.95 3.5 705 3.5 704.15 3.45 703.45 4.05 702.8 4.65 702.7 5.55 702.55 8.2 703.35 10.6
L 691.8 10.6
Q 690.9 10.6 690.2 11.2 689.6 11.9 689.6 12.75 689.6 13.65 690.2 14.3 690.95 14.95 691.8 14.95
L 697.1 14.95
Q 696.378125 14.96875 695.7 15.55 695.1 16.25 695.1 17.1 695.1 18 695.7 18.6 696.35 19.25 697.3 19.25
L 697.8 19.25 696.95 19.75
Q 696.35 20.45 696.35 21.3 696.35 22.2 696.95 22.85 697.7 23.5 698.55 23.5
L 705.05 23.5 705.45 23.45 712.6 23.45 Z"/>
</g>
</defs>

<g transform="matrix( 1, 0, 0, 1, -689.6,-3.5) ">
<use xlink:href="#Layer0_0_FILL"/>
</g>
</svg>
