
<svg xmlns="http://www.w3.org/2000/svg" version="1.1" xmlns:xlink="http://www.w3.org/1999/xlink" preserveAspectRatio="none" x="0px" y="0px" width="53px" height="53px" viewBox="0 0 53 53">
<defs>
<g id="Symbol_2_0_Layer4_0_FILL">
<path fill="#FFFFFF" stroke="none" d="
M -8 -12.4
Q -7.9 -12.95 -7.45 -13.25 -6.95 -13.5 -6.45 -13.4 -6.3 -13.35 -6.2 -13.25 -5.25 -15.05 -3.55 -16.1 -1 -17.6 1.8 -16.85 4.65 -16.15 6.05 -13.7 7.6 -11.15 6.85 -8.35 6.5302734375 -6.8791015625 5.7 -5.8 5.3474609375 -5.6072265625 5 -5.4 3.4 -4.45 2.4 -2.85 1.8 -2.9 1.2 -2.6 1.1 -2.6 1.05 -2.55
L 1.1 -2.55
Q 0.3 -2.1 0.1 -1.2 -0.15 -0.35 0.45 0.4 0.45 0.45 0.5 0.45 0.75 0.8 1.1 1.1 1.05 1.5 0.95 2.1 0.9 2.35 1.05 2.6 1.15 2.85 1.45 2.95 1.7 3.1 1.95 3.2 1.75 3.3 1.7 3.55
L 1.7 3.6
Q 1.6 3.9 1.75 4.2 1.75 4.25 1.8 4.25 2 4.85 2.25 5.35
L 2.35 5.4
Q 3.35 7.05 4.9 8
L 4.9 17.7
Q 5.279296875 17.5978515625 5.65 17.45
L 5.75 7.5
Q 4.05 6.6 3 4.95 2.75 4.4 2.5 3.85 4.9 4.25 6.6 1.4 4.2 3.35 1.8 2.2 1.95 1.15 2.05 0.5 2 0.5 1.9 0.45 1.4 0.35 1.1 -0.15 0.8 -0.55 0.95 -1 1.05 -1.55 1.55 -1.85 2 -2.15 2.55 -2 2.65 -1.95 2.75 -1.85 3.7 -3.65 5.45 -4.7 7.95 -6.2 10.75 -5.45 13.6 -4.75 15.05 -2.3 16.55 0.25 15.8 3.05 15.3 5.35 13.55 6.75
L 14 11.75
Q 14.2189453125 11.5537109375 14.4 11.3 14.6615234375 11.0208984375 14.9 10.7
L 14.9 10.65
Q 18.3 6.057421875 18.3 0 18.3 -7.6 12.95 -12.95 7.6 -18.3 0 -18.3 -7.6 -18.3 -12.95 -12.95 -18.3 -7.6 -18.3 0 -18.3 7.6 -12.95 12.95 -12.77421875 13.12578125 -12.6 13.3 -12.2279296875 13.64765625 -11.85 13.95
L -11.75 7.5
Q -13.45 6.6 -14.5 4.95 -14.75 4.4 -15 3.85 -12.6 4.25 -10.9 1.4 -13.3 3.35 -15.7 2.2 -15.55 1.15 -15.45 0.5 -15.5 0.5 -15.6 0.45 -16.15 0.35 -16.4 -0.15 -16.7 -0.55 -16.55 -1 -16.45 -1.55 -15.95 -1.85 -15.5 -2.15 -14.95 -2 -14.85 -1.95 -14.75 -1.85 -13.8 -3.65 -12.05 -4.7 -9.55 -6.2 -6.75 -5.45 -3.9 -4.75 -2.45 -2.3 -0.95 0.25 -1.7 3.05 -2.2 5.35 -3.95 6.75
L -2.8 18.1
Q -2.3015625 18.1732421875 -1.8 18.2
L -3.05 7.1
Q -1.35 5.55 -0.85 3.2
L -0.85 3.15
Q -0.05 0.1 -1.75 -2.7 -3.109375 -5.07890625 -5.65 -6
L -5.65 -6
Q -5.76328125 -6.1501953125 -5.9 -6.35
L -5.95 -6.45
Q -6.2 -7 -6.5 -7.55 -4.05 -7.15 -2.35 -10 -4.75 -8.05 -7.15 -9.2 -7 -10.25 -6.9 -10.9 -6.95 -10.9 -7.05 -10.95 -7.6 -11.05 -7.85 -11.5 -8.15 -11.95 -8 -12.4
M -11.3 -0.75
Q -10.75 -0.65 -10.3 -0.9 -9.8 -1.15 -9.7 -1.65 -9.55 -2.2 -9.8 -2.65 -10.1 -3.1 -10.65 -3.2 -11.1 -3.35 -11.55 -3.1 -12 -2.8 -12.15 -2.3 -12.3 -1.75 -12 -1.35 -11.75 -0.9 -11.3 -0.75
M -3.65 -13.7
Q -3.75 -13.15 -3.45 -12.75 -3.2 -12.3 -2.75 -12.15 -2.2 -12.05 -1.75 -12.3 -1.25 -12.5 -1.15 -13.05 -1 -13.55 -1.25 -14.05 -1.6 -14.45 -2.1 -14.55 -2.6 -14.75 -3 -14.45 -3.45 -14.2 -3.65 -13.7
M 7.25 -0.9
Q 7.7 -1.15 7.8 -1.65 7.95 -2.2 7.7 -2.65 7.4 -3.1 6.85 -3.2 6.4 -3.35 5.95 -3.1 5.5 -2.8 5.35 -2.3 5.25 -1.75 5.5 -1.35 5.75 -0.9 6.25 -0.75 6.75 -0.65 7.25 -0.9
M -10.95 15.45
L -10.95 15.4
Q -11.1935546875 15.2552734375 -11.45 15.05 -11.2810546875 15.2009765625 -11.15 15.3 -11.03203125 15.3873046875 -10.95 15.45
M 6.25 17.7
Q 6.425390625 17.6513671875 6.6 17.6
L 6.4 17.65
Q 6.32265625 17.67578125 6.25 17.7 Z"/>
</g>
</defs>

<g transform="matrix( 1.4538726806640625, 0, 0, 1.4538726806640625, 26.6,26.6) ">
<g transform="matrix( 1, 0, 0, 1, 0,0) ">
<use xlink:href="#Symbol_2_0_Layer4_0_FILL"/>
</g>
</g>
</svg>
