<?xml version="1.0" encoding="utf-8"?>
<svg xmlns="http://www.w3.org/2000/svg"
	xmlns:xlink="http://www.w3.org/1999/xlink"
	width="10px" height="17px">
<path fill="rgb(229,229,227)" fill-rule="evenodd" d="M 8.67-0C 8.67-0 1.33 7.2 1.33 7.2 1.33 7.2 1.33 7.19 1.33 7.19 1.33 7.19 0 8.5 0 8.5 0 8.5 0 8.5 0 8.5 0 8.5 0 8.5 0 8.5 0 8.5 1.33 9.8 1.33 9.8 1.33 9.8 1.33 9.8 1.33 9.8 1.33 9.8 8.67 17 8.67 17 8.67 17 10 15.7 10 15.7 10 15.7 2.66 8.5 2.66 8.5 2.66 8.5 10 1.3 10 1.3 10 1.3 8.67-0 8.67-0Z"/>
</svg>