
<svg xmlns="http://www.w3.org/2000/svg" version="1.1" xmlns:xlink="http://www.w3.org/1999/xlink" preserveAspectRatio="none" x="0px" y="0px" width="1024px" height="1024px" viewBox="0 0 1024 1024">
<defs>
<g id="Layer0_0_FILL">
<path fill="#FFFFFF" stroke="none" d="
M 848 275.9
Q 847.4 274.3 846.2 273 840.7 292.1 832.9 317.3 770.4 517.8 739.3 589.9 736.4 597.4 733.4 604
L 682.4 579.6
Q 685.7 527.1 635 400.6 633.5 397.2 632 393.9 632 394.3 632 394.9 631 396.8 629.8 399.4 625.8 410.2 621.4 422.8 605.1 459 582.6 496
L 412 310.4
Q 431.9 295.1 444.2 274.3 453.8 256.6 453.4 236 452.7 208.2 437.2 185.6
L 348.7 255.6
Q 324.6 233.4 265.1 181.3
L 204.1 133.5
Q 110.4 56.9 -0.4 61.3
L -0.4 958.4
Q 242.6 961.7 365.8 961
L 654.3 961
Q 682.4 961.7 736 962.8 817.3 964.6 865.8 924.7
L 885 906.9
Q 826.6 916.2 777.8 913.2 728.6 909.8 698.7 897.8 668.7 885.5 654.3 871.4 642 858.8 632.9 844.4 625.3 833.8 619.9 821.5 660.5 828.1 702 833.2 720.5 835.5 739.3 837.7 745.9 838.2 753 838.9 755 839.2 757.2 839.2 794.8 842.6 832.9 841.8 836.3 841.8 839.9 841.8 842.2 841.5 844.3 841.5 864.4 841.1 881 833.8 879.2 819.6 875 803.7 873.6 797.7 871.8 791.1 876.2 783 879.2 777.8 889.8 755.3 894 741.7 900.3 719.8 904.3 697.9 916.8 630.2 916.8 536 916.8 407.6 862.1 301.4 855.9 288.5 848 275.9
M 807.8 777.8
Q 802.9 767.9 802.9 755 802.9 741.7 807.8 732.3 813 722.7 820.3 722.7 827.8 722.7 832.9 732.3 838.1 741.7 838.1 755 838.1 767.9 832.9 777.8 827.8 787.1 820.3 787.1 813 787.1 807.8 777.8
M 129 228.9
Q 135.7 216.3 143.1 204.5
L 271.1 319.9 200.3 388.7
Q 159.4 362.1 133.8 320.6 109.8 282.9 124.2 240.8 126.1 234.5 129 228.9
M 488.9 565.5
Q 516.3 565.1 536 591.8 543.4 601.6 547.9 613.1 554.2 629.4 554.4 649.1 554.4 653.2 551.8 656.2 548.8 659.1 545.1 659.1 540.8 659.1 538.2 656.6 536.2 654.6 535.5 652.2 535.1 650.9 535.1 649.5 534.9 629 526.8 613 524.2 607.9 520.8 603.2 507.5 585.1 488.9 584.7 470.8 585.1 457.5 603.2 443.8 622.1 443 649.5 443 653.5 440.1 656.6 437.2 659.1 433.5 659.1 429.3 659.1 426.8 656.2 426.5 655.8 426.1 655.4 423.8 652.6 423.8 649.1 424.2 615.8 442 592.1
L 442 591.8
Q 461.5 565.1 488.9 565.5
M 162.4 955.8
Q 162.7 955.6 163 955.5 163.9 955.5 164.5 955.5
L 163.4 955.8
Q 162.9 955.8 162.4 955.8
M 798 253.8
Q 798 269.9 806.9 282.1 808.4 284 810.8 284.7 813.6 285.1 815.8 283.6 818.2 281.8 818.6 279 819.1 276.6 817.3 274.2 811 265.3 811 253.8 811 238.5 821.9 227.9
L 822.1 227.4
Q 833 216.8 848 216.8 863.5 216.8 874.3 227.4 885.4 238.5 886.3 252.9 886.9 266.8 878.1 276 876.3 278.1 876.3 280.5 876.3 283.4 878.5 285.3 880.6 287.1 883.1 287.1 885.8 287.1 887.9 285.1 900.4 271.8 899.4 252.2
L 899.4 252
Q 898.2 233.1 883.3 218.3 868.7 203.7 848 203.7 827.5 203.7 812.6 218.3 798 233.3 798 253.8
M 847.8 171.5
Q 881.8 171.5 905.7 195.3 930.1 219.8 930.1 253.8 930.1 287.9 905.7 311.8 905.5 311.8 905.5 312.1 904.2 313.6 902.7 314.8 900.7 316.6 900.4 319.1 900.2 321.9 902.2 324.1 904 325.8 906.7 326.1 909.2 326.4 911.5 324.6 913.2 322.9 915 321 915 320.8 915.3 320.8 943.5 293.4 943.5 253.8 943.5 214.7 915 186.1 887.7 158.3 847.8 158.3 808.6 158.3 780.3 186.1 752.5 214.7 752.5 253.8 752.5 293.6 780.3 321
L 780.3 320.8
Q 786.4 327.1 793 331.9 795.4 333.4 797.8 332.9 800.6 332.3 802.3 330.4 803.8 327.9 803.4 325.4 802.8 322.5 800.6 321 794.7 317.1 789.5 311.8 765.5 287.9 765.5 253.8 765.5 220 789.5 195.5
L 789.7 195.3
Q 814.1 171.5 847.8 171.5
M 937 164.3
L 937 164.1
Q 974.2 201.5 974.2 254 974.2 305.6 937 342.8 925.9 353.6 913.8 361.3 911.5 362.8 910.9 365.6 910.3 368.1 911.7 370.4 913.2 372.9 916.1 373.4 918.6 373.9 920.8 372.6 934.1 364.1 946 352
L 946.2 351.7
Q 987.5 311 987.5 254 987.5 196.3 946 155 905.2 114.6 848 114.6 790.6 114.6 749.4 155 708.7 196.3 708.7 254 708.7 311 749.4 351.7 763.6 365.9 779.2 375.2 781.4 376.4 784.3 376 786.9 375.2 788.2 372.9 789.5 370.7 788.8 367.8 788.2 365.1 786 363.9 771.4 355.3 758.6 342.8 721.8 305.8 721.8 254 721.8 201.8 758.6 164.3
L 758.8 164.1
Q 796 127.6 848 127.6 899.9 127.6 937 164.3 Z"/>
</g>
</defs>

<g transform="matrix( 1, 0, 0, 1, 0,0) ">
<use xlink:href="#Layer0_0_FILL"/>
</g>
</svg>
