<?xml version="1.0" encoding="utf-8"?>
<svg xmlns="http://www.w3.org/2000/svg"
	xmlns:xlink="http://www.w3.org/1999/xlink"
	width="20px" height="19px" viewBox="0 0 20 19">
<path fillRule="evenodd" d="M 18.5 11C 18.5 11 1.5 11 1.5 11 0.67 11 0 10.33 0 9.5 0 8.67 0.67 8 1.5 8 1.5 8 18.5 8 18.5 8 19.33 8 20 8.67 20 9.5 20 10.33 19.33 11 18.5 11ZM 18.5 3C 18.5 3 1.5 3 1.5 3 0.67 3 0 2.33 0 1.5 0 0.67 0.67-0 1.5-0 1.5-0 18.5-0 18.5-0 19.33-0 20 0.67 20 1.5 20 2.33 19.33 3 18.5 3ZM 1.5 16C 1.5 16 18.5 16 18.5 16 19.33 16 20 16.67 20 17.5 20 18.33 19.33 19 18.5 19 18.5 19 1.5 19 1.5 19 0.67 19 0 18.33 0 17.5 0 16.67 0.67 16 1.5 16Z" fill="rgb(252,250,249)"/></svg>