<?xml version="1.0" encoding="utf-8"?>
<svg xmlns="http://www.w3.org/2000/svg"
	xmlns:xlink="http://www.w3.org/1999/xlink"
	width="10px" height="17px">
<path fill="rgb(229,229,227)" fill-rule="evenodd" d="M 1.33-0C 1.33-0 8.67 7.2 8.67 7.2 8.67 7.2 8.67 7.19 8.67 7.19 8.67 7.19 10 8.5 10 8.5 10 8.5 10 8.5 10 8.5 10 8.5 10 8.5 10 8.5 10 8.5 8.67 9.8 8.67 9.8 8.67 9.8 8.67 9.8 8.67 9.8 8.67 9.8 1.33 17 1.33 17 1.33 17 0 15.7 0 15.7 0 15.7 7.34 8.5 7.34 8.5 7.34 8.5 0 1.3 0 1.3 0 1.3 1.33-0 1.33-0Z"/>
</svg>