<?xml version="1.0" encoding="utf-8"?>
<!-- Generator: Adobe Illustrator 19.2.1, SVG Export Plug-In . SVG Version: 6.00 Build 0)  -->
<!DOCTYPE svg PUBLIC "-//W3C//DTD SVG 1.1//EN" "http://www.w3.org/Graphics/SVG/1.1/DTD/svg11.dtd">
<svg version="1.1" id="Layer_1" xmlns="http://www.w3.org/2000/svg" xmlns:xlink="http://www.w3.org/1999/xlink" x="0px" y="0px"
	 viewBox="0 0 43.6 54.1" style="enable-background:new 0 0 43.6 54.1;" xml:space="preserve">
<style type="text/css">
	.save-clicked .frame{fill:#019D54;}
	.save-clicked .st1{fill:#FFFFFF;}
</style>
<g transform="matrix( 1, 0, 0, 1, 0,0) ">
	<g class="save-clicked">
		<g id="Layer0_0_FILL">
			<path class="frame" d="M32,1.7C32,1.7,32,1.6,32,1.7C30.9,0.5,29.6,0,28.1,0c-1.5,0-2.8,0.6-3.9,1.6c0,0,0,0,0,0.1
				c-0.7,0.7-1.1,1.4-1.4,2.2c-0.6-1.4-1.5-2.4-2.9-3c0,0,0-0.1-0.1-0.1c-1.4-0.6-2.8-0.6-4.2,0.1l0.2-0.1c-1.4,0.5-2.5,1.5-3.1,2.9
				c-0.3,0.6-0.4,1.2-0.4,1.8v0c0,0.1,0,0.3,0,0.4c0.7-0.1,1.3-0.2,2-0.3c0-0.4,0.1-0.8,0.3-1.2c0.4-0.9,1-1.5,1.9-1.8
				c0.9-0.4,1.8-0.4,2.6,0c0.9,0.4,1.5,1,1.9,1.9c0.1,0.3,0.3,0.7,0.4,1h3.2c0,0,0-0.1,0-0.1c0-1,0.4-1.8,1.1-2.5
				c0.7-0.7,1.5-1,2.4-1c0.9,0,1.8,0.4,2.5,1c0.7,0.7,1,1.5,1,2.5c0,0.1,0,0.1,0,0.2h2c0,0,0-0.1,0-0.2C33.7,4,33.1,2.7,32,1.7z"/>
			<path class="st1" d="M41.2,15c0.6-0.8,0.8-1.6,0.6-2.6c-0.1-1-0.5-1.8-1.2-2.4C39.9,9.4,39,9.2,38,9.3c-1,0.1-2.8,1.5-5.3,4.1
				c-1.8,1.9-3.3,3.5-4.4,5c2.2-6.8,3.2-11,3.2-12.7c0,0,0-0.1,0-0.2c0-1-0.3-1.8-1-2.5c-0.7-0.7-1.5-1-2.5-1c-1,0-1.8,0.4-2.4,1
				c-0.7,0.7-1.1,1.5-1.1,2.5c0,0,0,0.1,0,0.1c0,1.4-0.1,2.9-0.2,4.3c-0.2,1.4-0.4,2.7-0.7,4.1c0-0.1,0-0.1,0-0.2
				c-0.5-2.9-1.3-5.6-2.2-8.1c-0.1-0.3-0.3-0.7-0.4-1c-0.4-0.9-1-1.5-1.9-1.9c-0.9-0.4-1.8-0.4-2.6,0c-0.9,0.3-1.5,1-1.9,1.8
				c-0.2,0.4-0.3,0.8-0.3,1.2c0,0.5,0.1,1,0.3,1.5c1.4,3.3,2.2,7,2.6,11c-1.9-3-4.1-5.6-6.4-7.8c-0.7-0.7-1.6-1-2.5-1
				c-1,0-1.8,0.4-2.5,1.1c-0.7,0.7-1,1.5-1,2.5c0,0.9,0.4,1.7,1.1,2.4c2.3,2.3,4.4,5,6.3,8.1c-2.4,8.1-5.9,15-10.4,20.6l-1.9,2
				c0,0.1,0.1,0.1,0.2,0.2c0,0,0.1,0.1,0.1,0.2c3.6,4.1,8.8,6.5,15.6,7.3l1.4-2c2.3-3.5,4-6.8,5.2-9.9l0.6-1.9
				c6.2-1.5,11.4-3.7,15.4-6.5c4.1-2.9,5.4-5.2,3.9-6.9c-1.5-1.7-3.7-1.7-6.4,0.2c-2.4,1.6-4.6,2-6.6,1C37.2,19.4,41.2,15,41.2,15z"
				/>
		</g>
	</g>
</g>
</svg>
