<?xml version="1.0" encoding="utf-8"?>
<!-- Generator: Adobe Illustrator 19.2.1, SVG Export Plug-In . SVG Version: 6.00 Build 0)  -->
<!DOCTYPE svg PUBLIC "-//W3C//DTD SVG 1.1//EN" "http://www.w3.org/Graphics/SVG/1.1/DTD/svg11.dtd">
<svg version="1.1" id="Layer_1" xmlns="http://www.w3.org/2000/svg" xmlns:xlink="http://www.w3.org/1999/xlink" x="0px" y="0px"
	 viewBox="0 0 46.6 55.5" style="enable-background:new 0 0 46.6 55.5;" xml:space="preserve">
<style type="text/css">
	.save .frame{fill:#00BC64;}
	.save .st1{fill:#FFFFFF;}
</style>
<g class="save">
	<path class="frame" d="M33.5,1.7l-0.3-0.3c-0.9-0.9-2-1.3-3.1-1.4c-1.4,0-2.5,0.6-3.5,1.6L26.4,2l0,0c-0.8,0.8-1.2,1.8-1.3,2.8
		c-0.2-0.4-0.3-0.8-0.5-1.2c-0.5-1.3-1.4-2.2-2.7-2.8l0,0h-0.1c-1.3-0.6-2.6-0.6-3.9-0.1h-0.1c-1.3,0.5-2.2,1.4-2.7,2.7
		c-0.3,0.7-0.5,1.4-0.4,2.2c0.5-0.1,1.1-0.2,1.6-0.2c0-0.4,0.1-0.8,0.3-1.2c0.4-0.9,1-1.5,1.9-1.8c0.9-0.4,1.7-0.4,2.6,0
		s1.5,1,1.9,1.9c0.1,0.3,0.3,0.7,0.4,1h3.2V5.2c0-1,0.3-1.8,1-2.5s1.5-1.1,2.5-1.1c0.9,0,1.8,0.4,2.4,1.1c0.7,0.7,1,1.5,1,2.4
		c0,0.1,0,0.1,0,0.2h1.6c0,0,0-0.1,0-0.2C35.2,3.7,34.6,2.6,33.5,1.7z"/>
	<path class="st1" d="M46,20.8c-0.5-1-1.2-1.9-2-2.7c-0.6-0.6-1.2-1.1-1.8-1.5c-0.5-0.4-1-0.7-1.6-0.9h0.1c-1.6-0.8-3.3-1.1-5.2-1.1
		c-1,0-2,0.1-2.9,0.3c0.7-3.2,1-6.4,1-9.6c0,0,0-0.1,0-0.2c0-1-0.3-1.8-1-2.4C31.9,2,31,1.6,30.1,1.6c-1,0-1.8,0.4-2.5,1.1
		s-1,1.5-1,2.5v0.1c0,2.8-0.3,5.6-0.9,8.4c-0.5-3-1.3-5.8-2.3-8.4c-0.1-0.3-0.3-0.7-0.4-1c-0.4-0.9-1-1.5-1.9-1.9s-1.8-0.4-2.6,0
		c-0.9,0.3-1.5,1-1.9,1.8c-0.2,0.4-0.3,0.8-0.3,1.2c0,0.5,0.1,1,0.3,1.5c1.4,3.3,2.3,7,2.7,11c-1.9-3-4.1-5.6-6.4-7.8
		c-0.7-0.7-1.6-1-2.5-1c-1,0-1.8,0.4-2.5,1.1c-0.7,0.7-1,1.5-1,2.5c0,0.9,0.4,1.8,1.1,2.4c2.3,2.3,4.4,5,6.3,8.1
		c-2.4,8.1-5.9,15-10.4,20.7L2,46c0,0,0,0.1,0.1,0.2l0.1,0.1c3.6,4.1,8.9,6.5,15.7,7.4l1.4-2c4-6.2,6.7-11.6,8-16.4
		c2.3,2.1,5,3.2,8.2,3.2c1.9,0,3.6-0.4,5.2-1.1C41.9,36.8,43,36,44,35c0.6-0.6,1.1-1.2,1.5-1.8v-0.1c0.2-0.3,0.4-0.6,0.6-0.9
		c0.5-0.9,0.6-1.8,0.4-2.7c-0.3-0.9-0.8-1.6-1.7-2.1s-1.8-0.6-2.6-0.3c-0.9,0.2-1.7,0.8-2.2,1.6c-0.1,0.1-0.1,0.2-0.2,0.4v0.1
		c-0.2,0.3-0.4,0.6-0.7,0.9c-0.5,0.4-0.9,0.8-1.4,1c-0.7,0.3-1.4,0.4-2.1,0.4c-1.4,0-2.5-0.5-3.5-1.4c-1-1-1.5-2.2-1.5-3.6
		s0.5-2.5,1.5-3.5s2.1-1.5,3.5-1.5c0.8,0,1.5,0.1,2.1,0.5h0.1c0.2,0.1,0.3,0.2,0.5,0.3c0.3,0.2,0.5,0.4,0.8,0.7
		c0.3,0.3,0.6,0.7,0.8,1.1c0.5,0.8,1.2,1.4,2.1,1.6c0.9,0.3,1.8,0.2,2.6-0.2c0.8-0.5,1.4-1.2,1.7-2.1C46.5,22.5,46.4,21.6,46,20.8z"
		/>
</g>
</svg>
