<?xml version="1.0" encoding="utf-8"?>
<svg xmlns="http://www.w3.org/2000/svg"
	xmlns:xlink="http://www.w3.org/1999/xlink"
	width="15px" height="18px" viewBox="0 0 15 18">
<path fill-rule="evenodd" d="M 13.5 17.99C 12.67 17.99 11.99 17.32 11.99 16.5 11.99 16.5 11.99 11.48 11.99 11.48 11.99 10.65 12.67 9.98 13.5 9.98 14.34 9.98 15.01 10.65 15.01 11.48 15.01 11.48 15.01 16.5 15.01 16.5 15.01 17.32 14.34 17.99 13.5 17.99ZM 7.49 17.99C 6.67 17.99 6 17.36 6 16.59 6 16.59 6 2.01 6 2.01 6 1.24 6.36-0 7.46-0 8.56-0 8.99 1.24 8.99 2.01 8.99 2.01 8.99 16.59 8.99 16.59 8.99 17.36 8.32 17.99 7.49 17.99ZM 2.28 17.78C 2.06 17.91 1.79 17.99 1.5 17.99 1.02 17.99 0.6 17.78 0.33 17.45 0.13 17.22 0 16.92 0 16.59 0 16.59 0 7.41 0 7.41 0 6.64 0.67 6.01 1.5 6.01 2.33 6.01 3 6.64 3 7.41 3 7.41 3 16.59 3 16.59 3 17.09 2.71 17.53 2.28 17.78Z"/>
</svg>
