<?xml version="1.0" encoding="utf-8"?>
<!-- Generator: Adobe Illustrator 19.2.1, SVG Export Plug-In . SVG Version: 6.00 Build 0)  -->
<!DOCTYPE svg PUBLIC "-//W3C//DTD SVG 1.1//EN" "http://www.w3.org/Graphics/SVG/1.1/DTD/svg11.dtd">
<svg version="1.1" id="Layer_1" xmlns="http://www.w3.org/2000/svg" xmlns:xlink="http://www.w3.org/1999/xlink" x="0px" y="0px"
	 viewBox="0 0 58.7 58" style="enable-background:new 0 0 58.7 58;" xml:space="preserve">
<style type="text/css">
	.share .st0{fill:#FFFFFF;}
	.share .frame{fill:#00BC64;}
</style>
<g class="share">
	<path class="st0" d="M12.4,40.1c-0.7,0-1.4,0.3-1.9,0.8s-0.8,1.2-0.8,1.9c0,0.8,0.2,1.4,0.8,2c0.5,0.5,1.2,0.7,1.9,0.7
		c0.1,0,0.3,0,0.4,0l2.2,2.2L11.7,51c3.8,2.9,8.2,4.3,13.2,4.3h9.5l0,0l0.9-0.8L31.9,51l2.2-2.2c0.2,0,0.3,0,0.5,0
		c0.8,0,1.4-0.3,1.9-0.8s0.8-1.2,0.8-2c0-0.7-0.3-1.4-0.8-1.9s-1.2-0.8-2-0.8s-1.4,0.3-2,0.8c-0.5,0.5-0.8,1.2-0.8,1.9
		c0,0.2,0,0.3,0.1,0.5l-2.2,2.2l-7.8-7.8l-4.5,4.5l-2.2-2.2c0-0.1-0.1-0.3-0.1-0.5c0-0.7-0.3-1.3-0.8-1.8
		C13.8,40.4,13.2,40.1,12.4,40.1 M19.4,27.1c-0.5-0.5-1.2-0.8-2-0.8s-1.4,0.3-1.9,0.8s-0.8,1.2-0.8,1.9c0,0.1,0,0.3,0,0.4l-2.2,2.1
		l-6.4-6.4l-3,3.1c-0.3,1.5-0.5,3.1-0.5,4.8c0,6.2,2.2,11.5,6.5,15.8C9.2,48.9,9.3,49,9.3,49l0.9-0.9c-0.7-0.3-1.3-0.7-1.9-1.2
		c-1.1-1.1-1.7-2.5-1.7-4.1s0.6-2.9,1.8-4c1.1-1.1,2.4-1.6,3.9-1.6c0,0,0,0,0.1,0c1.6,0,3,0.6,4.1,1.7c0.6,0.6,1,1.2,1.3,1.9l1.9-2
		l-4.9-4.9l2.2-2.1c0.1,0,0.3-0.1,0.4-0.1c0.8,0,1.4-0.2,2-0.8c0.5-0.5,0.8-1.2,0.8-1.9C20.1,28.2,19.9,27.6,19.4,27.1 M34.5,23.9
		L23.8,13.2c-1.9-1.9-3.8-1.9-5.6,0L8.2,23l3.8,3.8c0.1-0.1,0.1-0.3,0.2-0.4c0.3-0.6,0.6-1.1,1.1-1.6c1.1-1.1,2.4-1.7,4-1.7
		c1.6,0,2.9,0.6,4,1.7s1.7,2.5,1.7,4c0,1.6-0.5,2.9-1.6,4c-0.5,0.5-1,0.8-1.6,1.2c-0.2,0.1-0.4,0.1-0.5,0.2l2.5,2.4l6.1-6.1l2.5,2.5
		c0,0.1,0,0.3,0,0.4c0,0.8,0.3,1.5,0.8,2c0.5,0.6,1.2,0.8,2,0.8c0.7,0,1.4-0.2,1.9-0.8s0.8-1.2,0.8-2c0-0.7-0.3-1.4-0.9-1.9
		c-0.5-0.5-1.1-0.8-1.9-0.8c-0.1,0-0.3,0-0.4,0l-2.5-2.5L34.5,23.9 M47.5,42.5c1.9-1.9,1.9-3.8,0-5.7L36.7,26.1L35,27.8
		c0.8,0.2,1.5,0.7,2.1,1.3c1.1,1.1,1.7,2.5,1.8,4.1c-0.1,1.3-0.5,2.5-1.2,3.4c-0.2,0.3-0.4,0.6-0.6,0.8c-0.9,0.9-1.9,1.4-3.2,1.4
		l0,0c-0.2,0-0.5,0-0.7,0c-1.6,0-3-0.6-4.1-1.7c-0.6-0.6-1.1-1.3-1.4-2.1L24,38.8l5.2,5.2c0.2-0.8,0.7-1.5,1.4-2.1
		c1.1-1.1,2.4-1.7,4-1.8c1.6,0,2.9,0.6,4,1.7c1.1,1.1,1.7,2.5,1.7,4c0,1.6-0.5,3-1.6,4.1c-0.7,0.6-1.4,1.1-2.1,1.3l1,1L47.5,42.5
		 M42.3,19.1c1.2,1.2,1.8,2.6,1.9,4.4c0,1.4-0.5,2.6-1.4,3.6c-0.2,0.3-0.3,0.6-0.2,0.9c0,0.4,0.2,0.6,0.5,0.8c0.2,0.2,0.6,0.3,1,0.2
		c0.3,0,0.6-0.2,0.8-0.4c1.2-1.5,1.8-3.3,1.8-5.2c0-2.5-0.8-4.5-2.5-6.2s-3.8-2.6-6.1-2.5c-2-0.1-3.8,0.5-5.3,1.7
		c-0.3,0.2-0.4,0.5-0.5,0.8c-0.1,0.4,0,0.7,0.2,0.9c0.2,0.3,0.5,0.4,0.8,0.4c0.3,0.1,0.6,0,0.9-0.2c1.1-0.9,2.3-1.3,3.6-1.2H38
		C39.6,17.2,41.1,17.9,42.3,19.1 M46.8,14.6c2.4,2.4,3.6,5.3,3.6,8.7l0.1,0.1h-0.1c0,3.1-1,5.8-2.9,8.1c-0.3,0.3-0.4,0.6-0.4,1
		s0.2,0.7,0.5,0.8c0.2,0.2,0.5,0.3,0.9,0.3c0.3,0,0.6-0.1,0.8-0.4c2.4-2.8,3.6-6,3.6-9.8c0-4.2-1.5-7.7-4.4-10.6
		c-3-3-6.5-4.4-10.6-4.4c-3.8,0-7,1.2-9.8,3.6c-0.3,0.3-0.4,0.6-0.4,0.9c-0.1,0.3,0,0.6,0.3,0.9c0.2,0.3,0.5,0.4,0.9,0.4
		c0.3,0,0.6-0.1,0.9-0.4c2.2-2,4.9-3,8.1-3C41.4,10.9,44.3,12.2,46.8,14.6 M52.7,8.7c-0.3-0.3-0.5-0.5-0.8-0.7
		C48,4.4,43.3,2.6,38,2.6S28,4.4,24.1,8H24c-0.2,0.2-0.4,0.5-0.4,0.9c0,0.3,0.1,0.6,0.4,0.9s0.5,0.4,0.9,0.4s0.7-0.1,0.9-0.3
		c0.8-0.7,1.6-1.3,2.4-1.8c2.8-2,6.1-3,9.8-3c3.6,0,6.9,0.9,9.8,2.8c1.1,0.7,2.1,1.5,3.1,2.5c3.6,3.6,5.4,7.9,5.4,12.9
		c0,4.7-1.6,8.8-4.7,12.2c-0.2,0.2-0.3,0.5-0.3,0.9s0.2,0.7,0.4,0.9s0.5,0.4,0.9,0.4c0.3-0.1,0.6-0.2,0.8-0.5
		c3.6-4,5.4-8.6,5.4-13.9C58.7,17.6,56.7,12.7,52.7,8.7z"/>
	<path class="frame" d="M38,5.1c-3.7,0-6.9,1-9.8,2.8h19.6C44.9,6.1,41.6,5.1,38,5.1 M51.9,8h4.4c-1.4-1.4-2.9-2.6-4.6-3.8
		c-5.2-3.4-10.8-4.7-16.8-4c-2.7,0.2-5.2,0.9-7.6,2c-1.5,0.7-3,1.5-4.3,2.4c-1,0.7-1.9,1.4-2.8,2.2C19.6,7.4,19,8,18.4,8.7
		C20.2,8.3,22.1,8,24,8h0.1C28,4.4,32.6,2.6,38,2.6C43.3,2.6,48,4.4,51.9,8z"/>
</g>
</svg>
