<?xml version="1.0" encoding="utf-8"?>
<!-- Generator: Adobe Illustrator 19.2.1, SVG Export Plug-In . SVG Version: 6.00 Build 0)  -->
<!DOCTYPE svg PUBLIC "-//W3C//DTD SVG 1.1//EN" "http://www.w3.org/Graphics/SVG/1.1/DTD/svg11.dtd">
<svg version="1.1" id="Layer_1" xmlns="http://www.w3.org/2000/svg" xmlns:xlink="http://www.w3.org/1999/xlink" x="0px" y="0px"
	 viewBox="0 0 27.3 57.9" style="enable-background:new 0 0 27.3 57.9;" xml:space="preserve">
<style type="text/css">
	.start-session .st0{fill:#FFFFFF;}
	.start-session .frame{fill:#00BC64;}
</style>
<g class="start-session">
	<path class="st0" d="M9.5,37.8c-2.6,0-4.8,0.4-6.6,1.3c-1.8,0.8-2.7,1.7-2.8,2.9v0.1c0.1,1,1,2,2.8,2.8s4,1.2,6.6,1.2
		c2.5,0,4.7-0.4,6.4-1.2c1.8-0.8,2.7-1.8,2.8-2.8V42c-0.1-1.2-1-2.1-2.8-2.9C14.2,38.2,12,37.8,9.5,37.8 M2.9,46.6
		c-1.8-0.8-2.6-1.4-2.7-2v7.5c4,2.7,8.5,4.1,13.7,4.2h4.8c0-0.1,0-0.2,0-0.2V44.4c-0.1,0.6-1,1.3-2.8,2.1s-3.9,1.2-6.4,1.2
		C6.9,47.7,4.7,47.3,2.9,46.6 M25,7.9v-5H2.5v7v1.2c0,0.9,0.3,1.6,1,2.2c0.5,0.7,1.3,1,2.1,1c0.2,0,0.3,0,0.5,0v16.1
		c0,0.9,0.3,1.6,0.9,2.3c0.6,0.6,1.4,0.9,2.2,0.9c0.9,0,1.6-0.3,2.2-0.9c0.7-0.6,1-1.4,1-2.3V20.2c0.1,2.5,0.4,4,0.9,4.6
		c0.7,0.6,1.4,0.9,2.3,0.9s1.7-0.3,2.3-0.9c0.4-0.5,0.7-1.1,0.9-1.8c0.2,1,0.6,1.6,1,2c0.5,0.3,1.2,0.5,2,0.5c0.9,0,1.6-0.3,2.2-1
		c0.7-0.6,1-1.4,1-2.2V11.1c0-0.2,0-0.3,0-0.5V7.9z"/>
	<path class="frame" d="M27.3,2.4c0-0.6-0.2-1.2-0.6-1.6l0,0C26.1,0.2,25.6,0,25,0H2.3C1.7,0,1.2,0.2,0.7,0.7S0,1.7,0,2.4v8.8
		c0.8-0.5,1.6-0.9,2.5-1.2V3H25v5h2.3V2.4z"/>
</g>
</svg>
