<?xml version="1.0" encoding="utf-8"?>
<!-- Generator: Adobe Illustrator 19.2.1, SVG Export Plug-In . SVG Version: 6.00 Build 0)  -->
<!DOCTYPE svg PUBLIC "-//W3C//DTD SVG 1.1//EN" "http://www.w3.org/Graphics/SVG/1.1/DTD/svg11.dtd">
<svg version="1.1" id="Layer_1" xmlns="http://www.w3.org/2000/svg" xmlns:xlink="http://www.w3.org/1999/xlink" x="0px" y="0px"
	 viewBox="0 0 52.7 50" style="enable-background:new 0 0 52.7 50;" xml:space="preserve">
<style type="text/css">
	.submit .st0{fill:#FFFFFF;}
	.submit .frame{fill:#00BC64;}
</style>
<g class="submit" transform="matrix( 1, 0, 0, 1, 0,0) ">
	<g>
		<g id="Layer0_0_FILL">
			<path class="st0" d="M19.9,44l-5.7-3.1l0.2,9.1L19.9,44 M49.1,5.3l1.1-2.8l-5.8,2.8L0.3,26.4C0.1,27.6,0,28.9,0,30.3
				c0,0.3,0,0.6,0.1,0.9l8.6,4.6l30.2-24L14.4,38.8l17.5,9.2L49.1,5.3z"/>
			<path class="frame" d="M50.2,2.5l-1.1,2.8h2.7l0.8-1.8c0.2-0.5,0.2-1,0.2-1.5c-0.1-0.5-0.4-0.9-0.8-1.3S51.1,0.1,50.6,0
				c-0.5-0.1-1,0-1.4,0.2l-10.5,5h5.8L50.2,2.5z"/>
		</g>
	</g>
</g>
</svg>
