<?xml version="1.0" encoding="utf-8"?>
<!-- Generator: Adobe Illustrator 19.2.1, SVG Export Plug-In . SVG Version: 6.00 Build 0)  -->
<!DOCTYPE svg PUBLIC "-//W3C//DTD SVG 1.1//EN" "http://www.w3.org/Graphics/SVG/1.1/DTD/svg11.dtd">
<svg version="1.1" id="Layer_1" xmlns="http://www.w3.org/2000/svg" xmlns:xlink="http://www.w3.org/1999/xlink" x="0px" y="0px"
	 viewBox="0 0 59.8 60.3" style="enable-background:new 0 0 59.8 60.3;" xml:space="preserve">
<style type="text/css">
	.submit-pressed .st0{fill:#FFFFFF;}
	.submit-pressed .frame{fill:#009D54;}
</style>
<g transform="matrix( 1, 0, 0, 1, 0,0) ">
	<g class="submit-pressed">
		<g id="Layer0_0_FILL">
			<path class="st0" d="M0,52.1l0.9,0.5l1.2-1.2l-0.8-0.5L0,52.1 M7.8,60.3l0.8-0.8L7.6,59l-0.8,0.8C7.2,59.9,7.5,60.1,7.8,60.3
				 M11.4,56.6l-0.9-0.5l-1.2,1.2l0.9,0.5L11.4,56.6 M26,44.5l-5.6-3.1l0.2,9.1L26,44.5 M19.6,48.1l-0.1-1.3l-7.1,7.4l0.9,0.5
				L19.6,48.1 M4,49.4l1.6-1.7l-0.8-0.5l-1.6,1.7L4,49.4 M5.8,46.2l0.8,0.5l7.6-7.9l-0.7-0.7L5.8,46.2 M51.5,15.3L56.4,3L31.2,15.3
				l-29,14.1c4.1,2.2,7.3,3.9,9.7,5.1l2.9,1.7l26.4-21l3.8-3.1l-2.8,3.1l-21.7,24l17.5,9.2L51.5,15.3z"/>
			<path class="frame" d="M41.3,15.3h1l2.8-3.1L41.3,15.3 M59,0.7c-0.4-0.4-0.8-0.6-1.3-0.6c-0.5-0.1-1,0-1.5,0.2l-31.5,15h6.5L56.4,3
				l-4.9,12.3h2.8l5.4-11.8c0.2-0.5,0.2-1,0.1-1.5C59.7,1.5,59.4,1,59,0.7z"/>
		</g>
	</g>
</g>
</svg>
