<?xml version="1.0" encoding="utf-8"?>
<svg xmlns="http://www.w3.org/2000/svg"
	xmlns:xlink="http://www.w3.org/1999/xlink"
	width="18px" height="20px">
<path fill="rgb(11,39,47)" fill-rule="evenodd" d="M 8.86 20C 4.16 20 0.34 16.33 0.34 11.81 0.34 7.3 4.16 3.63 8.86 3.63 13.56 3.63 17.39 7.3 17.39 11.81 17.39 16.33 13.56 20 8.86 20ZM 8.86 5.61C 5.3 5.61 2.4 8.39 2.4 11.81 2.4 15.24 5.3 18.02 8.86 18.02 12.43 18.02 15.33 15.24 15.33 11.81 15.33 8.39 12.43 5.61 8.86 5.61ZM 11.19 13.78C 11.1 13.78 11.02 13.77 10.93 13.75 10.93 13.75 8.61 13.16 8.61 13.16 8.1 13.04 7.8 12.56 7.87 12.07 7.86 12 7.83 11.95 7.83 11.88 7.83 11.88 7.83 8.41 7.83 8.41 7.83 7.86 8.29 7.42 8.86 7.42 9.43 7.42 9.89 7.86 9.89 8.41 9.89 8.41 9.89 11.44 9.89 11.44 9.89 11.44 11.45 11.83 11.45 11.83 12 11.97 12.33 12.51 12.18 13.04 12.06 13.48 11.65 13.78 11.19 13.78ZM 10.03 2.18C 10.03 2.18 7.7 2.18 7.7 2.18 7.13 2.18 6.67 1.74 6.67 1.19 6.67 0.65 7.13 0.21 7.7 0.21 7.7 0.21 10.03 0.21 10.03 0.21 10.59 0.21 11.06 0.65 11.06 1.19 11.06 1.74 10.59 2.18 10.03 2.18Z"/>
</svg>