<?xml version="1.0" encoding="utf-8"?>
<svg xmlns="http://www.w3.org/2000/svg"
	xmlns:xlink="http://www.w3.org/1999/xlink" x="0px" y="0px" viewBox="0.5 0 11.8 9">
<path fill="rgb(255,255,255)" fill-rule="evenodd" d="M 11.39 2.06C 11.39 2.06 5.4 8.59 5.4 8.59 5.39 8.6 5.38 8.62 5.37 8.63 5.37 8.64 5.35 8.64 5.35 8.65 5.08 8.97 4.68 9.03 4.36 8.85 4.24 8.8 4.13 8.73 4.03 8.63 4.03 8.63 1.04 6.01 1.04 6.01 0.67 5.63 0.67 5.01 1.04 4.62 1.41 4.24 2.01 4.23 2.38 4.62 2.38 4.62 4.62 6.58 4.62 6.58 4.62 6.58 10.14 0.57 10.14 0.57 10.48 0.16 11.04 0.16 11.39 0.57 11.73 0.98 11.73 1.65 11.39 2.06Z"/>
</svg>
