<?xml version="1.0" encoding="utf-8"?>
<!-- Generator: Adobe Illustrator 18.1.1, SVG Export Plug-In . SVG Version: 6.00 Build 0)  -->
<!DOCTYPE svg PUBLIC "-//W3C//DTD SVG 1.1//EN" "http://www.w3.org/Graphics/SVG/1.1/DTD/svg11.dtd">
<svg version="1.1" id="Layer_1" xmlns="http://www.w3.org/2000/svg" xmlns:xlink="http://www.w3.org/1999/xlink" x="0px" y="0px"
	 viewBox="0 300 1417.3 1400" xml:space="preserve">
<g>
	<rect x="96.1" y="698" fill="#159e57" width="900.9" height="577.9"/>
	<path fill="#19C26B" d="M1021.3,678.8H38.4C16.7,678.8,0,695.5,0,717.2l0,0c0,21.8,16.7,38.4,38.4,38.4h982.9
		c21.8,0,38.4-16.7,38.4-38.4l0,0C1059.8,695.5,1041.8,678.8,1021.3,678.8z"/>
	<path fill="#19C26B" d="M923.9,1270.8H772.7c-12.8,0-21.8-10.3-21.8-21.8l0,0c0-12.8,10.3-21.8,21.8-21.8h151.2
		c12.8,0,21.8,10.3,21.8,21.8l0,0C945.7,1260.6,935.5,1270.8,923.9,1270.8z"/>
	<rect x="16.7" y="1274.7" fill="#19C26B" width="1026.5" height="42.3"/>
</g>
<path fill="#DAD9D7" d="M1116.2,303.3c166.6,0,301.1,134.6,301.1,301.1s-135.8,301.1-301.1,301.1S815,771.1,815,604.5
	S949.6,303.3,1116.2,303.3z"/>
<path opacity="0.7" fill="#DAD9D7" enable-background="new    " d="M545.9,1565.6c182,0,330.6,25.6,330.6,57.7
	c0,32-147.4,57.7-330.6,57.7c-182,0-329.3-25.6-329.3-57.7C215.3,1591.2,363.9,1565.6,545.9,1565.6z"/>
<path fill="#19C26B" d="M1103.4,461h25.6v281.9h-25.6V461z"/>
<path fill="#19C26B" d="M975.2,589.1h281.9v25.6H975.2V589.1z"/>
<path fill="#0f713e" d="M855.9,755.7c32.4,55.4,81.9,99.5,141.1,125.1V755.7H855.9z"/>
<path fill="#17b563" d="M1021.3,678.8h-197c1.7,6.5,3.5,12.9,5.6,19.2c6.6,20.3,15.4,39.6,26,57.7H997h24.3
	c21.8,0,38.4-16.7,38.4-38.4C1059.8,695.5,1041.8,678.8,1021.3,678.8z"/>
</svg>
