<?xml version="1.0" encoding="utf-8"?>
<svg xmlns="http://www.w3.org/2000/svg"
	xmlns:xlink="http://www.w3.org/1999/xlink" width="18px" height="18px" viewBox="0 0 18 18">
<path fill-rule="evenodd" d="M 17.47 3.69C 17.47 3.69 11.79 9.27 11.79 9.27 11.79 9.27 17.33 14.7 17.33 14.7 18 15.43 18 16.6 17.33 17.32 16.66 18.05 15.57 18.05 14.9 17.32 14.9 17.32 9.24 11.78 9.24 11.78 9.24 11.78 3.44 17.47 3.44 17.47 2.75 18.21 1.64 18.21 0.95 17.47 0.27 16.73 0.27 15.54 0.95 14.8 0.95 14.8 6.63 9.22 6.63 9.22 6.63 9.22 1.09 3.79 1.09 3.79 0.42 3.06 0.42 1.89 1.09 1.16 1.76 0.44 2.85 0.44 3.53 1.16 3.53 1.16 9.18 6.71 9.18 6.71 9.18 6.71 14.98 1.01 14.98 1.01 15.67 0.27 16.78 0.27 17.47 1.01 18.16 1.75 18.16 2.95 17.47 3.69Z"/>
</svg>
