<?xml version="1.0" encoding="utf-8"?>
<!-- Generator: Adobe Illustrator 18.1.0, SVG Export Plug-In . SVG Version: 6.00 Build 0)  -->
<!DOCTYPE svg PUBLIC "-//W3C//DTD SVG 1.1//EN" "http://www.w3.org/Graphics/SVG/1.1/DTD/svg11.dtd">
<svg version="1.1" id="lock_1_" xmlns="http://www.w3.org/2000/svg" xmlns:xlink="http://www.w3.org/1999/xlink" x="0px" y="0px"
	 viewBox="0 0 15 19" enable-background="new 0 0 15 19" xml:space="preserve">
<g id="Rectangle_148_copy">
	<g>
		<path fill="#515151" d="M12,8c0.6,0,1,0.4,1,1v7c0,0.6-0.4,1-1,1H3c-0.6,0-1-0.4-1-1V9c0-0.6,0.4-1,1-1H12 M12,6H3
			C1.3,6,0,7.3,0,9v7c0,1.7,1.3,3,3,3h9c1.7,0,3-1.3,3-3V9C15,7.3,13.7,6,12,6L12,6z"/>
	</g>
</g>
<g id="Rectangle_149_copy">
	<g>
		<path fill="#515151" d="M7.5,2C9.4,2,11,3.2,11,4.6V6H4V4.6C4,3.2,5.6,2,7.5,2 M7.5,0C4.5,0,2,2.1,2,4.6V8h11V4.6
			C13,2.1,10.5,0,7.5,0L7.5,0z"/>
	</g>
</g>
<circle fill-rule="evenodd" clip-rule="evenodd" fill="#515151" cx="7.5" cy="12.4" r="1.5"/>
</svg>
