<?xml version="1.0" encoding="utf-8"?>
<!-- Generator: Adobe Illustrator 19.2.1, SVG Export Plug-In . SVG Version: 6.00 Build 0)  -->
<!DOCTYPE svg PUBLIC "-//W3C//DTD SVG 1.1//EN" "http://www.w3.org/Graphics/SVG/1.1/DTD/svg11.dtd">
<svg version="1.1" id="Layer_1" xmlns="http://www.w3.org/2000/svg" xmlns:xlink="http://www.w3.org/1999/xlink" x="0px" y="0px"
	 viewBox="0 0 56 60.1" style="enable-background:new 0 0 56 60.1;" xml:space="preserve">
<style type="text/css">
	.end-activity .st0{fill:#FFFFFF;}
	.end-activity .frame{fill:#00BC64;}
</style>
<g class="end-activity">
	<path class="st0" d="M47.8,48.2v-5H56v-2.8h-8.2v-4H34.1V44c-0.6,0-1.2,0-1.8,0c-1.8-0.1-3.5-0.5-5.1-1h-0.1H27c-0.1,0-0.1,0-0.2,0
		c-0.1-0.1-0.2-0.1-0.3-0.2h-0.1h-0.1c-0.2-0.1-0.3-0.1-0.5-0.2c-1.3-0.7-2.6-1.3-3.9-2c-0.4-0.2-0.7-0.5-1.1-0.7l-0.1-0.1l0,0
		c-0.8-0.6-1.6-1.2-2.4-1.8l-3.1,1.3c1.5,1.3,3,2.5,4.5,3.5c1.2,0.7,2.3,1.4,3.4,1.9l2.8,1.2c0.1,0,0.1,0,0.2,0
		c2.6,0.9,5.3,1.3,8.1,1.2v7.5H48v-3.8h8V48h-8.2 M25.4,49.2l0.4-1.1c-1.6-0.5-3.9-1.4-7-2.8l-4.4,12.8c0.7,0.4,1.5,0.7,2.2,1
		c-0.1,0-0.1,0.1-0.1,0.1C20.6,57,23.6,53.6,25.4,49.2 M6.9,23.7c-0.1-0.2-0.2-0.3-0.4-0.4c-0.7,0.8-1.3,1.7-1.8,2.6
		c1.1,2,2.3,3.8,3.5,5.5l2.7-1.3C9.6,28,8.2,25.9,6.9,23.7 M49.1,16.7c-1.7-1.2-3.6-1.6-5.6-1.2c-0.4,0.1-0.8,0.2-1.2,0.3
		c-0.9,0.3-1.7,0.8-2.4,1.6l-6.2,3.2c-0.4-0.9,0.3-3.1,1.9-6.8c0.3-0.4,0.5-0.9,0.7-1.4c0.2-0.4,0.3-0.9,0.4-1.3c0-0.4,0-0.8,0-1.1
		c0-2-0.8-3.8-2.2-5.3c-1.4-1.4-3.2-2.2-5.2-2.2c-2.1,0-3.8,0.7-5.3,2.2C22.6,6.2,21.8,8,21.8,10c0,0.9,0.1,1.7,0.4,2.4v0.1
		c0,0.1,0.1,0.2,0.1,0.3l0.4,0.9c0.1,0.2,0.3,0.4,0.5,0.7c0.2,0.2,0.4,0.5,0.6,0.8c1.5,1.8,2,4.1,1.6,6.7l-0.8,3.4L7.1,34.2
		c-2,0.9-3.8,1.6-5.3,2.3c0,0.3,0,0.5,0,0.8c0,2.1,0.2,4,0.7,5.9l20.3-9.4l-1.4,4c2.3,1.5,4.4,2.6,6.4,3.2l3.1-10.9l3.1-1.4
		c2.5-0.9,4.8-0.8,6.9,0.3c0.3,0.2,0.6,0.4,0.9,0.5c0.7,0.4,1.4,0.6,2.1,0.7c0.8,0.1,1.6,0,2.5-0.1c2-0.4,3.6-1.4,4.8-3.1
		c1.1-1.7,1.5-3.6,1-5.6C51.8,19.4,50.8,17.8,49.1,16.7 M40.7,23.7c-0.2-1.2,0-2.2,0.7-3.2s1.6-1.6,2.8-1.9c1.2-0.2,2.3,0,3.3,0.7
		c0.9,0.7,1.5,1.6,1.8,2.8c0.2,1.2,0,2.3-0.6,3.2c-0.7,1-1.6,1.6-2.8,1.9s-2.2,0-3.2-0.6C41.5,25.8,40.9,24.9,40.7,23.7 M32.3,6.8
		c0.9,0.9,1.3,1.9,1.3,3.1c0,0.9-0.2,1.7-0.8,2.4c-0.2,0.2-0.3,0.4-0.5,0.6c-0.8,0.9-1.9,1.3-3,1.3s-2.2-0.4-3.1-1.3
		c-0.2-0.2-0.4-0.4-0.5-0.6c-0.5-0.7-0.8-1.5-0.8-2.4c0-1.2,0.4-2.2,1.2-3.1C27,6,28,5.6,29.2,5.6S31.5,5.9,32.3,6.8 M28.2,25.9
		c0.4,0,0.7,0.1,1,0.4s0.5,0.6,0.5,1.1c0,0.4-0.1,0.7-0.5,1c-0.3,0.3-0.6,0.4-1,0.4s-0.8-0.1-1-0.4c-0.3-0.3-0.4-0.6-0.4-1
		s0.1-0.8,0.4-1.1C27.5,26,27.9,25.9,28.2,25.9z"/>
	<path class="frame" d="M36.7,9.9c0,0.4,0,0.8,0,1.1c-0.1,0.4-0.2,0.9-0.4,1.3h3.5c0.1-0.5,0.1-1.1,0.1-1.7c0-2.9-1.1-5.4-3.2-7.5
		C34.7,1,32.2,0,29.3,0s-5.4,1-7.5,3.1s-3.1,4.6-3.1,7.5c0,0.8,0.1,1.6,0.2,2.4c1.1-0.3,2.2-0.4,3.4-0.6c0-0.1,0-0.1,0-0.1
		c-0.3-0.8-0.4-1.6-0.4-2.4c0-2,0.7-3.8,2.2-5.3c1.5-1.4,3.2-2.2,5.3-2.2c2,0,3.8,0.7,5.2,2.2C36,6.1,36.7,7.8,36.7,9.9 M33.6,9.9
		c0-1.2-0.4-2.2-1.3-3.1c-0.8-0.8-1.9-1.2-3-1.2S27,5.9,26.1,6.8c-0.8,0.9-1.2,1.9-1.2,3.1c0,0.9,0.2,1.7,0.8,2.4h7.2
		C33.3,11.6,33.6,10.8,33.6,9.9z"/>
</g>
</svg>
