<?xml version="1.0" encoding="utf-8"?>
<!-- Generator: Adobe Illustrator 19.2.1, SVG Export Plug-In . SVG Version: 6.00 Build 0)  -->
<!DOCTYPE svg PUBLIC "-//W3C//DTD SVG 1.1//EN" "http://www.w3.org/Graphics/SVG/1.1/DTD/svg11.dtd">
<svg version="1.1" id="Layer_1" xmlns="http://www.w3.org/2000/svg" xmlns:xlink="http://www.w3.org/1999/xlink" x="0px" y="0px"
	 viewBox="0 0 62.8 54.7" style="enable-background:new 0 0 62.8 54.7;" xml:space="preserve">
<style type="text/css">
	.end-activity-pressed .st0{fill:#FFFFFF;}
</style>
<g transform="matrix( 1, 0, 0, 1, 0,0) ">
	<g class="end-activity-pressed">
		<g id="Layer0_0_FILL">
			<path class="st0" d="M2.2,23.7c-0.1-0.2-0.2-0.3-0.4-0.4C1.1,24,0.5,24.9,0,25.8c1.1,2,2.7,4.4,4.7,7.2c0.6,0.9,1.4,1.9,2.2,3.1
				l1.9-2.6c-0.5-0.6-1-1.3-1.5-1.9v0.1C5.2,28.5,3.4,25.8,2.2,23.7 M54.6,36.5H40.8v7.4c-6.3-0.2-13.7,0.7-22.3,2.8v3.6
				c7.4-2.1,14.8-2.9,22.3-2.5v7h13.8v-3.8h8.2v-2.8h-8.2v-5h8.2v-2.8h-8.2V36.5 M44,14.1c-0.4-0.7-0.9-1.3-1.5-1.8
				c-0.9-0.8-1.9-1.3-3-1.6c-1.9-0.4-3.6-0.2-5.2,0.6c0.1-1.9-0.4-3.6-1.6-5.1c-1.2-1.6-2.9-2.5-4.9-2.8c-2.1-0.3-3.9,0.2-5.5,1.4
				c-1.6,1.3-2.6,3-2.8,4.9c-0.1,0.9-0.1,1.7,0,2.5v0.1c0.1,0.1,0.1,0.2,0.1,0.3l0.3,0.9c0.1,0.2,0.3,0.4,0.4,0.7
				c0.1,0.2,0.3,0.5,0.6,0.9c1.3,2,1.5,4.3,0.8,6.9l-1.5,2.6c-2.9,3.4-7.6,9.1-14,17c-1.9,2.6-3.6,4.8-4.9,6.7
				c-0.1,0.1-0.1,0.2-0.2,0.3L1.1,49c0.6,1.7,1.7,3,3.3,4l25-25.7c2-1.7,4.2-2.4,6.6-2.1c0.4,0.1,0.7,0.1,1,0.1
				c0.7,0.1,1.5,0,2.2-0.1c0.8-0.2,1.6-0.6,2.3-1c1.7-1,2.9-2.5,3.5-4.6C45.4,17.7,45.1,15.8,44,14.1 M41.3,15.7
				c0.6,1,0.8,2.1,0.6,3.3c-0.3,1.2-1,2.1-2,2.8c-1,0.6-2.1,0.7-3.2,0.4c-1.1-0.2-2-0.9-2.7-1.9c-0.6-1.1-0.8-2.2-0.5-3.3
				c0.2-1.2,0.9-2.1,1.9-2.7c1-0.6,2.1-0.8,3.3-0.6C39.9,14,40.8,14.7,41.3,15.7 M31.1,11.4c0,0.3-0.1,0.6-0.2,0.9
				c-0.3,0.7-0.7,1.4-1.4,1.9c-0.9,0.7-2,1-3.2,0.9c-1.2-0.2-2.2-0.7-2.9-1.7c-0.3-0.3-0.5-0.7-0.6-1.1c-0.3-0.6-0.3-1.3-0.2-2.1
				c0.1-1.2,0.7-2.2,1.6-3c1-0.7,2-1,3.2-0.8c1.2,0.1,2.1,0.7,2.9,1.7S31.3,10.2,31.1,11.4 M24.1,25.9c0.4,0.2,0.7,0.5,0.8,0.9
				c0.1,0.2,0.1,0.5,0.1,0.7c-0.1,0.1-0.1,0.3-0.1,0.4c-0.2,0.4-0.5,0.6-0.9,0.8c-0.3,0.1-0.7,0.1-1.1,0c-0.3-0.2-0.6-0.4-0.7-0.7
				c0,0-0.1-0.1-0.1-0.1C22,27.3,22,27,22.2,26.6c0.2-0.4,0.4-0.6,0.8-0.8C23.4,25.7,23.8,25.7,24.1,25.9z"/>
		</g>
	</g>
</g>
</svg>
