<?xml version="1.0" encoding="utf-8"?>
<!-- Generator: Adobe Illustrator 19.2.1, SVG Export Plug-In . SVG Version: 6.00 Build 0)  -->
<!DOCTYPE svg PUBLIC "-//W3C//DTD SVG 1.1//EN" "http://www.w3.org/Graphics/SVG/1.1/DTD/svg11.dtd">
<svg version="1.1" id="Layer_1" xmlns="http://www.w3.org/2000/svg" xmlns:xlink="http://www.w3.org/1999/xlink" x="0px" y="0px"
	 viewBox="0 0 330 168.6" style="enable-background:new 0 0 330 168.6;" xml:space="preserve">
<style type="text/css">
	.st0{fill:#15A45A;}
	.st1{fill:#14A45A;}
	.st2{fill:#129A54;}
	.st3{fill:#17BB67;}
	.st4{fill:#19C26B;}
	.st5{fill:#19C36B;}
	.st6{fill:#FCCF31;}
	.st7{fill:#16AF60;}
	.st8{fill:#17B564;}
	.st9{fill:#FFD74D;}
	.st10{fill:#149552;}
	.st11{fill:#9D9D9D;}
</style>
<g transform="matrix( 1, 0, 0, 1, 0,0) ">
	<g>
		<g id="Symbol_3_0_Layer7_0_FILL">
			<path class="st0" d="M88.3,168.6c8,0,10.3-4,7-11.9l-6.1-15H53.4l6.1,15c3.2,7.9,8.9,11.9,16.8,11.9H88.3 M184,168.6
				c8,0,10.4-4,7.1-11.9l-6.1-15c-10.7-9.1-22.7-9.1-35.9,0l6.1,15c3.3,7.9,8.9,11.9,16.8,11.9H184z"/>
		</g>
	</g>
</g>
<g transform="matrix( 1, 0, 0, 1, 0,0) ">
	<g>
		<g id="Symbol_3_0_Layer6_0_FILL">
			<path class="st1" d="M76.3,168.6h12c8,0,10.3-4,7-11.9l-3.2-8H56.2l3.3,8C62.7,164.6,68.3,168.6,76.3,168.6 M172,168.6h12
				c8,0,10.4-4,7.1-11.9l-3.3-8H152l3.2,8C158.5,164.6,164.1,168.6,172,168.6z"/>
			<path class="st2" d="M92.1,148.6l-2.9-6.9H53.4l2.8,6.9H92.1 M187.9,148.6l-2.9-6.9c-10.7-9.1-22.7-9.1-35.9,0l2.9,6.9H187.9z"/>
		</g>
	</g>
</g>
<g transform="matrix( 1, 0, 0, 1, 0,0) ">
	<g>
		<g id="Symbol_3_0_Layer5_0_FILL">
			<path class="st3" d="M181.2,142c10.6,0.2,17.7-2.5,21.3-8.3c-16.9-0.5-33.9-1.7-50.9-3.6c-23-3.5-42-7.7-57-12.6
				c-30.2-9.9-45.3-26.4-45.3-49.6c0-10.9,1.8-20.6,5.4-29.1c2.2-5.2,5.3-10.2,9.1-15.2c0.4-0.5,0.9-0.9,1.3-1.3
				c3.6-3.4,7-6.6,10.3-9.6c-0.6,0-1.2,0.1-1.8,0.2c-3.1,0.3-6.2,0.8-9.2,1.5c-5.1,1.2-9.9,3-14.4,5.6
				c-12.3,6.9-21.6,16.7-27.9,29.3c-1,2-2,4.4-3.1,7.1l-2.8,10.3L0,137.9l15.8-31.2l16.4,33.8c-2.3,6.8-4.4,12.6-6.3,17.6
				c-0.8,1.9-0.9,3.8-0.5,5.8c0.5,2.3,1.9,3.7,4.4,4.2c0.8,0.2,1.6,0.3,2.5,0.4c2.6,0.2,5.3,0.2,8,0.2c2.2,0,4.5-0.1,6.9-0.2
				c3.7-0.2,6.9-1.5,9.7-3.8c1-0.8,1.9-1.8,2.7-2.9c0.8-1.1,1.5-2.4,2.1-3.8c2.2-5.4,4.4-10.9,6.5-16.3h59.7
				c-2.1,5.5-4.3,10.9-6.4,16.4c-0.8,1.9-0.9,3.8-0.5,5.8c0.5,2.3,1.9,3.7,4.4,4.2c0.8,0.2,1.6,0.3,2.5,0.4c5,0.2,10,0.2,14.8,0
				c3.7-0.2,7-1.5,9.7-3.7c1.1-0.9,2-1.9,2.8-3c0.8-1.2,1.5-2.4,2-3.8c2.2-5.5,4.4-10.9,6.5-16.4C164.2,141.6,170,141.7,181.2,142z"
				/>
			<path class="st4" d="M301.7,135.9l2.2-2.6c-6,1-11.6,1.3-16.6,1c-5.1-0.3-9.2-1.1-12.3-2.4c-3.1-1.3-5.4-2.6-6.9-4.1
				c-21.8,4.5-43.6,6.5-65.4,5.8c0.8,3.1,4.3,5.4,10.5,7c3.4,0.7,6.8,1,10.2,1h44.7c2.9,0.1,7.1,0.2,12.7,0.3
				C289.3,142.2,296.2,140.1,301.7,135.9 M283.2,138.8c0,0-0.1-0.1-0.1-0.1c0,0,0.1,0,0.2,0C283.3,138.7,283.3,138.7,283.2,138.8z"
				/>
			<path class="st5" d="M230.7,40.9c2.1-1.6,3.7-3.4,5-5.6c1-1.8,1.5-3.8,1.4-6c-0.1-2.9-0.9-5.5-2.5-7.8l-13.7,10.8
				c-2.5-2.3-6.8-6.1-13-11.5c-2.8-2.5-6-5-9.5-7.4c-13.3-10.9-28.3-13.9-44.9-9c-14,4-28.3,6.7-42.8,8H80.4c-1.6,0-3.2,0.1-4.9,0.2
				c-3.3,3-6.8,6.2-10.3,9.6c-0.5,0.4-0.9,0.9-1.3,1.3c-3.9,5-6.9,10-9.1,15.2c-3.6,8.5-5.4,18.2-5.4,29.1
				c0,23.2,15.1,39.7,45.3,49.6c14.9,4.9,33.9,9.1,57,12.6c17.1,1.9,34.1,3.1,50.9,3.6c0.1-0.2,0.2-0.3,0.2-0.5
				c0,0.2,0.1,0.3,0.1,0.5c21.8,0.6,43.6-1.3,65.4-5.8c-1.3-1.3-2.4-2.7-3.3-4.2c-0.8-1.1-1.4-2.3-2-3.6c4.2,0.7,8.4,1.3,12.7,1.8
				c1.9,0.2,3.8,0.5,5.8,0.7c-0.4-0.2-0.8-0.3-1.3-0.5c-0.5-0.2-0.9-0.3-1.4-0.4c0.5,0.1,1,0.2,1.5,0.3c1.3,0.3,2.6,0.5,3.8,0.7
				c3.9,0.3,7.8,0.5,11.7,0.4c0,0,0.1-0.1,0.2-0.1c0.4-0.3,0.8-0.5,1.1-0.8c0.3-0.3,0.6-0.6,0.9-0.9c0,0,0.1-0.1,0.1-0.1
				c-0.4,0.6-0.8,1.2-1.2,1.8c0.2,0,0.5-0.1,0.7-0.1c2.1,0,4-0.4,5.7-1.2c-0.2-1.5-0.5-3-0.9-4.6c-0.2-0.6-0.3-1.3-0.5-1.9
				c0.5-0.8,0.8-1.5,1.1-2.1c1.1-2.3,1.9-4.2,2.3-5.6c0.6-2.3,1.2-4.5,1.6-6.8c-1,0-2,0-3,0c-2.4,0-4.9-0.3-7.2-1
				c-0.8-0.2-1.6-0.5-2.4-0.8c-6.2-2.5-10.8-6.8-13.8-12.7l-7.9-3.8c-2.4,0-4.7-0.4-6.7-1.3c-0.8-0.4-1.6-0.9-2.4-1.4
				c-2.6-1.8-4.3-3.8-5.2-6c-0.8-2.2-1.2-3.6-1.2-4.2L230.7,40.9 M208.8,42.4L197.9,53c-4.2-2.8-7.7-6.3-10.3-10.5
				c-2.5-3.9-3-8-1.5-12.4c0.2-0.6,0.4-1.3,0.7-1.8c0.7-1.3,1.4-2.6,2.2-3.8L208.8,42.4 M292,113.3c-0.5-1-0.7-2.2-0.7-3.6
				c0-1.4,0.2-2.5,0.7-3.5c0.5-1,1.2-1.5,1.9-1.5c0.8,0,1.4,0.5,1.9,1.5c0.5,1,0.8,2.1,0.8,3.5c0,1.3-0.3,2.5-0.8,3.6
				c-0.5,1-1.2,1.4-1.9,1.4C293.2,114.7,292.5,114.3,292,113.3z"/>
		</g>
	</g>
</g>
<g transform="matrix( 1, 0, 0, 1, 0,0) ">
	<g>
		<g id="Symbol_3_0_Layer4_0_FILL">
			<path class="st6" d="M265.2,54.8c-0.2-0.3-0.3-0.7-0.5-1c0,0,0,0.1,0,0.2c-0.1,0.2-0.2,0.4-0.3,0.7c-0.4,1.1-0.9,2.3-1.3,3.6
				c-1.7,3.7-3.7,7.5-6,11.3c0,0.6,0.4,2,1.2,4.2c0.8,2.2,2.6,4.2,5.2,6c0.8,0.5,1.6,1,2.4,1.4c2,0.9,4.3,1.3,6.7,1.3
				C272.9,77.2,270.5,67.9,265.2,54.8 M298.2,35.5c-0.1-0.2-0.2-0.3-0.3-0.5c-0.6,2-1.3,4.3-2.1,6.9c-6.5,20.7-11.3,34.8-14.5,42.2
				c-0.3,0.8-0.6,1.5-0.9,2.2c3,6,7.6,10.2,13.8,12.7c0.8,0.3,1.6,0.6,2.4,0.8c2.4,0.7,4.8,1.1,7.2,1c1,0,2,0,3,0
				c1.3-7,1.9-15.4,1.9-25.1c0-13.3-2.8-25.4-8.5-36.3C299.8,38.2,299.1,36.8,298.2,35.5z"/>
		</g>
	</g>
</g>
<g transform="matrix( 1, 0, 0, 1, 0,0) ">
	<g>
		<g id="Symbol_3_0_Layer3_0_FILL">
			<path class="st3" d="M181.2,142c10.6,0.2,17.7-2.5,21.3-8.3c-16.9-0.5-33.9-1.7-50.9-3.6c-23-3.5-42-7.7-57-12.6
				c-30.2-9.9-45.3-26.4-45.3-49.6c0-10.9,1.8-20.6,5.4-29.1c2.2-5.2,5.3-10.2,9.1-15.2c0.4-0.5,0.9-0.9,1.3-1.3
				c3.6-3.4,7-6.6,10.3-9.6c-0.6,0-1.2,0.1-1.8,0.2c-3.1,0.3-6.2,0.8-9.2,1.5c-5.1,1.2-9.9,3-14.4,5.6
				c-12.3,6.9-21.6,16.7-27.9,29.3c-1,2-2,4.4-3.1,7.1l-2.8,10.3L0,137.9l15.8-31.2l16.4,33.8c-2.3,6.8-4.4,12.6-6.3,17.6
				c-0.8,1.9-0.9,3.8-0.5,5.8c0.5,2.3,1.9,3.7,4.4,4.2c0.8,0.2,1.6,0.3,2.5,0.4c2.6,0.2,5.3,0.2,8,0.2c2.2,0,4.5-0.1,6.9-0.2
				c3.7-0.2,6.9-1.5,9.7-3.8c1-0.8,1.9-1.8,2.7-2.9c0.8-1.1,1.5-2.4,2.1-3.8c2.2-5.4,4.4-10.9,6.5-16.3h59.7
				c-2.1,5.5-4.3,10.9-6.4,16.4c-0.8,1.9-0.9,3.8-0.5,5.8c0.5,2.3,1.9,3.7,4.4,4.2c0.8,0.2,1.6,0.3,2.5,0.4c5,0.2,10,0.2,14.8,0
				c3.7-0.2,7-1.5,9.7-3.7c1.1-0.9,2-1.9,2.8-3c0.8-1.2,1.5-2.4,2-3.8c2.2-5.5,4.4-10.9,6.5-16.4C164.2,141.6,170,141.7,181.2,142z"
				/>
			<path class="st4" d="M301.7,135.9l2.2-2.6c-6,1-11.6,1.3-16.6,1c-5.1-0.3-9.2-1.1-12.3-2.4c-3.1-1.3-5.4-2.6-6.9-4.1
				c-21.8,4.5-43.6,6.5-65.4,5.8c0.8,3.1,4.3,5.4,10.5,7c3.4,0.7,6.8,1,10.2,1h44.7c2.9,0.1,7.1,0.2,12.7,0.3
				C289.3,142.2,296.2,140.1,301.7,135.9 M283.3,138.7c0,0-0.1,0-0.1,0.1c0,0-0.1-0.1-0.1-0.1C283.2,138.7,283.3,138.7,283.3,138.7z
				"/>
			<path class="st7" d="M283.2,138.8c0-0.1,0.1-0.1,0.1-0.1c-0.1,0-0.1,0-0.2,0C283.2,138.7,283.2,138.8,283.2,138.8z"/>
			<path class="st8" d="M283.5,122.8c0.2,0,0.4,0.1,0.6,0.1c-1.2-0.2-2.5-0.5-3.8-0.7c-0.5-0.2-1.1-0.3-1.5-0.3
				c0.5,0.1,0.9,0.2,1.4,0.4c0.4,0.2,0.8,0.3,1.3,0.5C282.1,122.6,282.8,122.7,283.5,122.8 M297,123.2c0.4-0.6,0.8-1.3,1.2-1.8
				c0,0-0.1,0-0.1,0.1c-0.3,0.3-0.6,0.6-0.9,0.9c-0.4,0.3-0.8,0.5-1.1,0.8c-0.1,0-0.1,0.1-0.2,0.1
				C296.2,123.2,296.6,123.2,297,123.2z"/>
			<path class="st9" d="M265.9,81.3c2,0.9,4.3,1.3,6.7,1.3c0.3-5.4-2.1-14.7-7.3-27.7C267.8,65.7,268,74.6,265.9,81.3 M300.4,39.5
				c-0.6-1.3-1.4-2.7-2.2-4c5.7,23,5.1,44.4-1.5,64.4c2.4,0.7,4.8,1.1,7.2,1c1,0,2,0,3,0c1.3-7,1.9-15.4,1.9-25.1
				C308.9,62.6,306.1,50.5,300.4,39.5z"/>
			<path class="st6" d="M298,35.1c-0.6,2-1.3,4.3-2.1,6.9c-6.5,20.7-11.3,34.8-14.5,42.2c-0.3,0.8-0.6,1.5-0.9,2.2
				c3,6,7.6,10.2,13.8,12.7c0.8,0.3,1.6,0.6,2.4,0.8c6.7-19.9,7.2-41.4,1.5-64.4C298.2,35.4,298.1,35.2,298,35.1 M264.8,54
				c-0.1,0.2-0.2,0.4-0.3,0.7c-0.4,1.1-0.9,2.3-1.3,3.6c-1.7,3.7-3.7,7.5-6,11.3c0,0.6,0.4,2,1.2,4.2c0.8,2.2,2.6,4.2,5.2,6
				c0.8,0.5,1.6,1,2.4,1.4c2.2-6.8,2-15.6-0.6-26.5c-0.2-0.3-0.3-0.7-0.5-1C264.8,53.9,264.8,53.9,264.8,54z"/>
			<path class="st5" d="M234.6,21.5l-13.7,10.8c-2.5-2.3-6.8-6.1-13-11.5c-2.8-2.5-6-5-9.5-7.4c-13.3-10.9-28.3-13.9-44.9-9
				c-14,4-28.3,6.7-42.8,8H80.4c-1.6,0-3.2,0.1-4.9,0.2c-3.3,3-6.8,6.2-10.3,9.6c-0.5,0.4-0.9,0.9-1.3,1.3c-3.9,5-6.9,10-9.1,15.2
				c-3.6,8.5-5.4,18.2-5.4,29.1c0,23.2,15.1,39.7,45.3,49.6c14.9,4.9,33.9,9.1,57,12.6c17.1,1.9,34.1,3.1,50.9,3.6
				c0.1-0.2,0.2-0.3,0.2-0.5c0,0.2,0.1,0.3,0.1,0.5c21.8,0.6,43.6-1.3,65.4-5.8c-1.3-1.3-2.4-2.7-3.3-4.2c-0.8-1.1-1.4-2.3-2-3.6
				c4.2,0.7,8.4,1.3,12.7,1.8c1.9,0.2,3.8,0.5,5.8,0.7c-0.4-0.2-0.8-0.3-1.3-0.5c-0.5-0.2-0.9-0.3-1.4-0.4c0.5,0.1,1,0.2,1.5,0.3
				c1.3,0.3,2.6,0.5,3.8,0.7c3.9,0.3,7.8,0.5,11.7,0.4c0,0,0.1-0.1,0.2-0.1c0.4-0.3,0.8-0.5,1.1-0.8c0.3-0.3,0.6-0.6,0.9-0.9
				c0,0,0.1-0.1,0.1-0.1c-0.4,0.6-0.8,1.2-1.2,1.8c0.2,0,0.5-0.1,0.7-0.1c2.1,0,4-0.4,5.7-1.2c-0.2-1.5-0.5-3-0.9-4.6
				c-0.2-0.6-0.3-1.3-0.5-1.9c0.5-0.8,0.8-1.5,1.1-2.1c1.1-2.3,1.9-4.2,2.3-5.6c0.6-2.3,1.2-4.5,1.6-6.8c-1,0-2,0-3,0
				c-2.4,0-4.9-0.3-7.2-1c-0.8-0.2-1.6-0.5-2.4-0.8c-6.2-2.5-10.8-6.8-13.8-12.7l-7.9-3.8c-2.4,0-4.7-0.4-6.7-1.3
				c-0.8-0.4-1.6-0.9-2.4-1.4c-2.6-1.8-4.3-3.8-5.2-6c-0.8-2.2-1.2-3.6-1.2-4.2l-26.4-28.8c2.1-1.6,3.7-3.4,5-5.6
				c1-1.8,1.5-3.8,1.4-6C237,26.5,236.2,23.9,234.6,21.5 M197.9,53c-4.2-2.8-7.7-6.3-10.3-10.5c-2.5-3.9-3-8-1.5-12.4
				c0.2-0.6,0.4-1.3,0.7-1.8c0.7-1.3,1.4-2.6,2.2-3.8l19.8,17.9L197.9,53 M295.9,106.3c0.5,1,0.8,2.1,0.8,3.5c0,1.3-0.3,2.5-0.8,3.6
				c-0.5,1-1.2,1.4-1.9,1.4c-0.8,0-1.4-0.5-1.9-1.4c-0.5-1-0.7-2.2-0.7-3.6c0-1.4,0.2-2.5,0.7-3.5c0.5-1,1.2-1.5,1.9-1.5
				C294.7,104.8,295.4,105.3,295.9,106.3z"/>
			<path class="st2" d="M296.7,109.8c0-1.4-0.3-2.5-0.8-3.5c-0.5-1-1.2-1.5-1.9-1.5c-0.8,0-1.4,0.5-1.9,1.5c-0.5,1-0.7,2.1-0.7,3.5
				c0,1.3,0.2,2.5,0.7,3.6c0.5,1,1.2,1.4,1.9,1.4c0.8,0,1.4-0.5,1.9-1.4C296.4,112.3,296.7,111.1,296.7,109.8 M187.6,42.5
				c2.6,4.3,6.1,7.8,10.3,10.5l10.9-10.7L189,24.5c-0.8,1.2-1.5,2.5-2.2,3.8c-0.3,0.6-0.6,1.2-0.7,1.8
				C184.6,34.4,185.1,38.6,187.6,42.5z"/>
		</g>
	</g>
</g>
<g transform="matrix( 1, 0, 0, 1, 0,0) ">
	<g>
		<g id="Symbol_3_0_Layer1_0_FILL">
			<path class="st10" d="M235.3,84.5L235.3,84.5c-1.8,2.5-2.8,5.4-2.8,8.9c0,0.4,0.2,0.8,0.5,1.1c0.3,0.3,0.6,0.5,1,0.5
				c0.4,0,0.7-0.1,1-0.4c0.3-0.3,0.5-0.7,0.5-1.1c0.1-2.8,0.8-5.2,2.2-7.2c1.4-1.9,3-2.8,4.9-2.9c1.9,0,3.6,1,4.9,2.9
				c1.5,2,2.2,4.4,2.2,7.2c0,0.4,0.2,0.8,0.5,1.1c0.3,0.3,0.6,0.4,1.1,0.4c0.4,0,0.7-0.2,1-0.5c0.3-0.3,0.4-0.7,0.4-1.1
				c0-3.5-1-6.4-2.9-8.9c-2-2.8-4.5-4.1-7.3-4.1C239.8,80.4,237.3,81.7,235.3,84.5z"/>
		</g>
	</g>
</g>
<g transform="matrix( 1, 0, 0, 1, 0,0) ">
	<g>
		<g id="Symbol_3_0_Layer0_0_FILL">
			<path class="st11" d="M311.4,44.9C311.3,44.9,311.3,45,311.4,44.9c-0.2,0.3-0.5,0.5-0.7,0.7c-0.3,0.3-0.5,0.6-0.5,1
				c0,0.4,0.1,0.8,0.4,1.1c0.3,0.3,0.6,0.4,1,0.5c0.4,0,0.7-0.1,1.1-0.3c0.3-0.3,0.5-0.5,0.8-0.8c0,0,0-0.1,0.1-0.1
				c4.3-4.2,6.4-9.3,6.4-15.3c0-5.9-2.2-11.1-6.5-15.4c-4.2-4.2-9.3-6.3-15.3-6.3c-6,0-11.1,2.1-15.4,6.3c-4.2,4.4-6.4,9.5-6.4,15.4
				c0,6.1,2.1,11.2,6.4,15.4V47c0.9,1,1.9,1.8,2.9,2.5c0.3,0.2,0.7,0.3,1.1,0.2c0.4-0.1,0.8-0.3,1-0.6c0.2-0.4,0.3-0.8,0.2-1.1
				c-0.1-0.4-0.3-0.7-0.6-1c-0.9-0.6-1.7-1.3-2.5-2.1c-3.6-3.6-5.4-8-5.4-13.2c0-5.1,1.8-9.5,5.4-13.2l0.1-0.1
				c3.7-3.6,8.1-5.4,13.2-5.4c5.2,0,9.6,1.8,13.2,5.4c3.7,3.7,5.6,8.1,5.6,13.3C316.9,36.9,315.1,41.3,311.4,44.9 M309.9,31.3
				L309.9,31.3c-0.2-2.9-1.4-5.5-3.7-7.7c-2.2-2.2-4.9-3.3-8-3.3c-3.1,0-5.8,1.1-8.1,3.3c-2.2,2.3-3.3,5-3.3,8.1
				c0,2.4,0.7,4.6,2,6.5c0.2,0.3,0.5,0.5,0.9,0.6c0.4,0.1,0.8,0,1.1-0.2c0.3-0.3,0.6-0.6,0.6-1c0.1-0.4,0-0.7-0.3-1.1
				c-1-1.4-1.4-2.9-1.4-4.7c0-2.3,0.8-4.3,2.5-5.9l0.1-0.1c1.6-1.6,3.6-2.5,5.9-2.5c2.3,0,4.3,0.8,6,2.5c1.7,1.7,2.6,3.6,2.8,5.8
				c0.1,2.1-0.6,3.9-1.9,5.3c-0.3,0.3-0.4,0.6-0.4,1c0,0.4,0.2,0.8,0.5,1.1c0.3,0.3,0.6,0.4,1,0.4c0.4,0,0.8-0.2,1.1-0.5
				C309.2,36.8,310.1,34.3,309.9,31.3 M318.5,11.3L318.5,11.3c5.7,5.6,8.5,12.5,8.5,20.4c0,7.8-2.8,14.6-8.5,20.2
				c-1.7,1.6-3.4,3.1-5.3,4.2c-0.3,0.2-0.6,0.6-0.6,1c-0.1,0.4-0.1,0.7,0.2,1.1c0.2,0.4,0.6,0.6,1,0.7c0.4,0.1,0.7,0,1.1-0.2
				c2-1.3,3.9-2.9,5.7-4.7l0.1-0.1c6.3-6.2,9.4-13.6,9.4-22.3c0-8.7-3.2-16.3-9.5-22.5C314.4,3.1,306.9,0,298.2,0
				c-8.7,0-16.2,3.1-22.5,9.2c-6.2,6.3-9.3,13.8-9.3,22.5c0,8.7,3.1,16.1,9.3,22.3c2.1,2.1,4.4,3.9,6.8,5.3c0.3,0.2,0.7,0.2,1.1,0.2
				c0.4-0.1,0.7-0.3,0.9-0.7c0.2-0.3,0.2-0.7,0.1-1.1c-0.1-0.4-0.3-0.7-0.6-0.9c-2.2-1.3-4.3-2.9-6.2-4.8
				c-5.6-5.6-8.4-12.4-8.4-20.2c0-7.9,2.8-14.7,8.4-20.4l0.1-0.1c5.7-5.5,12.4-8.3,20.3-8.3C306.1,3,312.9,5.8,318.5,11.3z"/>
		</g>
	</g>
</g>
</svg>
