
<svg xmlns="http://www.w3.org/2000/svg" version="1.1" xmlns:xlink="http://www.w3.org/1999/xlink" preserveAspectRatio="none" x="0px" y="0px" width="251px" height="128px" viewBox="0 0 251 128">
<defs>
<g id="Layer0_0_FILL">
<path fill="#FFFFFF" stroke="none" d="
M 229.3 30.15
Q 228.55 28.6 227.65 27.15 227.55 26.95 227.45 26.8 226.75 29.05 225.85 32.05 218.45 55.75 214.8 64.3 214.4 65.15 214.1 65.95
L 208.05 63.05
Q 208.45 56.85 202.45 41.9 202.25 41.5 202.1 41.1 202.1 41.15 202.1 41.25 201.95 41.45 201.85 41.75 201.35 43 200.85 44.5 198.9 48.8 196.25 53.15
L 176.05 31.2
Q 178.45 29.4 179.85 26.95 181 24.85 181 22.4 180.9 19.15 179.05 16.45
L 168.6 24.75
Q 165.75 22.1 158.7 15.95 155.45 13.05 151.5 10.3 136.25 -2.15 117.25 3.45 101.2 8 84.6 9.55
L 61.35 9.55
Q 59.5 9.55 57.6 9.7 56.9 9.75 56.2 9.85 52.7 10.2 49.2 11 43.4 12.35 38.2 15.25 24.15 23.15 16.85 37.65 15.8 39.9 14.5 43.05
L 12.4 50.95 0 105.3 12.1 81.45 24.6 107.3
Q 21.9 115.05 19.8 120.7 18.9 122.85 19.35 125.15 19.9 127.8 22.7 128.35 23.6 128.55 24.6 128.65 27.55 128.85 30.65 128.85 33.2 128.8 35.9 128.65 40.1 128.4 43.3 125.75 44.5 124.85 45.35 123.5 45.95 122.75 46.45 121.8 50.25 128.65 58.2 128.65
L 67.35 128.65
Q 76.5 128.65 72.75 119.55
L 68.1 108.15 97.5 108.15
Q 95.05 114.4 92.65 120.7 91.75 122.85 92.25 125.15 92.8 127.8 95.65 128.35 96.55 128.55 97.5 128.65 103.25 128.95 108.85 128.65 113.05 128.4 116.25 125.8 117.5 124.85 118.35 123.55 119 122.65 119.45 121.65 123.3 128.65 131.3 128.65
L 140.45 128.65
Q 149.6 128.65 145.9 119.55
L 141.3 108.35
Q 150.9 107.75 154.55 102.05 154.65 101.85 154.75 101.65 154.75 101.85 154.8 102.05 155.7 105.55 162.8 107.35 166.7 108.15 170.6 108.15
L 204.7 108.15
Q 208.05 108.25 214.4 108.4 224 108.6 230.3 103.75
L 232.05 101.75
Q 225.1 102.85 219.35 102.5 213.55 102.1 209.95 100.7 206.4 99.2 204.7 97.55 203.3 96.1 202.15 94.4 201.3 93.1 200.65 91.65 205.45 92.45 210.35 93.05 212.55 93.3 214.8 93.6 215.6 93.6 216.4 93.7 216.6 93.75 216.9 93.75 221.35 94.15 225.85 94.05 226.25 94.05 226.65 94.05 226.95 94.05 227.2 94.05 229.6 94 231.55 93.1 231.3 91.45 230.85 89.55 230.65 88.85 230.45 88.1 230.95 87.1 231.3 86.5 232.6 83.85 233.05 82.25 233.8 79.65 234.3 77.05 235.8 69.05 235.8 57.9 235.8 42.7 229.3 30.15
M 190.75 64.5
Q 192.85 67.3 192.9 71.25 192.9 71.75 192.6 72.1 192.25 72.45 191.8 72.45 191.3 72.45 191 72.15 190.65 71.8 190.65 71.3 190.6 68.15 188.95 65.85 187.35 63.7 185.2 63.65 183.05 63.7 181.45 65.85 179.8 68.1 179.75 71.3 179.75 71.8 179.4 72.15 179.05 72.45 178.6 72.45 178.1 72.45 177.8 72.1 177.45 71.75 177.45 71.25 177.5 67.35 179.6 64.55
L 179.6 64.5
Q 181.9 61.35 185.2 61.4 188.4 61.35 190.75 64.5
M 225.85 81.1
Q 226.45 82.25 226.45 83.8 226.45 85.3 225.85 86.5 225.25 87.6 224.35 87.6 223.5 87.6 222.85 86.5 222.3 85.3 222.3 83.8 222.3 82.25 222.85 81.1 223.5 80 224.35 80 225.25 80 225.85 81.1
M 144.3 18.7
L 159.4 32.35 151.05 40.45
Q 146.2 37.35 143.15 32.4 140.35 27.95 142.05 23 142.25 22.25 142.6 21.6 143.4 20.1 144.3 18.7
M 237.65 14.05
Q 241.9 18.3 241.9 24.2 241.9 30.15 237.65 34.3 237.6 34.3 237.6 34.35 237.4 34.6 237.15 34.85 236.8 35.15 236.75 35.6 236.7 36.05 237.05 36.45 237.35 36.75 237.85 36.8 238.3 36.85 238.65 36.55 238.95 36.25 239.3 35.95
L 239.3 35.9
Q 244.25 31.15 244.25 24.2 244.25 17.45 239.3 12.45 234.5 7.6 227.6 7.6 220.75 7.6 215.9 12.45 211 17.45 211 24.2 211 31.15 215.9 35.95
L 215.9 35.9
Q 216.95 37 218.05 37.8 218.45 38.05 218.9 38 219.4 37.9 219.7 37.55 219.95 37.1 219.85 36.65 219.8 36.2 219.4 35.95 218.35 35.25 217.45 34.3 213.3 30.15 213.3 24.2 213.3 18.35 217.45 14.1
L 217.5 14.05
Q 221.75 9.9 227.6 9.9 233.5 9.9 237.65 14.05
M 227.65 17.75
Q 230.3 17.75 232.2 19.65 234.1 21.6 234.3 24.05 234.4 26.5 232.85 28.1 232.55 28.45 232.55 28.9 232.55 29.4 232.95 29.7 233.3 30 233.75 30 234.2 30 234.55 29.7 236.75 27.35 236.55 23.95
L 236.55 23.9
Q 236.35 20.6 233.8 18.05 231.25 15.5 227.65 15.5 224.05 15.5 221.5 18.05 218.95 20.65 218.95 24.2 218.95 27 220.45 29.15 220.7 29.5 221.15 29.6 221.65 29.7 222.05 29.4 222.45 29.1 222.5 28.6 222.6 28.2 222.3 27.8 221.2 26.2 221.2 24.2 221.2 21.6 223.1 19.7
L 223.15 19.65
Q 225 17.75 227.65 17.75
M 251.9 24.25
Q 251.9 14.25 244.65 7.05 237.6 0 227.65 0 217.65 0 210.5 7.05 203.4 14.25 203.4 24.25 203.4 34.15 210.5 41.3 212.95 43.75 215.65 45.35 216.05 45.55 216.5 45.5 217 45.35 217.25 44.95 217.45 44.55 217.35 44.05 217.25 43.6 216.85 43.4 214.3 41.9 212.05 39.7 205.7 33.25 205.7 24.25 205.7 15.2 212.05 8.7
L 212.1 8.65
Q 218.6 2.3 227.65 2.3 236.65 2.3 243.1 8.7
L 243.1 8.65
Q 249.55 15.15 249.55 24.25 249.55 33.25 243.1 39.7 241.15 41.6 239.05 42.95 238.65 43.2 238.6 43.7 238.45 44.1 238.7 44.5 238.95 44.95 239.45 45.05 239.9 45.1 240.3 44.9 242.6 43.4 244.65 41.3
L 244.7 41.3
Q 251.9 34.15 251.9 24.25 Z"/>
</g>
</defs>

<g transform="matrix( 1, 0, 0, 1, 0,0) ">
<use xlink:href="#Layer0_0_FILL"/>
</g>
</svg>
