<?xml version="1.0" encoding="utf-8"?>
<!-- Generator: Adobe Illustrator 16.2.0, SVG Export Plug-In . SVG Version: 6.00 Build 0)  -->
<!DOCTYPE svg PUBLIC "-//W3C//DTD SVG 1.1//EN" "http://www.w3.org/Graphics/SVG/1.1/DTD/svg11.dtd">
<svg version="1.1" id="Layer_1" xmlns="http://www.w3.org/2000/svg" xmlns:xlink="http://www.w3.org/1999/xlink" x="0px" y="0px"
	 width="20px" height="19px" viewBox="0 0 20 19" style="enable-background:new 0 0 20 19;" xml:space="preserve">
<style type="text/css">
<![CDATA[
	.st0{fill:#58595B;}
]]>
</style>
<path class="st0" d="M18.5,11h-17C0.67,11,0,10.33,0,9.5S0.67,8,1.5,8h17C19.33,8,20,8.67,20,9.5S19.33,11,18.5,11z M18.5,3h-17
	C0.67,3,0,2.33,0,1.5S0.67,0,1.5,0h17C19.33,0,20,0.67,20,1.5S19.33,3,18.5,3z M1.5,16h17c0.83,0,1.5,0.67,1.5,1.5S19.33,19,18.5,19
	h-17C0.67,19,0,18.33,0,17.5S0.67,16,1.5,16z"/>
</svg>
