<?xml version="1.0" encoding="utf-8"?>
<svg xmlns="http://www.w3.org/2000/svg"
	xmlns:xlink="http://www.w3.org/1999/xlink"
	width="13px" height="16px">
<path fill="rgb(165,165,165)" fill-rule="evenodd" d="M 6.43 15.38C 6.32 15.47 6.19 15.52 6.05 15.52 5.91 15.52 5.77 15.47 5.67 15.38 4.35 14.21 0.01 10.05 0.01 5.89 0.01 2.63 2.71-0 6.05-0 9.38-0 12.09 2.63 12.09 5.89 12.09 10.05 7.75 14.21 6.43 15.38ZM 4.04 5.82C 4.04 4.74 4.94 3.88 6.05 3.88 7.16 3.88 8.06 4.74 8.06 5.82 8.06 6.89 7.16 7.76 6.05 7.76 4.94 7.76 4.04 6.89 4.04 5.82Z"/>
</svg>