<?xml version="1.0" encoding="utf-8"?>
<!-- Generator: Adobe Illustrator 19.2.1, SVG Export Plug-In . SVG Version: 6.00 Build 0)  -->
<!DOCTYPE svg PUBLIC "-//W3C//DTD SVG 1.1//EN" "http://www.w3.org/Graphics/SVG/1.1/DTD/svg11.dtd">
<svg version="1.1" id="Layer_1" xmlns="http://www.w3.org/2000/svg" xmlns:xlink="http://www.w3.org/1999/xlink" x="0px" y="0px"
	 viewBox="0 0 53.3 54.2" style="enable-background:new 0 0 53.3 54.2;" xml:space="preserve">
<style type="text/css">
	.publish .st0{fill:#FFFFFF;}
	.publish .frame{fill:#00BC64;}
</style>
<g transform="matrix( 1, 0, 0, 1, 0,0) ">
	<g class="publish">
		<g id="Layer0_0_FILL">
			<path class="st0" d="M22.9,17.1c-0.8-0.8-1.7-0.8-2.6,0.2L0,36.8c0.1,0.4,0.2,0.7,0.3,1.1c1,3.7,3,7,5.8,9.9c3.1,3,6.6,5,10.5,6
				c0.5,0.1,1,0.3,1.5,0.4l19.8-18.7c0.9-0.9,0.9-1.9,0-2.8L22.9,17.1 M9.3,46c-0.3-0.1-0.5-0.2-0.7-0.5c-0.2-0.2-0.2-0.5-0.2-0.8
				c0.1-0.3,0.2-0.5,0.4-0.7c0.3-0.2,0.6-0.2,0.9-0.2c0.3,0.1,0.5,0.2,0.6,0.5c0.2,0.3,0.3,0.5,0.2,0.8c-0.1,0.3-0.2,0.5-0.5,0.7
				C9.8,46,9.6,46,9.3,46 M18.6,48.9L6,35.9l14.9-14.2l12.4,12.9L18.6,48.9 M26.9,17.8c0,0.3,0.2,0.5,0.4,0.6
				c0.2,0.2,0.5,0.2,0.8,0.2c0.3,0,0.5-0.2,0.6-0.4c0.1-0.1,0.1-0.2,0.2-0.2c1.2-1.2,2.7-1.8,4.4-1.8c1.7,0,3.2,0.6,4.4,1.8
				c1.2,1.2,1.8,2.7,1.8,4.4s-0.6,3.2-1.8,4.4c-0.1,0.1-0.2,0.2-0.3,0.4c-0.2,0.2-0.2,0.5-0.1,0.8c0,0.3,0.2,0.5,0.4,0.6
				c0.2,0.1,0.5,0.2,0.8,0.2c0.3-0.1,0.5-0.2,0.7-0.5c0,0,0-0.1,0-0.1c1.6-1.6,2.4-3.5,2.4-5.8s-0.8-4.2-2.4-5.8s-3.5-2.4-5.8-2.4
				c-2.3,0-4.2,0.8-5.8,2.4c-0.1,0.1-0.3,0.3-0.4,0.5C26.9,17.2,26.8,17.5,26.9,17.8 M42.6,13.7c2.3,2.6,3.4,5.6,3.3,9.1
				c-0.1,3.5-1.5,6.5-4,8.9c-0.4,0.3-0.8,0.7-1.2,1c-0.2,0.2-0.3,0.4-0.3,0.6c0,0.3,0,0.5,0.2,0.8c0.2,0.2,0.4,0.3,0.6,0.4
				c0.3,0,0.5,0,0.8-0.2c0.4-0.4,0.8-0.7,1.2-1.1c2.9-2.8,4.5-6.2,4.6-10.2c0.1-4.1-1.2-7.6-3.9-10.6c-2.8-3-6.2-4.6-10.3-4.7
				c-4.1-0.1-7.6,1.2-10.5,3.9h-0.1c-0.3,0.3-0.9,0.9-1.7,1.6c-0.2,0.2-0.3,0.4-0.3,0.7c0,0.3,0.1,0.5,0.3,0.7
				c0.2,0.2,0.4,0.3,0.7,0.3c0.3,0,0.5-0.1,0.7-0.2c0.8-0.8,1.3-1.3,1.7-1.6V13c2.6-2.4,5.6-3.5,9.2-3.3
				C37.2,9.7,40.2,11.1,42.6,13.7 M41.9,6.4c1.5,0.8,2.8,1.8,4.1,3.1c3.5,3.5,5.3,7.8,5.3,12.8c0,5-1.8,9.3-5.3,12.8
				c-3,3-6.5,4.7-10.5,5.1c-0.3,0-0.5,0.2-0.7,0.4c-0.2,0.2-0.3,0.4-0.2,0.7c0,0.3,0.2,0.5,0.4,0.7c0.2,0.2,0.4,0.2,0.7,0.2
				c4.5-0.5,8.4-2.4,11.8-5.8c3.9-3.9,5.9-8.6,5.9-14.2c0-5.6-2-10.3-5.9-14.2c-0.6-0.6-1.3-1.2-2-1.7C42,3.7,37.9,2.3,33.3,2.3
				c-4.7,0-8.8,1.4-12.2,4.1c-0.7,0.5-1.3,1.1-1.9,1.7c-2.4,2.4-4.1,5.2-5,8.4c-0.1,0.2,0,0.5,0.1,0.8c0.1,0.2,0.3,0.4,0.6,0.5
				c0.2,0.1,0.5,0,0.8-0.1c0.2-0.2,0.4-0.4,0.4-0.6c0.8-2.8,2.3-5.3,4.5-7.5c1.3-1.3,2.7-2.3,4.2-3.1c2.6-1.4,5.4-2.1,8.6-2.1
				C36.5,4.3,39.3,5,41.9,6.4z"/>
			<path class="frame" d="M33.3,4.3c-3.2,0-6,0.7-8.6,2.1h17.2C39.3,5,36.5,4.3,33.3,4.3 M45.5,6.4h4.1c-0.7-0.6-1.5-1.2-2.2-1.8
				c-5.3-3.7-11-5.2-17.1-4.4c-2.7,0.2-5.3,0.9-7.7,2.1c-1.5,0.7-3,1.6-4.3,2.7c-0.9,0.7-1.8,1.5-2.7,2.3c1.7-0.5,3.6-0.8,5.5-0.9
				c3.5-2.8,7.6-4.1,12.2-4.1C37.9,2.3,42,3.7,45.5,6.4z"/>
		</g>
	</g>
</g>
</svg>
