<?xml version="1.0" encoding="utf-8"?>
<!-- Generator: Adobe Illustrator 19.2.1, SVG Export Plug-In . SVG Version: 6.00 Build 0)  -->
<!DOCTYPE svg PUBLIC "-//W3C//DTD SVG 1.1//EN" "http://www.w3.org/Graphics/SVG/1.1/DTD/svg11.dtd">
<svg version="1.1" id="Layer_1" xmlns="http://www.w3.org/2000/svg" xmlns:xlink="http://www.w3.org/1999/xlink" x="0px" y="0px"
	 viewBox="0 0 56.3 57" style="enable-background:new 0 0 56.3 57;" xml:space="preserve">
<style type="text/css">
	.publish-pressed .st0{fill:#FFFFFF;}
	.publish-pressed .frame{fill:#019D54;}
</style>
<g transform="matrix( 1, 0, 0, 1, 0,0) ">
	<g class="publish-pressed">
		<g id="Layer0_0_FILL">
			<path class="st0" d="M22.9,19.8C22.1,19,21.2,19,20.2,20L0,39.6c0.1,0.4,0.2,0.7,0.3,1.1c1,3.7,3,7,5.8,9.9c3.1,3,6.6,5,10.5,6
				c0.5,0.1,1,0.3,1.5,0.4l19.8-18.7c0.9-0.9,0.9-1.9,0-2.8L22.9,19.8 M10.1,48.6c-0.3,0.2-0.5,0.2-0.8,0.2
				c-0.3-0.1-0.5-0.2-0.7-0.5c-0.2-0.2-0.2-0.5-0.2-0.8c0.1-0.3,0.2-0.5,0.4-0.7c0.3-0.2,0.6-0.2,0.9-0.2c0.3,0.1,0.5,0.2,0.6,0.5
				c0.2,0.3,0.3,0.5,0.2,0.8C10.6,48.2,10.4,48.4,10.1,48.6 M6,38.7l14.9-14.2l12.4,12.9L18.6,51.6L6,38.7 M28,20L28,20
				c1.5-1.5,3.2-2.2,5.2-2.2c2.1,0,3.8,0.7,5.3,2.2c1.4,1.4,2.2,3.2,2.2,5.2c0,2.1-0.7,3.9-2.2,5.3c-0.2,0.2-0.5,0.4-0.7,0.7
				c-0.2,0.2-0.3,0.4-0.3,0.7c0,0.3,0,0.5,0.2,0.7c0.2,0.2,0.4,0.3,0.7,0.4c0.3,0,0.5-0.1,0.7-0.2c0.3-0.2,0.6-0.5,0.8-0.8
				c1.8-1.8,2.8-4.1,2.8-6.7c0-2.6-0.9-4.8-2.8-6.6h0c-1.8-1.9-4.1-2.8-6.8-2.8c-2.6,0-4.9,0.9-6.7,2.8c-0.3,0.3-0.5,0.5-0.7,0.9
				c-0.2,0.2-0.2,0.4-0.1,0.8c0,0.2,0.2,0.4,0.4,0.6c0.2,0.2,0.5,0.2,0.8,0.2c0.3-0.1,0.5-0.2,0.6-0.4C27.6,20.4,27.8,20.2,28,20
				 M48.2,25.3c0,4.1-1.5,7.7-4.4,10.5C42,37.7,40,39,37.7,39.7c-0.3,0.1-0.5,0.2-0.5,0.5C37,40.4,37,40.6,37,40.9
				c0.1,0.3,0.2,0.5,0.5,0.6c0.2,0.1,0.5,0.1,0.8,0c2.6-0.8,4.9-2.2,7-4.3h0c3.3-3.3,5-7.3,5-12c0-4.7-1.7-8.7-5-12
				c-1.9-1.9-4.1-3.3-6.5-4.1c-1.7-0.6-3.6-0.8-5.5-0.8s-3.8,0.3-5.5,0.8c-2.4,0.8-4.6,2.2-6.5,4.1c-1.7,1.7-3,3.6-3.8,5.7
				c-0.1,0.2-0.1,0.5,0,0.8c0.1,0.3,0.3,0.4,0.5,0.5c0.2,0.1,0.5,0.1,0.8,0c0.3-0.1,0.4-0.3,0.5-0.5c0.7-1.9,1.8-3.6,3.3-5.1
				c2.9-2.9,6.5-4.3,10.6-4.3s7.7,1.4,10.6,4.3C46.8,17.6,48.2,21.1,48.2,25.3 M47,9.2c0.4,0.3,0.8,0.7,1.2,1.1
				c4.1,4.1,6.2,9.1,6.2,15c0,5.8-2.1,10.8-6.2,14.9c-4.1,4.1-9.1,6.2-15,6.2c-0.7,0-1.3,0-2,0c-0.3,0-0.5,0.1-0.7,0.2
				c-0.2,0.2-0.3,0.4-0.3,0.7c0,0.3,0.1,0.5,0.2,0.8c0.2,0.2,0.4,0.3,0.7,0.3c0.6,0,1.3,0,2.1,0c6.4,0,11.8-2.3,16.3-6.8
				c4.5-4.5,6.8-9.9,6.8-16.3c0-6.3-2.2-11.6-6.5-16.1c-0.1-0.1-0.2-0.2-0.3-0.3C45,4.4,39.6,2.1,33.2,2.1c-6.4,0-11.8,2.2-16.4,6.8
				c-0.3,0.3-0.7,0.7-1,1c-3.9,4.3-5.8,9.4-5.8,15.4c0,0.3,0.1,0.5,0.3,0.7c0.2,0.2,0.4,0.3,0.7,0.3c0.3,0,0.5-0.1,0.7-0.3
				c0.2-0.2,0.3-0.4,0.3-0.7c0-5.9,2.1-10.9,6.1-15c0.3-0.3,0.7-0.7,1-0.9c3.9-3.5,8.5-5.2,13.9-5.2C38.5,4.1,43.1,5.8,47,9.2z"/>
			<path class="frame" d="M33.2,8.3c1.9,0,3.8,0.3,5.5,0.8H47c-3.9-3.4-8.5-5-13.8-5c-5.4,0-10,1.7-13.9,5.2c0.9-0.1,1.8-0.2,2.8-0.2
				h5.6C29.5,8.6,31.3,8.3,33.2,8.3 M49.5,8.9c0.1,0.1,0.2,0.2,0.3,0.3h3.4c-0.4-0.5-0.9-1-1.4-1.5C46.7,2.6,40.5,0,33.2,0
				S19.8,2.6,14.6,7.7c-1.2,1.2-2.2,2.5-3.1,3.8c1.4-0.7,2.9-1.2,4.4-1.6c0.3-0.4,0.6-0.7,1-1c4.5-4.5,10-6.8,16.4-6.8
				C39.6,2.1,45,4.4,49.5,8.9z"/>
		</g>
	</g>
</g>
</svg>
