<?xml version="1.0" encoding="utf-8"?>
<!-- Generator: Adobe Illustrator 19.2.1, SVG Export Plug-In . SVG Version: 6.00 Build 0)  -->
<!DOCTYPE svg PUBLIC "-//W3C//DTD SVG 1.1//EN" "http://www.w3.org/Graphics/SVG/1.1/DTD/svg11.dtd">
<svg version="1.1" id="Layer_1" xmlns="http://www.w3.org/2000/svg" xmlns:xlink="http://www.w3.org/1999/xlink" x="0px" y="0px"
	 viewBox="0 0 30 29" style="enable-background:new 0 0 30 29;" xml:space="preserve">
<style type="text/css">
	.reset .st0{fill:#19C26B;}
</style>
<g transform="matrix( 1, 0, 0, 1, 0,0) ">
	<g class="reset">
		<g id="Layer0_0_FILL">
			<path class="st0" d="M11.4,12.3c0.6-0.9,1.5-1.4,2.5-1.6c1.1-0.2,2.1,0.1,2.9,0.8h0.1c0.3,0.2,0.6,0.5,0.8,0.9l-1.1,0.8l3.7,2
				l-0.5-4.2l-1,0.6c-0.4-0.5-0.8-0.9-1.1-1.1h0c-1.2-0.9-2.5-1.2-4-1c-1.4,0.2-2.6,0.9-3.4,2v0c-0.9,1.2-1.2,2.4-1.1,3.9
				c0.2,1.5,0.9,2.7,2.1,3.5c1.2,0.9,2.5,1.2,3.9,1c1.3-0.2,2.3-0.7,3.1-1.6v0l0.5-0.5l0.2-0.4c0.1-0.2,0.1-0.3,0.1-0.5
				c0-0.2-0.1-0.3-0.3-0.4c-0.1-0.1-0.2-0.1-0.5-0.1l-0.5,0.2L17.5,17l-0.3,0.3c-0.6,0.7-1.4,1.1-2.3,1.1c-1,0.1-2-0.1-2.8-0.7
				c-0.9-0.7-1.4-1.6-1.5-2.6C10.4,14,10.6,13.1,11.4,12.3L11.4,12.3 M22.9,13.6l-1.3,0.2l2.4,3.5l1.6-3.9l-1.2,0.1
				c-0.1-1-0.4-2.1-1-3.3c-1.1-2.4-3-4.1-5.6-4.9c-2.5-0.9-5-0.8-7.5,0.4c-2.4,1.2-4.1,3.1-5,5.6c-0.9,2.6-0.8,5.1,0.4,7.6
				c1.2,2.4,3.1,4.1,5.6,5c2.4,0.9,4.7,0.8,6.9-0.2l0.6-0.2c0.9-0.4,1.6-0.9,2.1-1.4l0.1,0l0.5-0.6c0.1-0.1,0.2-0.3,0.2-0.5
				c0-0.1-0.1-0.3-0.2-0.5c-0.1-0.1-0.3-0.2-0.5-0.2c-0.2,0-0.4,0.1-0.5,0.2l-0.4,0.5c-0.6,0.5-1.3,0.9-2,1.2l-0.4,0.1h0
				c-2,0.9-4,1-6.1,0.2c-2.1-0.8-3.7-2.2-4.8-4.4c-1.1-2.1-1.2-4.2-0.4-6.4c0.7-2.2,2.2-3.8,4.3-4.8s4.3-1.1,6.5-0.4
				c2.2,0.7,3.8,2.1,4.8,4.2C22.5,11.6,22.8,12.6,22.9,13.6 M28.8,12.4c-0.6-4-2.5-7.2-5.8-9.5c-3.2-2.4-6.8-3.2-10.8-2.6
				C8.3,0.8,5.2,2.7,2.8,5.9c-2.3,3.3-3.2,6.9-2.7,10.8c0.6,3.9,2.5,7.1,5.8,9.4c3.1,2.3,6.5,3.2,10.2,2.9h0.1l0-0.1l0.4,0v-0.1
				c1.6-0.3,3.1-0.7,4.4-1.3v-0.1c0.3-0.1,0.5-0.2,0.8-0.4c0.2-0.1,0.3-0.2,0.4-0.4c0-0.2,0-0.4-0.1-0.6c-0.1-0.1-0.2-0.2-0.4-0.3
				c-0.2,0-0.4,0-0.5,0.1l-0.7,0.4h0.1c-1.2,0.6-2.6,1-4.1,1.2h0.1L16,27.6c-3.4,0.4-6.4-0.5-9.2-2.5c-2.9-2.1-4.6-4.9-5.2-8.5v0
				C1,12.9,1.8,9.7,4,6.8c2.1-2.9,5-4.6,8.6-5.2C16.1,1,19.3,1.8,22.2,4c3,2.2,4.7,5,5.2,8.6c0.3,1.5,0.3,2.9,0,4.3L26,16.7l1.2,4.1
				l2.7-3.4l-1.2-0.2C29.1,15.6,29.1,14,28.8,12.4z"/>
		</g>
	</g>
</g>
</svg>
