<?xml version="1.0" encoding="utf-8"?>
<!-- Generator: Adobe Illustrator 19.2.1, SVG Export Plug-In . SVG Version: 6.00 Build 0)  -->
<!DOCTYPE svg PUBLIC "-//W3C//DTD SVG 1.1//EN" "http://www.w3.org/Graphics/SVG/1.1/DTD/svg11.dtd">
<svg version="1.1" id="Layer_1" xmlns="http://www.w3.org/2000/svg" xmlns:xlink="http://www.w3.org/1999/xlink" x="0px" y="0px"
	 viewBox="0 0 29 29.5" style="enable-background:new 0 0 29 29.5;" xml:space="preserve">
<style type="text/css">
	.reset-pressed .st0{fill:#019D54;}
</style>
<g transform="matrix( 1, 0, 0, 1, 0,0) ">
	<g class="reset-pressed">
		<g id="Layer0_0_FILL">
			<path class="st0" d="M12,11.6L12,11.6c0.9-0.7,1.9-0.9,2.9-0.7c1.1,0.2,2,0.7,2.6,1.6h0c0.2,0.3,0.4,0.7,0.5,1.1l-1.3,0.4
				l2.9,3.1l0.9-4.2l-1.1,0.3c-0.2-0.6-0.5-1.1-0.8-1.5h0c-0.9-1.2-2-1.9-3.5-2.1c-1.4-0.2-2.7,0.1-3.9,0.9v0
				c-1.2,0.8-1.9,1.9-2.1,3.4c-0.3,1.5,0,2.8,0.8,4c0.9,1.2,2.1,1.9,3.4,2.1c1.3,0.2,2.4,0,3.5-0.6v0l0.6-0.3l0.3-0.4
				c0.1-0.1,0.2-0.2,0.2-0.4c0-0.2,0-0.3-0.2-0.5c0-0.1-0.2-0.2-0.4-0.3l-0.6,0.1L16.5,18l-0.3,0.1c-0.8,0.4-1.7,0.6-2.6,0.4
				c-1.1-0.2-1.9-0.7-2.5-1.5c-0.6-0.9-0.8-1.9-0.6-3C10.6,13,11.1,12.2,12,11.6 M28.8,16.6c0.6-3.9-0.2-7.5-2.6-10.8
				c-2.4-3.2-5.5-5.1-9.4-5.7c-4-0.6-7.6,0.3-10.8,2.6c-3.2,2.4-5.1,5.5-5.7,9.4c-0.6,3.8,0.2,7.3,2.2,10.4v0h0.1L2.8,23v0
				c1,1.4,2.1,2.5,3.2,3.3l0.1,0c0.2,0.2,0.5,0.4,0.7,0.5c0.2,0.1,0.3,0.1,0.5,0.1c0.2,0,0.3-0.2,0.4-0.4c0.1-0.2,0.2-0.3,0.2-0.5
				c-0.1-0.2-0.2-0.3-0.4-0.5l-0.6-0.4v0c-1.1-0.8-2.1-1.8-3-3v0.1l-0.2-0.4c-1.9-2.8-2.5-6-2-9.4c0.5-3.5,2.2-6.4,5.1-8.6
				c2.9-2.1,6.2-2.9,9.8-2.3C20,2.1,22.8,3.9,25,6.8s3,6.1,2.4,9.6c-0.6,3.6-2.3,6.5-5.2,8.6c-1.2,0.9-2.5,1.6-3.9,2l-0.4-1.3
				l-3,2.9l4.2,0.9l-0.4-1.1c1.5-0.5,2.9-1.2,4.2-2.2C26.3,23.8,28.2,20.6,28.8,16.6 M22,20.5c0.7-0.8,1.2-1.8,1.6-3
				c0.8-2.5,0.6-5-0.6-7.5c-1.2-2.4-3.1-4-5.7-4.9c-2.6-0.8-5.1-0.6-7.4,0.6c-2.5,1.2-4.1,3.1-4.9,5.7c-0.8,2.6-0.6,5.1,0.6,7.5
				c1.1,2.3,2.8,3.8,5.2,4.6l0.6,0.2c1,0.3,1.8,0.5,2.4,0.5l0.2,0.1l0.8-0.1c0.2,0,0.4-0.1,0.5-0.1c0.1-0.1,0.1-0.3,0.2-0.6
				c0-0.2-0.1-0.3-0.2-0.4c-0.1-0.2-0.3-0.2-0.5-0.2L13.9,23c-0.8-0.1-1.6-0.3-2.3-0.5l-0.3-0.2l-0.1,0c-2-0.7-3.6-2.1-4.6-4
				c-1-2.1-1.2-4.2-0.4-6.5c0.6-2.2,2-3.9,4.1-4.9c2-1.1,4.2-1.3,6.5-0.6c2.2,0.7,3.9,2.1,4.9,4.2c1.1,2.1,1.3,4.2,0.5,6.4
				c-0.3,1-0.8,1.9-1.3,2.6l-1.1-0.8L19.1,23l3.9-1.8L22,20.5z"/>
		</g>
	</g>
</g>
</svg>
