<?xml version="1.0" encoding="utf-8"?>
<!-- Generator: Adobe Illustrator 19.2.1, SVG Export Plug-In . SVG Version: 6.00 Build 0)  -->
<!DOCTYPE svg PUBLIC "-//W3C//DTD SVG 1.1//EN" "http://www.w3.org/Graphics/SVG/1.1/DTD/svg11.dtd">
<svg version="1.1" id="Layer_1" xmlns="http://www.w3.org/2000/svg" xmlns:xlink="http://www.w3.org/1999/xlink" x="0px" y="0px"
	 viewBox="0 0 61 60.7" style="enable-background:new 0 0 61 60.7;" xml:space="preserve">
<style type="text/css">
	.share-pressed .st0{fill:#FFFFFF;}
	.share-pressed .frame{fill:#019D54;}
</style>
<g transform="matrix( 1, 0, 0, 1, 0,0) ">
	<g class="share-pressed">
		<g id="Layer0_0_FILL">
			<path class="st0" d="M7.9,46.2c-0.5,0.5-0.8,1.2-0.8,1.9c0,0.8,0.2,1.4,0.8,2c0.5,0.5,1.2,0.7,2,0.7c0.1,0,0.3,0,0.4,0l2.1,2.2
				l-3.3,3.3c3.8,2.9,8.2,4.3,13.2,4.3H32l0.8-0.9l-3.6-3.5l2.2-2.2c0.2,0,0.3,0,0.5,0c0.8,0,1.4-0.3,1.9-0.8c0.5-0.5,0.8-1.2,0.9-2
				c0-0.7-0.3-1.4-0.8-1.9c-0.5-0.5-1.2-0.8-2-0.8c-0.8,0-1.4,0.3-2,0.8c-0.5,0.5-0.8,1.2-0.8,1.9c0,0.2,0,0.3,0,0.5L27,54l-7.8-7.8
				l-4.5,4.5l-2.1-2.2c0-0.1-0.1-0.3-0.1-0.5c0-0.7-0.3-1.3-0.8-1.8c-0.5-0.6-1.2-0.8-1.9-0.8C9.1,45.4,8.5,45.7,7.9,46.2 M14.4,37
				c0.1,0,0.3,0,0.4,0c0.8,0,1.4-0.2,1.9-0.8s0.8-1.2,0.8-2c0-0.7-0.2-1.4-0.8-1.9c-0.5-0.5-1.2-0.8-1.9-0.8c-0.8,0-1.4,0.3-1.9,0.8
				c-0.5,0.5-0.8,1.2-0.8,1.9c0,0.1,0,0.3,0,0.5l-2.2,2.1l-6.4-6.4l-3,3C0.2,35,0,36.6,0,38.3c0,6.2,2.2,11.5,6.6,15.8
				c0.1,0.1,0.2,0.2,0.2,0.2l0.9-0.9c-0.7-0.3-1.3-0.7-1.9-1.2c-1.1-1.1-1.7-2.5-1.7-4c0-1.6,0.6-2.9,1.8-4.1
				c1.1-1.1,2.3-1.6,3.8-1.6c0,0,0,0,0.1,0c1.6,0,2.9,0.6,4.1,1.7c0.6,0.6,1,1.2,1.3,1.8l1.9-2l-4.9-4.9L14.4,37 M10.8,30.1
				c1.1-1.1,2.4-1.7,4-1.7c1.6,0,2.9,0.6,4,1.7c1.1,1.1,1.7,2.5,1.7,4c0,1.6-0.6,3-1.6,4c-0.5,0.5-1,0.9-1.6,1.2
				c-0.2,0.1-0.4,0.1-0.5,0.2l2.5,2.5l6.1-6.2l2.5,2.5c0,0.1,0,0.3,0,0.4c0,0.8,0.2,1.5,0.8,2c0.5,0.6,1.2,0.8,2,0.8
				c0.7,0,1.4-0.2,1.9-0.8c0.5-0.6,0.8-1.2,0.8-1.9c0-0.7-0.3-1.4-0.8-2c-0.5-0.5-1.1-0.8-1.9-0.8c-0.1,0-0.3,0-0.4,0l-2.4-2.5
				l4.2-4.2L21.2,18.5c-1.9-1.9-3.8-1.9-5.7-0.1l-9.9,9.9l3.8,3.8c0.1-0.1,0.1-0.3,0.2-0.4C10,31.1,10.3,30.5,10.8,30.1 M44.9,47.8
				c1.9-1.9,1.8-3.8-0.1-5.7L34.1,31.4l-1.8,1.7c0.8,0.2,1.5,0.7,2.1,1.3c1.1,1.1,1.7,2.5,1.8,4.1c-0.1,1.3-0.5,2.5-1.2,3.4
				c-0.2,0.3-0.4,0.6-0.6,0.8c-0.9,0.9-1.9,1.4-3.1,1.5l-0.1-0.1c-0.2,0-0.5,0.1-0.6,0.1c-1.6,0-3-0.6-4.1-1.7
				c-0.6-0.6-1.1-1.3-1.4-2l-3.6,3.6l5.2,5.2c0.2-0.8,0.7-1.5,1.4-2.1c1.1-1.1,2.4-1.7,4-1.8c1.6,0,2.9,0.6,4,1.7
				c1.1,1.1,1.7,2.5,1.7,4c0,1.6-0.6,3-1.7,4.1c-0.7,0.6-1.4,1.1-2.1,1.3l1,1.1L44.9,47.8 M41.3,22.8L41.3,22.8
				c1.7,1.7,2.6,3.9,2.6,6.4c0,2.1-0.6,4-1.9,5.6c-0.2,0.3-0.3,0.6-0.3,0.9s0.2,0.6,0.5,0.9c0.3,0.2,0.6,0.3,0.9,0.2
				c0.3,0,0.6-0.2,0.8-0.5c1.6-2,2.4-4.4,2.4-7.1c0-3.2-1.1-5.9-3.3-8.1c-2.2-2.2-4.9-3.3-8.1-3.3c-2.7,0-5.1,0.8-7.1,2.4
				c-0.3,0.2-0.5,0.5-0.5,0.8c0,0.3,0.1,0.6,0.3,0.9c0.2,0.3,0.5,0.4,0.8,0.5c0.3,0,0.6,0,1-0.2c1.6-1.3,3.4-1.9,5.5-1.9
				C37.5,20.2,39.6,21.1,41.3,22.8 M48.4,15.6c-0.9-0.9-1.9-1.7-2.9-2.4c-3.1-2.1-6.6-3.1-10.5-3.1s-7.5,1-10.6,3.1
				c-0.7,0.5-1.3,1-1.9,1.5C22.2,15,22,15.3,22,15.6c0,0.3,0.1,0.6,0.3,0.9c0.2,0.2,0.5,0.4,0.9,0.4c0.3,0,0.7-0.1,1-0.3
				c1.9-1.6,4-2.8,6.2-3.4c1.5-0.4,3-0.6,4.6-0.6c1.6,0,3.2,0.2,4.6,0.6c2.6,0.7,5,2.1,7.1,4.1c3.2,3.2,4.8,7.2,4.8,11.8
				c0,4.2-1.4,7.8-4,10.8c-0.2,0.3-0.4,0.6-0.4,0.9c0,0.3,0.2,0.6,0.5,0.9c0.2,0.2,0.5,0.3,0.9,0.3c0.3,0,0.6-0.1,0.9-0.4
				C52.4,38.2,54,34,54,29.2C54,23.8,52.1,19.3,48.4,15.6 M51.7,12.5c0.2,0.2,0.5,0.5,0.8,0.8c4.1,4.5,6.1,9.8,6.1,16
				s-2,11.4-6,15.8l0.1,0c-0.3,0.3-0.6,0.6-0.9,0.9h-0.1c-1.2,1.2-2.5,2.3-3.8,3.2c-0.3,0.2-0.5,0.5-0.5,0.8c-0.1,0.3,0,0.7,0.2,1
				c0.2,0.3,0.5,0.5,0.8,0.5c0.3,0.1,0.6,0,1-0.2c1.5-1,2.9-2.1,4.2-3.5c0.3-0.3,0.5-0.6,0.8-0.8c0,0,0.1-0.1,0.1-0.1
				C58.8,41.9,61,36,61,29.2c0-6.1-1.8-11.4-5.4-16c-0.7-0.9-1.4-1.7-2.2-2.5c-5.1-5-11.2-7.5-18.4-7.5c-3.8,0-7.3,0.7-10.5,2.1
				c-1.2,0.5-2.3,1.1-3.4,1.8c-1.6,1-3.2,2.2-4.6,3.6h0c-1.3,1.3-2.4,2.7-3.4,4.2c-0.1,0.1-0.1,0.2-0.2,0.4
				c-0.2,0.3-0.2,0.6-0.1,0.9c0.1,0.3,0.2,0.6,0.6,0.8c0.3,0.2,0.6,0.3,0.9,0.2c0.3-0.1,0.6-0.3,0.8-0.6c0.6-1,1.4-1.9,2.1-2.8
				c0.4-0.5,0.8-0.9,1.1-1.3c1.3-1.3,2.7-2.4,4.2-3.2c0,0,0-0.1,0-0.1c0.9-0.6,1.9-1.2,3-1.6c2.9-1.3,6.1-1.9,9.5-1.9
				C41.5,5.7,47.1,8,51.7,12.5z"/>
			<path class="frame" d="M39.6,13.3c-1.4-0.4-3-0.6-4.6-0.6c-1.6,0-3.2,0.2-4.6,0.6H39.6 M55.6,13.3h4.1c-1.1-1.6-2.4-3.1-3.8-4.5
				C50,2.9,43,0,34.8,0S19.4,2.9,13.6,8.8c-2.9,3-5.1,6.2-6.6,9.8c1.9-1.5,3.9-2.7,6.1-3.6c1-1.5,2.1-2.9,3.4-4.2h0
				c1.4-1.4,2.9-2.6,4.6-3.6c1.1-0.7,2.2-1.3,3.4-1.8c3.2-1.4,6.7-2.1,10.5-2.1c7.2,0,13.3,2.5,18.4,7.5
				C54.2,11.6,54.9,12.4,55.6,13.3 M52.4,13.3c-0.3-0.3-0.5-0.5-0.8-0.8C47.1,8,41.5,5.7,35,5.7c-3.5,0-6.6,0.6-9.5,1.9
				c-1,0.4-2,1-3,1.6c0,0,0,0,0,0.1c-1.5,0.9-2.9,1.9-4.2,3.2c-0.4,0.4-0.8,0.8-1.1,1.3c1.7-0.4,3.4-0.6,5.2-0.6h2
				c3.1-2.1,6.6-3.1,10.6-3.1s7.5,1,10.5,3.1H52.4z"/>
		</g>
	</g>
</g>
</svg>
