<?xml version="1.0" encoding="utf-8"?>
<!-- Generator: Adobe Illustrator 19.2.1, SVG Export Plug-In . SVG Version: 6.00 Build 0)  -->
<!DOCTYPE svg PUBLIC "-//W3C//DTD SVG 1.1//EN" "http://www.w3.org/Graphics/SVG/1.1/DTD/svg11.dtd">
<svg version="1.1" id="Layer_1" xmlns="http://www.w3.org/2000/svg" xmlns:xlink="http://www.w3.org/1999/xlink" x="0px" y="0px"
	 viewBox="0 0 27 50.6" style="enable-background:new 0 0 27 50.6;" xml:space="preserve">
<style type="text/css">
	.start-session-pressed .st0{fill:#FFFFFF;}
	.start-session-pressed .frame{fill:#019D54;}
</style>
<g transform="matrix( 1, 0, 0, 1, 0,0) ">
	<g class="start-session-pressed">
		<g id="Layer0_0_FILL">
			<path class="st0" d="M18.8,46.4c-0.1,0.6-1,1.3-2.8,2.1c-1.8,0.8-3.9,1.2-6.4,1.2c-2.4,0-4.4-0.3-6.1-1c2.7,1.2,5.8,1.8,9,1.8
				h6.3V46.4 M4.1,40.6c-0.4,0.1-0.8,0.3-1.2,0.5c-1.8,0.8-2.7,1.7-2.8,2.9v0.1c0.1,1,1,2,2.8,2.8c1.8,0.8,4,1.2,6.6,1.2
				c2.5,0,4.7-0.4,6.4-1.2c1.8-0.8,2.7-1.8,2.8-2.8V44c-0.1-1.2-1-2.1-2.8-2.9c-0.5-0.2-1-0.4-1.5-0.6v0.2c0,1.4-0.5,2.6-1.6,3.6
				c0,0-0.1,0.1-0.1,0.1c-1,1-2.2,1.4-3.6,1.4c-1.4,0-2.6-0.5-3.6-1.5C4.6,43.3,4.1,42.1,4.1,40.6L4.1,40.6 M25,3.7v-1H2.5v3v15.7
				c0,0.9,0.3,1.6,1,2.2c0.6,0.6,1.3,0.9,2.1,0.9c0.2,0,0.3,0,0.5,0v16.1c0,0.9,0.3,1.6,0.9,2.2c0.6,0.6,1.4,0.9,2.2,0.9
				c0.9,0,1.6-0.3,2.2-0.9c0.7-0.6,1-1.4,1-2.2V30.4c0.1,2,0.2,3.3,0.6,4.1c0.1,0.2,0.2,0.4,0.3,0.5c0.3,0.3,0.6,0.5,1,0.6
				c0.4,0.2,0.8,0.2,1.3,0.2c0.9,0,1.7-0.3,2.3-0.9c0.4-0.5,0.7-1.1,0.9-1.8c0.2,1,0.6,1.7,1,2c0.5,0.3,1.2,0.5,2,0.5
				c0.9,0,1.6-0.3,2.2-1c0.7-0.6,1-1.3,1-2.2V21.3c0-0.2,0-0.3,0-0.5V3.7z"/>
			<path class="frame" d="M25,3.7h2.3V2.4c0-0.6-0.2-1.2-0.6-1.6h0C26.1,0.2,25.6,0,25,0H2.3C1.7,0,1.2,0.2,0.7,0.7S0,1.7,0,2.4v4.6
				C0.8,6.4,1.6,6,2.5,5.7v-3H25V3.7z"/>
		</g>
	</g>
</g>
</svg>
