<?xml version="1.0" encoding="utf-8"?>
<svg xmlns="http://www.w3.org/2000/svg"
	xmlns:xlink="http://www.w3.org/1999/xlink"
	viewbox="0 0 16 16" x="0px" y="0px">
<path fill="rgb(245,243,243)" fill-rule="evenodd" d="M 15.46 3.31C 15.46 3.31 10.65 8.02 10.65 8.02 10.65 8.02 15.31 12.58 15.31 12.58 16 13.32 16 14.53 15.31 15.27 14.62 16.02 13.5 16.02 12.81 15.27 12.81 15.27 8.02 10.59 8.02 10.59 8.02 10.59 3.08 15.43 3.08 15.43 2.38 16.19 1.23 16.19 0.53 15.43-0.18 14.67-0.18 13.43 0.53 12.67 0.53 12.67 5.34 7.97 5.34 7.97 5.34 7.97 0.67 3.41 0.67 3.41-0.02 2.67-0.02 1.46 0.67 0.71 1.36-0.03 2.48-0.03 3.18 0.71 3.18 0.71 7.96 5.39 7.96 5.39 7.96 5.39 12.9 0.56 12.9 0.56 13.61-0.2 14.75-0.2 15.46 0.56 16.16 1.32 16.16 2.55 15.46 3.31Z"/>
</svg>
