<?xml version="1.0" encoding="utf-8"?>
<svg xmlns="http://www.w3.org/2000/svg"
	xmlns:xlink="http://www.w3.org/1999/xlink"
	width="12px" height="16px" viewBox="0 0 12 16">
<path fillRule="evenodd" d="M 6 14C 7.1 14 8 13.1 8 12 8 12 8 4 8 4 8 2.9 7.1 2 6 2 4.9 2 4 2.9 4 4 4 4 4 12 4 12 4 13.1 4.9 14 6 14M 6 16C 3.79 16 2 14.21 2 12 2 12 2 4 2 4 2 1.79 3.79-0 6-0 8.21-0 10 1.79 10 4 10 4 10 12 10 12 10 14.21 8.21 16 6 16 6 16 6 16 6 16Z" fill="rgb(176,201,54)"/><path fillRule="evenodd" d="M 10 16C 10 16 2 16 2 16 0.9 16-0 15.1-0 14-0 14-0 8-0 8-0 6.9 0.9 6 2 6 2 6 10 6 10 6 11.1 6 12 6.9 12 8 12 8 12 14 12 14 12 15.1 11.1 16 10 16ZM 6 10C 5.45 10 5 10.45 5 11 5 11.55 5.45 12 6 12 6.55 12 7 11.55 7 11 7 10.45 6.55 10 6 10Z" fill="rgb(175,201,53)"/></svg>