<?xml version="1.0" encoding="utf-8"?>
<svg xmlns="http://www.w3.org/2000/svg"
	xmlns:xlink="http://www.w3.org/1999/xlink"
	width="20px" height="25px" viewBox="0 0 20 25">
<path fillRule="evenodd" d="M 10 19C 11.65 19 13 17.65 13 16 13 16 13 6 13 6 13 4.35 11.65 3 10 3 8.35 3 7 4.35 7 6 7 6 7 16 7 16 7 17.65 8.35 19 10 19M 10 22C 6.69 22 4 19.31 4 16 4 16 4 6 4 6 4 2.69 6.69-0 10-0 13.31-0 16 2.69 16 6 16 6 16 16 16 16 16 19.31 13.31 22 10 22 10 22 10 22 10 22Z" fill="rgb(185,213,57)"/><path fillRule="evenodd" d="M 18 25C 18 25 2 25 2 25 0.9 25 0 24.1 0 23 0 23 0 11 0 11 0 9.9 0.9 9 2 9 2 9 18 9 18 9 19.1 9 20 9.9 20 11 20 11 20 23 20 23 20 24.1 19.1 25 18 25ZM 10 15C 8.9 15 8 15.9 8 17 8 18.1 8.9 19 10 19 11.1 19 12 18.1 12 17 12 15.9 11.1 15 10 15Z" fill="rgb(185,213,57)"/></svg>