<?xml version="1.0" encoding="utf-8"?>
<svg xmlns="http://www.w3.org/2000/svg"
	xmlns:xlink="http://www.w3.org/1999/xlink"
	width="18px" height="19px" viewBox="0 0 18 19">
<path fillRule="evenodd" d="M 16.5 6C 16.5 6 16 6 16 6 16 6 16 17 16 17 16 18.1 15.1 19 14 19 14 19 4 19 4 19 2.9 19 2 18.1 2 17 2 17 2 6 2 6 2 6 1.5 6 1.5 6 0.67 6-0 5.33-0 4.5-0 3.67 0.67 3 1.5 3 1.5 3 4 3 4 3 4 3.05 8.05 3.01 11 2.99 11 2.99 11 3 11 3 11 3 14 3 14 3 14 3 16.5 3 16.5 3 17.33 3 18 3.67 18 4.5 18 5.33 17.33 6 16.5 6ZM 11 2.99C 11 2.99 11 2 11 2 11 2 7 2 7 2 7 2 7 3 7 3 7 3 4 3 4 3 4 3 4 2 4 2 4 0.9 4.9-0 6-0 6-0 12-0 12-0 13.1-0 14 0.9 14 2 14 2 14 3 14 3 14 2.97 12.68 2.98 11 2.99Z" fill="rgb(73,73,73)"/></svg>
