<?xml version="1.0" encoding="utf-8"?>
<svg xmlns="http://www.w3.org/2000/svg"
	xmlns:xlink="http://www.w3.org/1999/xlink"
	width="14px" height="13px">
<path opacity="0.80" fill="rgb(255,3,85)" fill-rule="evenodd" d="M 12.68 2.7C 12.68 2.7 8.88 6.52 8.88 6.52 8.88 6.52 12.57 10.21 12.57 10.21 13.12 10.82 13.12 11.8 12.57 12.4 12.02 13.01 11.13 13.01 10.59 12.4 10.59 12.4 6.79 8.61 6.79 8.61 6.79 8.61 2.88 12.53 2.88 12.53 2.33 13.14 1.42 13.14 0.86 12.53 0.3 11.91 0.3 10.91 0.86 10.29 0.86 10.29 4.67 6.48 4.67 6.48 4.67 6.48 0.97 2.78 0.97 2.78 0.43 2.18 0.43 1.2 0.97 0.59 1.52-0.01 2.41-0.01 2.96 0.59 2.96 0.59 6.75 4.39 6.75 4.39 6.75 4.39 10.66 0.47 10.66 0.47 11.22-0.15 12.12-0.15 12.68 0.47 13.24 1.08 13.24 2.08 12.68 2.7Z"/>
</svg>