<?xml version="1.0" encoding="utf-8"?>
<svg xmlns="http://www.w3.org/2000/svg"
	xmlns:xlink="http://www.w3.org/1999/xlink"
	width="9px" height="8px">
<path fill="rgb(81,81,81)" fill-rule="evenodd" d="M 0.15 4.32C 0.15 4.32 5.14 7.82 5.14 7.82 5.29 7.95 5.71 8.12 5.71 7.92 5.71 8.04 5.71 5.97 5.71 5.97 5.71 5.97 7.55 5.97 7.57 5.97 8.94 6.06 9 5.31 9 5.31 9 5.31 9 2.65 9 2.65 9 2.65 8.92 1.99 7.57 1.99 6.16 1.99 5.7 1.98 5.7 1.98 5.7 1.98 5.71-0.12 5.71-0 5.71 0.07 5.58 0 5.51 0 5.37 0 5.24 0.05 5.14 0.14 5.14 0.14 0.15 3.64 0.15 3.64 0.05 3.73-0.01 3.85-0.01 3.98-0.01 4.1 0.05 4.23 0.15 4.32Z"/>
</svg>