<?xml version="1.0" encoding="utf-8"?>
<svg xmlns="http://www.w3.org/2000/svg"
	xmlns:xlink="http://www.w3.org/1999/xlink"
	width="18px" height="18px">
<path fill="rgb(81,81,81)" fill-rule="evenodd" d="M 15.96 18C 15.96 18 12 18 12 18 10.9 18 10 17.1 10 16 10 16 10 2 10 2 10 0.9 10.9-0 12-0 12-0 15.96-0 15.96-0 17.06-0 17.96 0.9 17.96 2 17.96 2 17.96 16 17.96 16 17.96 17.1 17.06 18 15.96 18ZM 5.96 18C 5.96 18 2 18 2 18 0.9 18 0 17.1 0 16 0 16 0 2 0 2 0 0.9 0.9-0 2-0 2-0 5.96-0 5.96-0 7.06-0 7.96 0.9 7.96 2 7.96 2 7.96 16 7.96 16 7.96 17.1 7.06 18 5.96 18Z"/>
</svg>