<svg xmlns="http://www.w3.org/2000/svg" viewBox="0 0 439.54 527.47">
  <defs>
    <style>.cls-1 {
      isolation: isolate;
    }

    .manage .cls-2, .manage .cls-3 {
      fill: #dde6e0;
    }

    .manage .cls-2 {
      opacity: 0.6;
    }

    .manage .cls-2, .manage .cls-5 {
      mix-blend-mode: multiply;
    }

    .manage .cls-3, .manage .cls-4, .manage .cls-5, .manage .cls-6 {
      fill-rule: evenodd;
    }

    .manage .cls-4 {
      fill: #f7f7f7;
    }

    .manage .cls-5 {
      fill: #bbbdbf;
    }

    .manage .cls-6, .manage .cls-7 {
      fill: #bbd639;
    }</style>
  </defs>
  <title>iconsGrid</title>
  <g class="manage cls-1">
    <g id="Layer_1" data-name="Layer 1">
      <ellipse class="cls-2" cx="219.77" cy="510.27" rx="219.77" ry="17.2"/>
      <path class="cls-3"
            d="M105,35.78H337.92c15.9,0,25.82,10.72,25.82,23.94V352.57c0,13.22-9.92,23.94-22.16,23.94H109.67c-12.24,0-23.19-10.72-23.19-23.94V59.72C86.48,46.5,96.4,35.78,105,35.78Z"/>
      <path class="cls-4"
            d="M307.18,343.76H105.44V66.9c0-8.17,6.13-14.79,13.69-14.79h212c7.56,0,13.69,6.62,13.69,14.79V306.1Z"/>
      <polyline class="cls-5" points="345.79 304.33 308.16 304.33 308.16 341.96"/>
      <path class="cls-6"
            d="M245.52,32.19a23.94,23.94,0,0,0,2.55-14.6C246.54,7.37,237.44,0,227.12,0h-0.55c-10.33,0-19.42,7.37-21,17.58a23.94,23.94,0,0,0,2.55,14.6H175.11v10.7a13,13,0,0,0-.1,1.55c0,8.59,9.13,18.81,17.73,18.81h66.54A17.78,17.78,0,0,0,277,45.52V32.19H245.52Zm-18-8.58a4.75,4.75,0,0,1-5.71-5.71,4.7,4.7,0,0,1,3.54-3.54,4.75,4.75,0,0,1,5.71,5.7A4.7,4.7,0,0,1,227.5,23.61Z"/>
      <path class="cls-7" d="M211.24,244.14l-35-36.67a9,9,0,1,1,13-12.37l21.63,22.66,51.23-57.18a9,9,0,0,1,13.34,12Z"/>
    </g>
  </g>
</svg>
