<svg xmlns="http://www.w3.org/2000/svg" xmlns:xlink="http://www.w3.org/1999/xlink" viewBox="0 0 348.45 525.19">
  <defs>
    <style>.cls-1 {
      fill: none;
    }

    .review .cls-2 {
      isolation: isolate;
    }

    .review .cls-3, .review .cls-6, .review .cls-9 {
      fill: #dde6e0;
    }

    .review .cls-3 {
      opacity: 0.6;
    }

    .review .cls-3, .review .cls-6 {
      mix-blend-mode: multiply;
    }

    .review .cls-4 {
      fill: #ced8d2;
    }

    .review .cls-5 {
      mix-blend-mode: darken;
    }

    .review .cls-7 {
      fill: #00c0f3;
    }

    .review .cls-8 {
      fill: #f7f7f7;
    }

    .review .cls-10 {
      clip-path: url(#clip-path);
    }

    .review .cls-11 {
      fill: #00cfff;
    }</style>
    <clipPath id="clip-path">
      <circle class="cls-1" cx="146" cy="146" r="131.82"/>
    </clipPath>
  </defs>
  <title>iconsGrid</title>
  <g class="review cls-2">
    <g id="Layer_1" data-name="Layer 1">
      <path class="cls-3"
            d="M267.22,235.46h37.61a3.48,3.48,0,0,1,3.48,3.48V382.32A22.29,22.29,0,0,1,286,404.61h0a22.29,22.29,0,0,1-22.29-22.29V238.94A3.48,3.48,0,0,1,267.22,235.46Z"
            transform="translate(-138.92 259.59) rotate(-40.12)"/>
      <path class="cls-4" d="M343.2,353.32a22.29,22.29,0,0,1-2.68,31.4h0a22.29,22.29,0,0,1-31.4-2.68"/>
      <g class="cls-5">
        <polyline class="cls-6"
                  points="327 140.72 276.8 113.97 234.34 131.11 232.44 131.11 232.44 137.96 234.77 137.96 276.75 121.17 327.26 148.42"/>
      </g>
      <circle class="cls-7" cx="278.13" cy="118.34" r="9.44"/>
      <circle class="cls-7" cx="237.22" cy="133.62" r="9.44"/>
      <circle class="cls-7" cx="327.13" cy="144.57" r="9.44"/>
      <path class="cls-7"
            d="M250.53,167.64a9.74,9.74,0,0,1,9.67,9.81l-0.06,55a9.74,9.74,0,0,1-19.48-.14l0.06-55a9.74,9.74,0,0,1,9.81-9.67"/>
      <path class="cls-7"
            d="M278.28,148.42a9.74,9.74,0,0,1,10,9.53v74.24a9.74,9.74,0,0,1-19.47.42V158.37a9.74,9.74,0,0,1,9.52-9.95"/>
      <path class="cls-7"
            d="M306.45,190.38a9.74,9.74,0,0,0-9.67,9.81v32.29a9.74,9.74,0,0,0,19.48-.14V200a9.74,9.74,0,0,0-9.81-9.67"/>
      <path class="cls-8"
            d="M146,284.9C69.4,284.9,7.09,222.59,7.09,146S69.4,7.09,146,7.09,284.9,69.4,284.9,146,222.59,284.9,146,284.9Z"/>
      <path class="cls-9"
            d="M146,14.17A131.82,131.82,0,1,1,14.17,146,131.82,131.82,0,0,1,146,14.17M146,0A146,146,0,0,0,42.76,249.23,146,146,0,0,0,249.23,42.76,145,145,0,0,0,146,0h0Z"/>
      <g class="cls-10">
        <g class="cls-5">
          <polyline class="cls-6"
                    points="139.33 91.72 217.64 49.99 283.86 76.72 286.83 76.72 286.83 87.41 283.19 87.41 217.72 61.22 138.94 103.73"/>
        </g>
        <circle class="cls-11" cx="215.55" cy="56.81" r="14.72"/>
        <circle class="cls-11" cx="279.36" cy="80.64" r="14.72"/>
        <circle class="cls-11" cx="139.13" cy="97.72" r="14.72"/>
        <path class="cls-11"
              d="M258.6,133.71A15.19,15.19,0,0,0,243.52,149l0.09,85.81A15.19,15.19,0,0,0,274,234.6l-0.09-85.81a15.19,15.19,0,0,0-15.3-15.08"/>
        <path class="cls-11"
              d="M215.33,103.73a15.19,15.19,0,0,0-15.52,14.86V234.38a15.19,15.19,0,0,0,30.37.66V119.25a15.19,15.19,0,0,0-14.86-15.52"/>
        <path class="cls-11"
              d="M171.39,169.16a15.19,15.19,0,0,1,15.08,15.3v50.36a15.19,15.19,0,0,1-30.38-.22V184.24a15.19,15.19,0,0,1,15.3-15.08"/>
      </g>
      <ellipse class="cls-3" cx="181.31" cy="507.71" rx="150.5" ry="17.2"/>
    </g>
  </g>
</svg>
